<svg width="86" height="85" viewBox="0 0 86 85" fill="none" xmlns="http://www.w3.org/2000/svg">
<circle cx="43" cy="42.5" r="42.5" fill="#F1F6FE"/>
<g clip-path="url(#clip0_2159_16820)">
<g opacity="0.35">
<path opacity="0.04" d="M46.0815 70.8077C57.7859 70.687 67.2421 67.4662 67.2024 63.6137C67.1628 59.7613 57.6424 56.736 45.938 56.8567C34.2336 56.9774 24.7775 60.1982 24.8171 64.0507C24.8567 67.9031 34.3771 70.9284 46.0815 70.8077Z" fill="#4A2009"/>
<path opacity="0.08" d="M46.0797 70.6235C57.4744 70.506 66.6804 67.3703 66.6418 63.6196C66.6033 59.869 57.3347 56.9237 45.94 57.0412C34.5452 57.1587 25.3392 60.2944 25.3778 64.045C25.4164 67.7957 34.6849 70.7409 46.0797 70.6235Z" fill="#481F09"/>
<path opacity="0.15" d="M46.0759 70.2551C56.8519 70.144 65.5579 67.1787 65.5215 63.632C65.485 60.0852 56.7197 57.3001 45.9437 57.4112C35.1677 57.5222 26.4616 60.4875 26.4981 64.0343C26.5346 67.581 35.2999 70.3662 46.0759 70.2551Z" fill="#441F0A"/>
<path opacity="0.38" d="M46.0645 69.1479C54.9837 69.0559 62.1897 66.6016 62.1595 63.666C62.1293 60.7304 54.8743 58.4251 45.9551 58.5171C37.0359 58.6091 29.8299 61.0634 29.8601 63.999C29.8903 66.9346 37.1452 69.2398 46.0645 69.1479Z" fill="#381D0E"/>
<path opacity="0.58" d="M46.055 68.2267C53.4268 68.1507 59.3826 66.122 59.3577 63.6955C59.3327 61.269 53.3364 59.3635 45.9646 59.4395C38.5928 59.5155 32.6369 61.5442 32.6619 63.9707C32.6869 66.3973 38.6831 68.3027 46.055 68.2267Z" fill="#2F1B11"/>
<path opacity="0.69" d="M46.0488 67.6732C52.4923 67.6067 57.698 65.8336 57.6762 63.7128C57.6544 61.592 52.4133 59.9266 45.9698 59.993C39.5264 60.0594 34.3206 61.8325 34.3424 63.9534C34.3642 66.0742 39.6054 67.7396 46.0488 67.6732Z" fill="#291A13"/>
<path opacity="0.73" d="M46.0469 67.4889C52.181 67.4257 57.1368 65.7377 57.116 63.7187C57.0953 61.6997 52.1058 60.1143 45.9717 60.1775C39.8376 60.2407 34.8818 61.9287 34.9026 63.9477C34.9234 65.9667 39.9128 67.5522 46.0469 67.4889Z" fill="#271A14"/>
<path opacity="0.77" d="M46.0225 67.3297C51.8473 67.2714 56.5536 65.6699 56.5345 63.7526C56.5153 61.8353 51.7779 60.3283 45.9531 60.3866C40.1284 60.4449 35.422 62.0465 35.4412 63.9637C35.4603 65.881 40.1977 67.388 46.0225 67.3297Z" fill="#251A14"/>
<path opacity="0.81" d="M46.0432 67.1195C51.5582 67.0626 56.0139 65.5449 55.9953 63.7295C55.9766 61.9142 51.4906 60.4886 45.9755 60.5455C40.4605 60.6023 36.0048 62.1201 36.0234 63.9354C36.0421 65.7508 40.5281 67.1763 46.0432 67.1195Z" fill="#231A15"/>
<path opacity="0.85" d="M46.0413 66.9353C51.2469 66.8817 55.4527 65.4493 55.4351 63.736C55.4175 62.0227 51.1831 60.6773 45.9774 60.731C40.7717 60.7846 36.566 62.217 36.5836 63.9303C36.6012 65.6436 40.8356 66.989 46.0413 66.9353Z" fill="#211916"/>
<path opacity="0.88" d="M46.0389 66.7511C50.9349 66.7006 54.8905 65.3534 54.874 63.7419C54.8574 62.1304 50.8749 60.865 45.9789 60.9154C41.0828 60.9659 37.1272 62.3132 37.1438 63.9247C37.1604 65.5361 41.1428 66.8016 46.0389 66.7511Z" fill="#1F1916"/>
<path opacity="0.92" d="M46.037 66.5659C50.6237 66.5186 54.3293 65.2565 54.3138 63.7468C54.2983 62.2371 50.5674 61.0517 45.9808 61.099C41.3941 61.1462 37.6884 62.4084 37.704 63.918C37.7195 65.4277 41.4503 66.6132 46.037 66.5659Z" fill="#1D1917"/>
<path opacity="0.96" d="M46.0351 66.3817C50.3124 66.3376 53.7681 65.1606 53.7536 63.7527C53.7391 62.3449 50.26 61.2393 45.9827 61.2834C41.7054 61.3275 38.2497 62.5046 38.2641 63.9124C38.2786 65.3203 41.7578 66.4258 46.0351 66.3817Z" fill="#1B1817"/>
<path opacity="0.35" d="M46.011 66.2233C49.9789 66.1836 53.1849 65.0926 53.1718 63.7865C53.1588 62.4804 49.9316 61.4538 45.9637 61.4935C41.9958 61.5332 38.7898 62.6242 38.8029 63.9303C38.8159 65.2364 42.0431 66.263 46.011 66.2233Z" fill="#191818"/>
</g>
<path d="M75.3917 15.1687L58.9115 12.5662C58.4531 12.494 57.9838 12.5483 57.554 12.7231C57.1242 12.898 56.7501 13.1868 56.4719 13.5586L54.0806 16.7497C53.8185 17.0997 53.4659 17.3713 53.0609 17.5354C52.6559 17.6995 52.2139 17.7497 51.7825 17.6806L30.0671 14.2068C29.5273 14.1209 28.9746 14.2309 28.5086 14.5168C28.0425 14.8027 27.6938 15.2459 27.5253 15.7664L16.6171 49.4853L55.6125 62.0855L75.3917 15.1687Z" fill="url(#paint0_linear_2159_16820)"/>
<path d="M47.4595 59.4512L55.6125 62.086L47.8055 63.5942L47.4595 59.4512Z" fill="url(#paint1_linear_2159_16820)"/>
<path d="M51.5301 60.1434L47.495 9.71999C47.4517 9.19557 47.2449 8.69803 46.9037 8.29774C46.5625 7.89745 46.1043 7.61467 45.5938 7.48939L15.157 0.0232518C14.3004 -0.187062 11.3402 1.07528 11.4111 1.95614L17.7794 54.6648L48.3557 62.9043C49.4116 63.1438 51.6188 61.2232 51.5301 60.1434Z" fill="url(#paint2_linear_2159_16820)"/>
<path d="M49.2397 61.4166L45.2041 10.9932C45.1611 10.4687 44.9544 9.97114 44.6133 9.57082C44.2722 9.1705 43.8139 8.88774 43.3034 8.76256L12.8685 1.29688C12.6695 1.24814 12.4618 1.2474 12.2625 1.29471C12.0632 1.34202 11.878 1.43604 11.7221 1.56902C11.5661 1.70201 11.444 1.87016 11.3657 2.05964C11.2873 2.24912 11.2551 2.45451 11.2715 2.65891L15.489 55.9398L47.289 63.1159C47.5346 63.1713 47.7898 63.168 48.034 63.1063C48.2781 63.0447 48.5043 62.9263 48.6942 62.7608C48.8842 62.5953 49.0325 62.3874 49.1273 62.1539C49.2221 61.9204 49.2606 61.6678 49.2397 61.4166Z" fill="url(#paint3_linear_2159_16820)"/>
<path d="M8.5 22.5566L42.7868 32.029L45.6702 66.7899L13.1108 56.566L8.5 22.5566Z" fill="url(#paint4_linear_2159_16820)"/>
<path d="M42.7868 32.029L45.044 30.545L47.8055 63.5943L55.6125 62.0857L75.3926 15.168L77.0413 17.1682C77.2151 17.3791 77.3275 17.6338 77.3662 17.9045C77.4048 18.1751 77.3683 18.4511 77.2605 18.7023L57.5018 64.7351L45.6683 66.79L42.7868 32.029Z" fill="#C8AA34"/>
<path d="M42.7868 32.0286L8.5 22.5563L11.2192 21.335L45.0445 30.5446L42.7868 32.0286Z" fill="#D8BB5A"/>
<path d="M52.515 61.5229L64.8573 30.7128C65.1601 29.9572 64.1902 27.9296 63.3936 27.7662L49.6721 26.0254L51.5364 60.7686L52.515 61.5229Z" fill="url(#paint5_linear_2159_16820)"/>
<path d="M51.5301 60.144L63.8742 29.3339C63.9453 29.1565 63.9766 28.9657 63.9659 28.7749C63.9552 28.584 63.9028 28.3979 63.8124 28.2296C63.7219 28.0612 63.5957 27.9148 63.4426 27.8007C63.2894 27.6865 63.1131 27.6075 62.9261 27.569L48.6895 24.6465L51.5301 60.144Z" fill="url(#paint6_linear_2159_16820)"/>
<path d="M39.6625 15.9517L18.5383 10.1845C18.1704 10.0839 17.843 9.69742 17.8107 9.3255C17.7789 8.95358 18.054 8.73371 18.4223 8.83204L39.5461 14.5993C39.9144 14.6999 40.2418 15.0864 40.2736 15.4583C40.3055 15.8302 40.0299 16.0524 39.6625 15.9517Z" fill="#C4C4C4"/>
<path d="M39.9735 19.5739L16.3165 13.1152C15.9482 13.0146 15.6208 12.6281 15.589 12.2562C15.5572 11.8842 15.8323 11.6644 16.2006 11.7627L39.8576 18.2214C40.2254 18.322 40.5528 18.7085 40.5851 19.0804C40.6169 19.4523 40.3418 19.6745 39.9735 19.5739Z" fill="#C4C4C4"/>
<path d="M40.285 23.1967L16.628 16.7376C16.2597 16.6374 15.9323 16.2509 15.9005 15.879C15.8682 15.5071 16.1433 15.2849 16.5116 15.3855L40.1686 21.8438C40.5369 21.9444 40.8643 22.3309 40.8961 22.7028C40.9279 23.0752 40.6528 23.2973 40.285 23.1967Z" fill="#C4C4C4"/>
<path d="M36.61 25.73L16.939 20.3583C16.5707 20.2577 16.2433 19.8712 16.2115 19.4993C16.1797 19.1274 16.4548 18.9075 16.8226 19.0059L36.4936 24.3775C36.8619 24.4781 37.1893 24.8646 37.2211 25.2365C37.2534 25.6084 36.9783 25.8306 36.61 25.73Z" fill="#C4C4C4"/>
</g>
<defs>
<linearGradient id="paint0_linear_2159_16820" x1="68.9766" y1="25.099" x2="24.4235" y2="46.8935" gradientUnits="userSpaceOnUse">
<stop stop-color="#EAE488"/>
<stop offset="1" stop-color="#C6A731"/>
</linearGradient>
<linearGradient id="paint1_linear_2159_16820" x1="54.8886" y1="67.6798" x2="46.5661" y2="55.0395" gradientUnits="userSpaceOnUse">
<stop stop-color="#EAE488"/>
<stop offset="1" stop-color="#C6A731"/>
</linearGradient>
<linearGradient id="paint2_linear_2159_16820" x1="77.106" y1="99.6059" x2="-12.5553" y2="-36.5755" gradientUnits="userSpaceOnUse">
<stop stop-color="#C9C9C9"/>
<stop offset="1" stop-color="#8B8B8B"/>
</linearGradient>
<linearGradient id="paint3_linear_2159_16820" x1="74.5459" y1="100.469" x2="-14.4349" y2="-34.6794" gradientUnits="userSpaceOnUse">
<stop stop-color="#C9C9C9"/>
<stop offset="1" stop-color="#F9F9F9"/>
</linearGradient>
<linearGradient id="paint4_linear_2159_16820" x1="44.3556" y1="30.6637" x2="15.3409" y2="54.1474" gradientUnits="userSpaceOnUse">
<stop stop-color="#EAE488"/>
<stop offset="1" stop-color="#C6A731"/>
</linearGradient>
<linearGradient id="paint5_linear_2159_16820" x1="74.9688" y1="70.6342" x2="36.1077" y2="11.6107" gradientUnits="userSpaceOnUse">
<stop stop-color="#C9C9C9"/>
<stop offset="1" stop-color="#8B8B8B"/>
</linearGradient>
<linearGradient id="paint6_linear_2159_16820" x1="74.0948" y1="69.1829" x2="35.2338" y2="10.1589" gradientUnits="userSpaceOnUse">
<stop stop-color="#C9C9C9"/>
<stop offset="1" stop-color="#F9F9F9"/>
</linearGradient>
<clipPath id="clip0_2159_16820">
<rect width="68.8806" height="71" fill="white" transform="translate(8.5)"/>
</clipPath>
</defs>
</svg>
