<svg width="86" height="95" viewBox="0 0 86 95" fill="none" xmlns="http://www.w3.org/2000/svg">
<circle cx="43" cy="52.5" r="42.5" fill="#F1F6FE"/>
<g clip-path="url(#clip0_2159_16819)">
<path d="M29.6176 2.10736L33.2021 0.0434482C33.2876 0.00531045 33.3815 -0.0102002 33.4747 -0.00159462C33.5679 0.00701097 33.6574 0.0394438 33.7345 0.092589L64.6085 17.9225C64.8643 18.1058 65.0736 18.3465 65.2196 18.6253C65.3656 18.904 65.4443 19.2131 65.4494 19.5278V89.7581C65.4644 89.8872 65.4447 90.018 65.3924 90.137C65.3401 90.256 65.2571 90.3589 65.1518 90.4351L61.5672 92.499L61.4963 88.5978L33.7345 72.567C33.478 72.3843 33.2683 72.1438 33.1222 71.8649C32.9761 71.586 32.8978 71.2766 32.8936 70.9617V3.93922C32.8199 4.16581 32.7653 4.33234 32.7571 4.3378C32.7489 4.34326 29.6176 2.10736 29.6176 2.10736Z" fill="url(#paint0_linear_2159_16819)"/>
<path d="M65.4275 19.2715L56.0989 24.6578L54.6902 23.8388L64.7723 18.0293C65.1265 18.3561 65.3577 18.7946 65.4275 19.2715Z" fill="url(#paint1_linear_2159_16819)"/>
<path d="M30.1717 74.6206L61.0458 92.445C61.5099 92.718 61.8866 92.4286 61.8866 91.8116V21.5813C61.8816 21.2663 61.8029 20.9568 61.6569 20.6776C61.5109 20.3984 61.3016 20.1572 61.0458 19.9733L30.1717 2.14889C29.7076 1.87588 29.3309 2.16527 29.3309 2.78499V73.0098C29.3351 73.3254 29.4134 73.6356 29.5594 73.9154C29.7055 74.1952 29.9152 74.4367 30.1717 74.6206Z" fill="url(#paint2_linear_2159_16819)"/>
<path d="M29.3309 69.1714L61.8866 87.9678V25.4252L29.3309 6.62891V69.1714Z" fill="#242993"/>
<path d="M29.3309 69.1714L61.8866 87.9678V25.4252L29.3309 6.62891V69.1714Z" fill="#242993"/>
<g opacity="0.51">
<path opacity="0.51" d="M29.3309 66.9765L61.8866 85.7729V27.4292L29.3309 8.63281V66.9765Z" fill="#4553C7"/>
</g>
<path d="M43.0739 12.7599L48.9626 16.1724C49.1346 16.2707 49.2793 16.3008 49.3448 16.1397C49.3667 16.0755 49.3778 16.0082 49.3776 15.9404C49.3745 15.7846 49.3352 15.6317 49.2627 15.4938C49.1901 15.3559 49.0865 15.2368 48.9599 15.1459L43.0084 11.7088C42.992 11.7088 42.9756 11.6788 42.9565 11.6843C42.7681 11.7361 42.7381 11.7716 42.7381 12.0555L42.7654 12.1347C42.7486 12.2578 42.7689 12.3831 42.8239 12.4945C42.8789 12.606 42.9659 12.6984 43.0739 12.7599Z" fill="#5778FF"/>
<path d="M42.9565 11.6876C42.932 11.7502 42.92 11.817 42.921 11.8842C42.9237 12.0401 42.9628 12.1931 43.0354 12.3311C43.1079 12.4691 43.2118 12.5881 43.3387 12.6787L49.2902 16.1158L49.3448 16.1403C49.3328 16.1781 49.3118 16.2123 49.2835 16.24C49.2552 16.2678 49.2206 16.2882 49.1827 16.2995C49.1447 16.3108 49.1046 16.3126 49.0658 16.3049C49.027 16.2971 48.9906 16.28 48.9599 16.255L43.0084 12.8206C42.8822 12.7297 42.7789 12.6105 42.7069 12.4725C42.6348 12.3346 42.596 12.1818 42.5934 12.0262C42.5934 11.7422 42.7518 11.603 42.9565 11.6876Z" fill="#BCD5FF"/>
<path d="M63.7868 27.4175L63.855 27.3792C63.8943 27.3514 63.9403 27.3345 63.9882 27.3302C64.0362 27.3259 64.0844 27.3343 64.128 27.3547L64.3819 27.4994H64.2591C64.2835 27.5686 64.2955 27.6416 64.2946 27.715V31.7855C64.2913 31.9544 64.2489 32.1201 64.1708 32.2698C64.0926 32.4195 63.9808 32.549 63.8441 32.6482L63.7759 32.6864C63.7468 32.7041 63.7156 32.7179 63.683 32.7274L63.7486 32.8639L63.4756 32.7083C63.4196 32.667 63.3755 32.6117 63.3477 32.548C63.3199 32.4842 63.3094 32.4143 63.3172 32.3452V28.272C63.3239 28.1029 63.3698 27.9377 63.4513 27.7894C63.5328 27.6411 63.6477 27.5138 63.7868 27.4175Z" fill="#E9FFFF"/>
<path d="M64.0433 32.8257L64.1089 32.7875C64.2461 32.6886 64.3584 32.5592 64.437 32.4095C64.5157 32.2598 64.5585 32.0939 64.5621 31.9248V27.857C64.5621 27.5267 64.36 27.3738 64.1089 27.5185L64.0433 27.5567C63.9061 27.6547 63.7938 27.7836 63.7156 27.933C63.6373 28.0824 63.5953 28.2481 63.5929 28.4167V32.4844C63.5929 32.8175 63.7922 32.9704 64.0433 32.8257Z" fill="#BCD5FF"/>
<path d="M63.7867 33.6147L63.855 33.5765C63.8943 33.5487 63.9402 33.5318 63.9882 33.5275C64.0361 33.5232 64.0843 33.5316 64.128 33.5519L64.3819 33.6966H64.259C64.2834 33.7649 64.2955 33.837 64.2945 33.9096V37.9773C64.2908 38.1457 64.2482 38.3109 64.1701 38.4601C64.0919 38.6093 63.9804 38.7384 63.844 38.8373L63.7758 38.8782C63.7462 38.894 63.7151 38.9068 63.683 38.9165L63.7485 39.053L63.4755 38.9001C63.4195 38.8588 63.3754 38.8035 63.3476 38.7398C63.3198 38.676 63.3093 38.6061 63.3172 38.537V34.4692C63.3239 34.3001 63.3698 34.1349 63.4513 33.9867C63.5328 33.8384 63.6476 33.711 63.7867 33.6147Z" fill="#E9FFFF"/>
<path d="M64.0433 39.0317L64.1089 38.9935C64.2468 38.8959 64.3597 38.7672 64.4384 38.6178C64.5172 38.4683 64.5596 38.3024 64.5621 38.1335V34.0658C64.5621 33.7327 64.36 33.5798 64.1089 33.7245L64.0433 33.7627C63.9057 33.861 63.7932 33.9903 63.715 34.1402C63.6367 34.2901 63.5949 34.4563 63.5929 34.6254V38.6932C63.5929 39.0235 63.7922 39.1764 64.0433 39.0317Z" fill="#BCD5FF"/>
<path opacity="0.6" d="M29.3309 73.0098V33.4242C30.5321 30.0909 32.9291 26.9049 35.6919 25.3105L57.4012 37.8496C53.4344 40.1401 50.2184 45.7094 50.2184 50.2904V84.962C50.216 85.3621 50.1868 85.7615 50.1311 86.1577L30.1717 74.6206C29.9152 74.4367 29.7055 74.1952 29.5594 73.9154C29.4134 73.6356 29.3351 73.3254 29.3309 73.0098Z" fill="#242993"/>
<path d="M29.5547 20.9343L31.7634 19.6621C31.7795 19.6513 31.7985 19.6455 31.818 19.6455C31.8374 19.6455 31.8564 19.6513 31.8726 19.6621L59.5552 35.6437C59.6048 35.6799 59.6455 35.7271 59.6739 35.7815C59.7023 35.836 59.7177 35.8963 59.719 35.9577V41.183C59.7213 41.2057 59.7183 41.2286 59.7102 41.2499C59.7022 41.2712 59.6893 41.2903 59.6726 41.3058L57.4421 42.5917L57.4258 40.0664L31.8807 25.3242C31.831 25.2887 31.7903 25.2421 31.7618 25.1881C31.7334 25.134 31.718 25.074 31.7169 25.013V23.2193L29.5547 20.9343Z" fill="url(#paint3_linear_2159_16819)"/>
<path d="M29.6639 26.5987L57.3465 42.5831C57.4366 42.6349 57.5076 42.5831 57.5076 42.4575V37.2458C57.5071 37.1849 57.4922 37.125 57.4643 37.071C57.4363 37.0169 57.396 36.9702 57.3465 36.9346L29.6639 20.9448C29.5738 20.8929 29.5001 20.9448 29.5001 21.0703V26.2956C29.5024 26.3553 29.5184 26.4137 29.5468 26.4662C29.5752 26.5187 29.6153 26.5641 29.6639 26.5987Z" fill="url(#paint4_linear_2159_16819)"/>
<path opacity="0.6" d="M33.4833 25.5508L55.037 38.2236C54.3542 38.8154 53.7265 39.4679 53.1614 40.1729L31.4467 27.6393C32.0535 26.8764 32.7359 26.1767 33.4833 25.5508Z" fill="#242993"/>
<path d="M30.4529 25.0402L56.5549 40.11C56.6177 40.1455 56.6668 40.11 56.6668 40.0254V38.7123C56.6656 38.6706 56.655 38.6297 56.6356 38.5928C56.6161 38.5559 56.5885 38.5239 56.5549 38.4993L30.4529 23.4268C30.3901 23.3913 30.341 23.4268 30.341 23.5114V24.8245C30.3417 24.8667 30.3522 24.9081 30.3716 24.9455C30.3911 24.9829 30.4189 25.0153 30.4529 25.0402Z" fill="#242993"/>
<path d="M30.4529 23.4262L30.9853 23.7347V24.4418C30.986 24.4839 30.9965 24.5253 31.0159 24.5627C31.0354 24.6002 31.0632 24.6326 31.0972 24.6574L56.6668 39.4297V40.0358C56.6668 40.1177 56.6177 40.1559 56.5549 40.1204L30.4529 25.0506C30.4189 25.0257 30.3911 24.9933 30.3716 24.9559C30.3522 24.9184 30.3417 24.877 30.341 24.8349V23.5217C30.341 23.4289 30.3901 23.3907 30.4529 23.4262Z" fill="#4553C7"/>
<path opacity="0.96" d="M41.2148 94.9997L19.5 82.4633C22.8743 80.5141 25.6098 75.7747 25.6098 71.8789V37.2074C25.6098 32.6264 28.8258 27.0571 32.7926 24.7666L54.5073 37.303C50.5406 39.5935 47.3273 45.1627 47.3273 49.7438V84.4153C47.3273 88.3138 44.5973 93.0504 41.2148 94.9997Z" fill="url(#paint5_linear_2159_16819)"/>
<path opacity="0.8" d="M32.7926 24.7783L54.5073 37.3147C54.3353 37.4157 54.1634 37.5249 53.9914 37.6368L32.2848 25.1005C32.4486 24.9885 32.6206 24.8793 32.7926 24.7783Z" fill="#4553C7"/>
<path d="M57.2429 51.0518L58.0974 51.5487V50.9727L57.2429 50.4785V51.0518Z" fill="#42FFFF"/>
<path d="M57.2429 54.9341L58.0974 55.4283V52.0703L57.2429 51.5762V54.9341Z" fill="#42FFFF"/>
<path d="M57.2429 56.7903L58.0974 57.2871V55.9521L57.2429 55.458V56.7903Z" fill="#42FFFF"/>
<path d="M57.2429 58.7151L58.0974 59.2092V57.877L57.2429 57.3828V58.7151Z" fill="#42FFFF"/>
<path d="M55.9651 52.1711L56.8224 52.6653V51.333L55.9651 50.8389V52.1711Z" fill="#42FFFF"/>
<path d="M55.9651 54.7211L56.8224 55.2152V53.2578L55.9651 52.7637V54.7211Z" fill="#42FFFF"/>
<path d="M55.9652 57.0657L56.8224 57.5598V55.8809L55.9652 55.3867V57.0657Z" fill="#42FFFF"/>
<path d="M57.2429 60.6399L58.0974 61.134V59.8018L57.2429 59.3076V60.6399Z" fill="#42FFFF"/>
<path d="M55.9651 50.3145L56.8224 50.8114V50.2353L55.9651 49.7412V50.3145Z" fill="#42FFFF"/>
<path d="M56.604 62.139L58.0973 63.0016V62.4447L56.604 61.582V62.139Z" fill="#42FFFF"/>
<g opacity="0.32">
<path opacity="0.32" d="M39.3201 62.1552L43.2923 64.4402V63.9979L39.3201 61.7129V62.1552Z" fill="#4553C7"/>
<path opacity="0.32" d="M37.2835 60.9833L38.714 61.8078L38.7113 61.3655L37.2808 60.541L37.2835 60.9833Z" fill="#4553C7"/>
<path opacity="0.32" d="M35.7028 60.077L36.6747 60.634V60.1917L35.7028 59.6348V60.077Z" fill="#4553C7"/>
<path opacity="0.32" d="M41.1301 64.205L43.295 65.4499V65.0076L41.1301 63.7627V64.205Z" fill="#4553C7"/>
<path opacity="0.32" d="M37.8704 62.3329L40.524 63.859L40.5213 63.414L37.8704 61.8906V62.3329Z" fill="#4553C7"/>
<path opacity="0.32" d="M36.2925 61.4237L37.2644 61.9834L37.2616 61.5411L36.2897 60.9814L36.2925 61.4237Z" fill="#4553C7"/>
<path opacity="0.32" d="M34.7882 60.5604L35.7601 61.1174V60.6751L34.7882 60.1182V60.5604Z" fill="#4553C7"/>
<path opacity="0.32" d="M41.7307 65.5624L43.2978 66.4606L43.295 66.0183L41.7307 65.1201V65.5624Z" fill="#4553C7"/>
<path opacity="0.32" d="M40.5869 64.9042L41.1219 65.2127V64.7704L40.5869 64.4619V64.9042Z" fill="#4553C7"/>
<path opacity="0.32" d="M39.0089 63.995L39.9807 64.5547V64.1124L39.0089 63.5527V63.995Z" fill="#4553C7"/>
<path opacity="0.32" d="M37.5183 64.1483L43.2978 67.4735V67.0312L37.5156 63.7061L37.5183 64.1483Z" fill="#4553C7"/>
<path opacity="0.32" d="M35.4789 62.9764L36.9095 63.7982V63.3559L35.4789 62.5342V62.9764Z" fill="#4553C7"/>
<path opacity="0.32" d="M41.7335 67.5819L43.3005 68.4801L43.2978 68.0378L41.7335 67.1396V67.5819Z" fill="#4553C7"/>
<path opacity="0.32" d="M38.0588 65.4667L41.1274 67.233V66.7908L38.0561 65.0244L38.0588 65.4667Z" fill="#4553C7"/>
<path opacity="0.32" d="M36.4781 64.5604L37.45 65.1201V64.6778L36.4781 64.1182V64.5604Z" fill="#4553C7"/>
<path opacity="0.32" d="M40.0982 67.6503L43.3033 69.493L43.3005 69.0508L40.0955 67.208L40.0982 67.6503Z" fill="#4553C7"/>
<path opacity="0.32" d="M37.1716 65.9657L39.4894 67.3007V66.8584L37.1716 65.5234V65.9657Z" fill="#4553C7"/>
<path opacity="0.32" d="M34.9985 64.7186L36.5655 65.6196V65.1773L34.9985 64.2764V64.7186Z" fill="#4553C7"/>
<path opacity="0.32" d="M42.2222 69.8807L43.3032 70.5032V70.0609L42.2194 69.4385L42.2222 69.8807Z" fill="#4553C7"/>
<path opacity="0.32" d="M40.1828 68.7098L41.6133 69.5316V69.0893L40.1828 68.2676V68.7098Z" fill="#4553C7"/>
<path opacity="0.32" d="M37.2726 67.0331L39.5767 68.3599V67.9176L37.2698 66.5908L37.2726 67.0331Z" fill="#4553C7"/>
<path opacity="0.32" d="M39.989 69.6054L43.306 71.5137L43.3032 71.0714L39.989 69.1631V69.6054Z" fill="#4553C7"/>
<path opacity="0.32" d="M36.2761 67.4706L39.3829 69.2588V68.8138L36.2761 67.0283V67.4706Z" fill="#4553C7"/>
<path opacity="0.32" d="M34.6982 66.5614L35.6701 67.1211L35.6673 66.6788L34.6954 66.1191L34.6982 66.5614Z" fill="#4553C7"/>
<path opacity="0.32" d="M33.183 65.6903L34.1549 66.25L34.1521 65.8077L33.1802 65.248L33.183 65.6903Z" fill="#4553C7"/>
<path opacity="0.32" d="M41.3212 71.3798L43.306 72.5237V72.0814L41.3185 70.9375L41.3212 71.3798Z" fill="#4553C7"/>
<path opacity="0.32" d="M31.261 57.5218L28.5064 55.9384V55.4961L31.261 57.0795V57.5218Z" fill="#4553C7"/>
<path opacity="0.32" d="M30.6741 58.194L28.5091 56.9491L28.5064 56.5068L30.6713 57.7517L30.6741 58.194Z" fill="#4553C7"/>
<path opacity="0.32" d="M30.0762 58.8598L28.5092 57.9589V57.5166L30.0762 58.4175V58.8598Z" fill="#4553C7"/>
<path opacity="0.32" d="M30.7887 60.2791L28.5118 58.9686V58.5264L30.7887 59.8368V60.2791Z" fill="#4553C7"/>
<path opacity="0.32" d="M30.0789 60.8803L28.5146 59.9794L28.5118 59.5371L30.0789 60.438V60.8803Z" fill="#4553C7"/>
<path opacity="0.32" d="M30.5021 62.133L28.5146 60.9891V60.5469L30.5021 61.6908V62.133Z" fill="#4553C7"/>
<path opacity="0.32" d="M29.5984 62.6214L28.5173 61.9989V61.5566L29.5984 62.1791V62.6214Z" fill="#4553C7"/>
<path opacity="0.32" d="M30.6167 64.2163L28.5201 63.0096L28.5173 62.5674L30.6167 63.7741V64.2163Z" fill="#4553C7"/>
<path opacity="0.32" d="M30.5076 65.1633L28.5201 64.0194V63.5771L30.5076 64.721V65.1633Z" fill="#4553C7"/>
<path opacity="0.32" d="M39.8688 70.5468L40.7124 71.0327V70.5877L39.8688 70.1045V70.5468Z" fill="#4553C7"/>
<path opacity="0.32" d="M37.3599 69.1034L39.2628 70.1982L39.26 69.7559L37.3599 68.6611V69.1034Z" fill="#4553C7"/>
<path opacity="0.32" d="M39.3201 50.5302L43.2923 52.8152V52.3729L39.3201 50.0879V50.5302Z" fill="#4553C7"/>
<path opacity="0.32" d="M37.2835 49.3593L38.714 50.181L38.7113 49.7387L37.2808 48.917L37.2835 49.3593Z" fill="#4553C7"/>
<path opacity="0.32" d="M35.7028 48.4501L36.6747 49.0098V48.5675L35.7028 48.0078V48.4501Z" fill="#4553C7"/>
<path opacity="0.32" d="M41.1301 52.5809L43.295 53.8258V53.3836L41.1301 52.1387V52.5809Z" fill="#4553C7"/>
<path opacity="0.32" d="M37.8704 50.705L40.524 52.2311L40.5213 51.7888L37.8704 50.2627V50.705Z" fill="#4553C7"/>
<path opacity="0.32" d="M36.2925 49.7987L37.2644 50.3556L37.2616 49.9134L36.2897 49.3564L36.2925 49.7987Z" fill="#4553C7"/>
<path opacity="0.32" d="M34.7882 48.9335L35.7601 49.4931V49.0509L34.7882 48.4912V48.9335Z" fill="#4553C7"/>
<path opacity="0.32" d="M41.7307 53.9345L43.2978 54.8354L43.295 54.3931L41.7307 53.4922V53.9345Z" fill="#4553C7"/>
<path opacity="0.32" d="M40.5869 53.2763L41.1219 53.5847V53.1425L40.5869 52.834V53.2763Z" fill="#4553C7"/>
<path opacity="0.32" d="M39.0089 52.37L39.9807 52.9297V52.4847L39.0089 51.9277V52.37Z" fill="#4553C7"/>
<path opacity="0.32" d="M37.5183 52.5204L43.2978 55.8456V55.4033L37.5156 52.0781L37.5183 52.5204Z" fill="#4553C7"/>
<path opacity="0.32" d="M35.4789 51.3495L36.9095 52.1712V51.729L35.4789 50.9072V51.3495Z" fill="#4553C7"/>
<path opacity="0.32" d="M41.7335 55.955L43.3005 56.8559L43.2978 56.4136L41.7335 55.5127V55.955Z" fill="#4553C7"/>
<path opacity="0.32" d="M38.0588 53.8417L41.1274 55.6053V55.163L38.0561 53.3994L38.0588 53.8417Z" fill="#4553C7"/>
<path opacity="0.32" d="M36.4781 52.9325L37.45 53.4922V53.0499L36.4781 52.4902V52.9325Z" fill="#4553C7"/>
<path opacity="0.32" d="M40.0982 56.0233L43.3033 57.8661L43.3005 57.4238L40.0955 55.5811L40.0982 56.0233Z" fill="#4553C7"/>
<path opacity="0.32" d="M37.1716 54.3417L39.4894 55.674V55.2317L37.1716 53.8994V54.3417Z" fill="#4553C7"/>
<path opacity="0.32" d="M34.9985 53.0917L36.5655 53.9926V53.5503L34.9985 52.6494V53.0917Z" fill="#4553C7"/>
<path opacity="0.32" d="M42.2222 58.2538L43.3032 58.8763V58.434L42.2194 57.8115L42.2222 58.2538Z" fill="#4553C7"/>
<path opacity="0.32" d="M40.1828 57.0829L41.6133 57.9046V57.4624L40.1828 56.6406V57.0829Z" fill="#4553C7"/>
<path opacity="0.32" d="M37.2726 55.4091L39.5767 56.7331V56.2909L37.2698 54.9668L37.2726 55.4091Z" fill="#4553C7"/>
<path opacity="0.32" d="M39.989 57.9813L43.306 59.8869L43.3032 59.4446L39.989 57.5391V57.9813Z" fill="#4553C7"/>
<path opacity="0.32" d="M36.2761 55.8456L39.3829 57.631V57.1888L36.2761 55.4033V55.8456Z" fill="#4553C7"/>
<path opacity="0.32" d="M34.6982 54.9364L35.6701 55.4961L35.6673 55.0538L34.6954 54.4941L34.6982 54.9364Z" fill="#4553C7"/>
<path opacity="0.32" d="M33.183 54.0663L34.1549 54.6259L34.1521 54.1837L33.1802 53.624L33.183 54.0663Z" fill="#4553C7"/>
<path opacity="0.32" d="M41.3212 59.7548L43.306 60.8959V60.4537L41.3185 59.3125L41.3212 59.7548Z" fill="#4553C7"/>
<path opacity="0.32" d="M31.261 45.8976L28.5064 44.3114V43.8691L31.261 45.4553V45.8976Z" fill="#4553C7"/>
<path opacity="0.32" d="M30.6741 46.5661L28.5091 45.3212L28.5064 44.8789L30.6713 46.1238L30.6741 46.5661Z" fill="#4553C7"/>
<path opacity="0.32" d="M30.0762 47.2328L28.5092 46.3319V45.8896L30.0762 46.7906V47.2328Z" fill="#4553C7"/>
<path opacity="0.32" d="M30.7887 48.6521L28.5118 47.3417V46.8994L30.7887 48.2098V48.6521Z" fill="#4553C7"/>
<path opacity="0.32" d="M30.0789 49.2526L28.5146 48.3544L28.5118 47.9121L30.0789 48.8103V49.2526Z" fill="#4553C7"/>
<path opacity="0.32" d="M30.5021 50.5061L28.5146 49.3622V48.9199L30.5021 50.0638V50.5061Z" fill="#4553C7"/>
<path opacity="0.32" d="M29.5984 50.9973L28.5173 50.3749V49.9326L29.5984 50.5551V50.9973Z" fill="#4553C7"/>
<path opacity="0.32" d="M30.6167 52.5886L28.5201 51.3846L28.5173 50.9424L30.6167 52.1463V52.5886Z" fill="#4553C7"/>
<path opacity="0.32" d="M30.5076 53.5366L28.5201 52.3954V51.9531L30.5076 53.0943V53.5366Z" fill="#4553C7"/>
<path opacity="0.32" d="M39.8688 58.9198L40.7124 59.4058V58.9635L39.8688 58.4775V58.9198Z" fill="#4553C7"/>
<path opacity="0.32" d="M37.3599 57.4784L39.2628 58.5704L39.26 58.1281L37.3599 57.0361V57.4784Z" fill="#4553C7"/>
<path opacity="0.32" d="M35.195 73.1161L38.4028 74.9616V74.5193L35.1923 72.6738L35.195 73.1161Z" fill="#4553C7"/>
<path opacity="0.32" d="M32.9973 71.8544L34.2613 72.5806L34.2586 72.1383L32.9946 71.4121L32.9973 71.8544Z" fill="#4553C7"/>
</g>
</g>
<defs>
<linearGradient id="paint0_linear_2159_16819" x1="47.5321" y1="92.5018" x2="47.5321" y2="-0.000234226" gradientUnits="userSpaceOnUse">
<stop stop-color="#5778FF"/>
<stop offset="0.18" stop-color="#5C7DFF"/>
<stop offset="0.39" stop-color="#6A8AFF"/>
<stop offset="0.61" stop-color="#82A0FF"/>
<stop offset="0.85" stop-color="#A3BEFF"/>
<stop offset="1" stop-color="#BCD5FF"/>
</linearGradient>
<linearGradient id="paint1_linear_2159_16819" x1="60.0575" y1="24.6578" x2="60.0575" y2="18.0293" gradientUnits="userSpaceOnUse">
<stop stop-color="#C0D6FF"/>
<stop offset="0.3" stop-color="#C5DBFF"/>
<stop offset="0.65" stop-color="#D3E9FF"/>
<stop offset="1" stop-color="#E9FFFF"/>
</linearGradient>
<linearGradient id="paint2_linear_2159_16819" x1="45.3381" y1="82.7314" x2="76.5191" y2="28.4764" gradientUnits="userSpaceOnUse">
<stop stop-color="#C0D6FF"/>
<stop offset="0.3" stop-color="#C5DBFF"/>
<stop offset="0.65" stop-color="#D3E9FF"/>
<stop offset="1" stop-color="#E9FFFF"/>
</linearGradient>
<linearGradient id="paint3_linear_2159_16819" x1="54.248" y1="45.8404" x2="39.604" y2="19.4682" gradientUnits="userSpaceOnUse">
<stop stop-color="#5778FF"/>
<stop offset="0.04" stop-color="#5C7DFF"/>
<stop offset="0.09" stop-color="#6A8AFF"/>
<stop offset="0.14" stop-color="#82A0FF"/>
<stop offset="0.19" stop-color="#A3BEFF"/>
<stop offset="0.22" stop-color="#BCD5FF"/>
</linearGradient>
<linearGradient id="paint4_linear_2159_16819" x1="36.257" y1="45.9328" x2="46.006" y2="26.8771" gradientUnits="userSpaceOnUse">
<stop stop-color="#C0D6FF"/>
<stop offset="0.3" stop-color="#C5DBFF"/>
<stop offset="0.65" stop-color="#D3E9FF"/>
<stop offset="1" stop-color="#E9FFFF"/>
</linearGradient>
<linearGradient id="paint5_linear_2159_16819" x1="22.0635" y1="86.0888" x2="52.61" y2="31.963" gradientUnits="userSpaceOnUse">
<stop stop-color="#C0D6FF"/>
<stop offset="0.12" stop-color="#D0E6FF"/>
<stop offset="0.26" stop-color="#E9FFFF"/>
<stop offset="0.51" stop-color="#C0D6FF"/>
<stop offset="0.62" stop-color="#D0E6FF"/>
<stop offset="0.75" stop-color="#E9FFFF"/>
<stop offset="1" stop-color="#C0D6FF"/>
</linearGradient>
<clipPath id="clip0_2159_16819">
<rect width="45.9493" height="95" fill="white" transform="translate(19.5)"/>
</clipPath>
</defs>
</svg>
