<svg width="115" height="90" viewBox="0 0 115 90" fill="none" xmlns="http://www.w3.org/2000/svg">
<g style="mix-blend-mode:multiply" opacity="0.5">
<path d="M114.127 45.924L113.131 45.7148C113.233 45.5667 113.298 45.3957 113.32 45.2168C113.326 45.1743 113.322 45.1311 113.31 45.0902C113.297 45.0492 113.276 45.0113 113.248 44.9792C113.219 44.9471 113.184 44.9214 113.145 44.904C113.106 44.8865 113.064 44.8777 113.021 44.8781H112.901C112.661 44.8679 112.424 44.9342 112.224 45.0674C112.037 45.18 111.863 45.3137 111.706 45.4658L110.112 45.2267L110.371 40.9633L109.286 41.063L109.086 39.0209C109.098 38.9615 109.086 38.8998 109.052 38.8494C109.019 38.799 108.966 38.764 108.907 38.752H105.162C104.375 38.752 103.578 38.752 102.9 38.752C100.103 39.0244 97.3595 39.6953 94.7522 40.7442L41.7984 71.2255C36.4492 74.3234 25.6015 72.5404 25.0138 76.4053C25.0138 76.4053 25.0138 76.8436 24.9241 77.521C24.9241 77.7799 24.9241 78.0788 24.8544 78.4075V78.5968V78.9155V79.1048C24.8544 79.3439 24.8544 79.5829 24.8046 79.832C24.6054 82.3422 29.2373 88.0599 29.2373 88.1296C29.2323 88.1826 29.2323 88.236 29.2373 88.289C29.4764 90.4705 37.5449 89.2851 42.7746 86.2968L46.6894 84.0256V83.7368L47.9743 83.8563C48.0158 83.8734 48.0624 83.8734 48.1038 83.8563C48.1499 83.8313 48.1904 83.7972 48.2229 83.7561C48.2554 83.715 48.2793 83.6678 48.2931 83.6172C48.2931 83.6172 48.2931 83.6172 48.2333 83.5574L46.7093 83.2586L46.7989 81.864H46.8487L48.7115 82.143L51.4508 82.5414L54.1802 80.9675V80.8082H54.3893L59.8581 77.8895V77.7003H60.117L62.8464 76.1264V75.9969H63.0556L65.785 74.423V74.1939H66.0738L68.7933 72.62V72.4706H69.0024L71.7318 70.8968V70.7075H71.9908L74.7202 69.1336V68.9742H74.9293L77.6488 67.4103V67.1812H77.9476L80.677 65.6173V65.4579H80.8762L83.6056 63.8841V63.9438H83.8645L86.5939 62.37V62.2504H86.8031L89.5325 60.6766V60.4475H89.8114L92.6603 58.9632V58.8039H92.8695L95.5988 57.2399V57.0507H95.8578L98.5872 55.4868V55.3274H98.7864L101.516 53.7535L101.645 51.6816H101.416L101.645 51.5521L101.735 49.9982L102.223 49.7192L103.06 49.2311L104.703 49.4802L106.397 48.4841L106.347 49.2809L108.011 49.9284L109.873 48.8526L110.063 45.6451L111.338 45.8344C111.254 45.9677 111.2 46.117 111.178 46.2727C111.171 46.3121 111.172 46.3527 111.182 46.3916C111.191 46.4306 111.209 46.4672 111.233 46.4991C111.257 46.5309 111.288 46.5574 111.323 46.5767C111.358 46.596 111.397 46.6078 111.437 46.6113H111.557C111.798 46.6172 112.035 46.5476 112.234 46.4121C112.441 46.2943 112.629 46.1466 112.792 45.9738L113.908 46.0834C113.937 46.0906 113.968 46.0906 113.997 46.0834C114.031 46.0661 114.06 46.0421 114.084 46.013C114.108 45.9839 114.126 45.9502 114.137 45.9141L114.127 45.924ZM48.7115 81.6648L48.7712 80.6687V80.5093L48.7115 81.6648ZM60.127 75.6881H60.2565H60.127Z" fill="#4B86A6"/>
</g>
<path d="M21.805 61.3437C19.3297 62.9188 17.1736 64.9464 15.4497 67.3204L1.23508 68.6751C1.23508 68.6751 17.3025 77.7 17.3922 77.7398C23.3689 80.7282 31.7064 77.3812 37.5835 73.9845L95.1991 40.8734C96.4301 38.8958 97.3254 36.7282 97.8488 34.4584C98.5361 31.8087 99.1338 27.2764 99.1338 27.2764L21.805 61.3437Z" fill="#A84300"/>
<path d="M21.805 61.3443C19.3297 62.9193 17.1736 64.947 15.4497 67.321L1.23508 68.6757L16.0574 76.9933C20.6608 75.867 25.0694 74.0572 29.1364 71.6242L98.4166 31.7794C98.8349 29.5182 99.1338 27.2471 99.1338 27.2471L21.805 61.3443Z" fill="#22313F"/>
<path d="M7.31056 54.5007C1.43346 57.9074 -2.18248 66.6932 1.47328 68.8049C5.12905 70.9167 20.3996 68.8049 26.2368 65.4281L30.55 62.9378L11.6238 51.9805L7.31056 54.5007Z" fill="#1A4B6C"/>
<path d="M6.74852 68.7448C3.64062 68.7448 2.38551 68.2866 1.91733 68.0176C1.5611 67.7672 1.28004 67.4242 1.10449 67.0257C0.928936 66.6272 0.865569 66.1883 0.92121 65.7564C1.0635 63.7655 1.73777 61.8493 2.8736 60.208C4.11487 58.1918 5.82318 56.504 7.8542 55.2872L12.6455 52.5479L29.7489 62.4294L25.7844 64.6408C21.5409 67.1012 12.516 68.7448 6.75846 68.7448H6.74852Z" fill="#F2F2F2"/>
<g style="mix-blend-mode:multiply">
<path d="M3.52723 66.7426C3.66541 64.7555 4.32885 62.8408 5.44974 61.1942C6.69376 59.1802 8.40147 57.493 10.4303 56.2733L14.7635 53.803L12.6019 52.5479L7.81057 55.2872C5.77955 56.504 4.07124 58.1918 2.82997 60.208C1.69767 61.8504 1.02685 63.7665 0.887519 65.7564C0.831878 66.1883 0.895245 66.6272 1.0708 67.0257C1.24635 67.4242 1.52741 67.7672 1.88364 68.0176C2.55232 68.3499 3.28023 68.5462 4.02529 68.5954C3.64775 68.055 3.47152 67.3994 3.52723 66.7426Z" fill="#DCDCDC"/>
</g>
<path d="M98.7566 26.7788L81.6333 16.8973C81.3539 16.7555 81.0451 16.6816 80.7318 16.6816C80.4185 16.6816 80.1097 16.7555 79.8303 16.8973L73.2958 20.6626L15.222 54.0924L30.5522 62.9479L31.7675 66.2849L34.6861 64.6911L92.1822 31.59L95.4594 29.6974L98.7267 27.8147C98.8357 27.7808 98.9314 27.7137 99.0004 27.6227C99.0694 27.5318 99.1083 27.4215 99.1115 27.3074C99.1148 27.1933 99.0824 27.081 99.0188 26.9863C98.9551 26.8915 98.8635 26.8189 98.7566 26.7788Z" fill="#1A4B6C"/>
<path d="M97.8388 27.2959L91.7624 30.8022L31.4872 65.4672L31.1087 64.4711L31.019 64.242L30.8596 63.8037L30.5508 62.9769H30.4811L30.242 62.8374L29.7739 62.5784L16.0872 54.739L73.7426 21.5283L80.2871 17.753C80.4245 17.6903 80.5744 17.6597 80.7254 17.6634C80.8796 17.6602 81.0326 17.6908 81.1737 17.753L97.8388 27.2959Z" fill="#DCDCDC"/>
<g style="mix-blend-mode:multiply">
<path d="M74.3595 23.5501L80.8941 19.7748C81.0361 19.7156 81.1884 19.6851 81.3423 19.6851C81.4962 19.6851 81.6485 19.7156 81.7906 19.7748L96.324 28.1721L97.838 27.2955L81.173 17.673C81.0319 17.6107 80.8789 17.5801 80.7247 17.5833C80.5737 17.5796 80.4238 17.6102 80.2864 17.673L73.7419 21.4483L16.1462 54.629L18.2281 55.8841L74.3595 23.5501Z" fill="#DCDCDC"/>
</g>
<path d="M88.6621 26.1504L77.884 19.8849L83.5022 16.6475L94.2802 22.9131L88.6621 26.1504Z" fill="#EDEDED"/>
<path d="M88.682 29.826L77.904 23.5604L77.884 19.8848L88.6621 26.1504L88.682 29.826Z" fill="#C2C2C2"/>
<path d="M79.1285 22.1362L78.4412 21.7377V20.6719L79.1285 21.0604V22.1362Z" fill="#22313F"/>
<path d="M79.1285 23.8793L78.4411 23.4908V22.415L79.1285 22.8135V23.8793Z" fill="#22313F"/>
<path d="M80.6632 23.0123L79.9859 22.6139V21.5381L80.6632 21.9365V23.0123Z" fill="#22313F"/>
<path d="M80.6632 24.7563L79.9859 24.3578V23.292L80.6632 23.6805V24.7563Z" fill="#22313F"/>
<path d="M82.1742 23.8793L81.4968 23.4908V22.415L82.1742 22.8135V23.8793Z" fill="#22313F"/>
<path d="M82.1742 25.6334L81.4968 25.235V24.1592L82.1742 24.5576V25.6334Z" fill="#22313F"/>
<path d="M83.5643 24.7563L82.8769 24.3578V23.292L83.5643 23.6805V24.7563Z" fill="#22313F"/>
<path d="M83.5643 26.4995L82.8769 26.111V25.0352L83.5643 25.4236V26.4995Z" fill="#22313F"/>
<path d="M85.1048 25.6334L84.4174 25.235V24.1592L85.1048 24.5576V25.6334Z" fill="#22313F"/>
<path d="M85.1048 27.3754L84.4174 26.977V25.9111L85.1048 26.2996V27.3754Z" fill="#22313F"/>
<path d="M86.61 26.4995L85.9326 26.111V25.0352L86.61 25.4236V26.4995Z" fill="#22313F"/>
<path d="M86.61 28.2516L85.9326 27.8532V26.7773L86.61 27.1758V28.2516Z" fill="#22313F"/>
<path d="M88.0676 27.3354L87.3802 26.9369V25.8711L88.0676 26.2596V27.3354Z" fill="#22313F"/>
<path d="M88.0676 29.0786L87.3802 28.6901V27.6143L88.0676 28.0127V29.0786Z" fill="#22313F"/>
<path d="M88.6594 26.1505L88.6793 29.8262L94.2776 26.5987V22.9131L88.6594 26.1505Z" fill="#B3B3B3"/>
<path d="M90.3036 27.416L89.5964 27.8244V28.9401L90.3036 28.5317V27.416Z" fill="#22313F"/>
<path d="M90.3036 25.6123L89.5964 26.0207V27.1264L90.3036 26.718V25.6123Z" fill="#22313F"/>
<path d="M91.9032 26.5098L91.196 26.9182V28.0338L91.9032 27.6254V26.5098Z" fill="#22313F"/>
<path d="M91.9032 24.7061L91.196 25.1145V26.2202L91.9032 25.8117V24.7061Z" fill="#22313F"/>
<path d="M93.469 25.6123L92.7618 26.0207V27.1264L93.469 26.718V25.6123Z" fill="#22313F"/>
<path d="M93.469 23.8008L92.7618 24.2092V25.3248L93.469 24.9164V23.8008Z" fill="#22313F"/>
<path d="M13.5789 57.5493L9.61441 55.2483L11.776 53.9932L15.7306 56.3042L13.5789 57.5493Z" fill="#EDEDED"/>
<path d="M13.5789 58.3261L9.62435 56.025L9.61441 55.248L13.5789 57.5491V58.3261Z" fill="#DCDCDC"/>
<path d="M13.576 57.5479V58.3249L15.7276 57.0897V56.3027L13.576 57.5479Z" fill="#C3C3C3"/>
<path d="M13.335 64.0128L9.44019 61.7516L11.5619 60.5264L15.4568 62.7975L13.335 64.0128Z" fill="white"/>
<path d="M13.335 65.4864L9.45016 63.2252L9.44019 61.751L13.335 64.0122V65.4864Z" fill="#C7C7C7"/>
<path d="M13.3396 64.0131V65.4874L15.4613 64.2721V62.7979L13.3396 64.0131Z" fill="#9C9C9C"/>
<path d="M12.9692 54.1504V62.2289C12.9692 62.2289 12.9692 62.2289 12.9692 62.2987V54.2201C12.9725 54.197 12.9725 54.1735 12.9692 54.1504Z" fill="#949494"/>
<path d="M12.9512 54.2197V62.2983C12.9212 62.3587 12.8723 62.4077 12.8118 62.4377C12.6956 62.5001 12.5651 62.531 12.4333 62.5274V54.4488C12.5648 54.4499 12.6947 54.4191 12.8118 54.3592C12.8695 54.3287 12.9151 54.2795 12.9413 54.2197H12.9512Z" fill="#B3B3B3"/>
<path d="M12.4432 54.4484V62.527C12.3178 62.5294 12.1941 62.4985 12.0846 62.4373C12.0429 62.4168 12.0072 62.3859 11.981 62.3475C11.9548 62.309 11.9391 62.2645 11.9352 62.2182V54.1396C11.939 54.1873 11.9558 54.233 11.9839 54.2717C12.0121 54.3104 12.0504 54.3405 12.0946 54.3588C12.2041 54.4199 12.3278 54.4509 12.4532 54.4484H12.4432Z" fill="#DCDCDC"/>
<path d="M12.8356 53.9807C13.0447 54.1002 13.0447 54.2895 12.8356 54.409C12.7215 54.4676 12.5952 54.4981 12.467 54.4981C12.3388 54.4981 12.2125 54.4676 12.0984 54.409C11.8893 54.2895 11.8893 54.1002 12.0984 53.9807C12.2125 53.9221 12.3388 53.8916 12.467 53.8916C12.5952 53.8916 12.7215 53.9221 12.8356 53.9807Z" fill="#CCCCCC"/>
<path d="M13.9576 53.8522V53.9816C13.9462 54.1143 13.8995 54.2415 13.8225 54.3501C13.7454 54.4587 13.6407 54.5447 13.5193 54.5992C13.1889 54.7664 12.8237 54.8535 12.4534 54.8535C12.0831 54.8535 11.718 54.7664 11.3876 54.5992C11.2649 54.5452 11.1587 54.4596 11.0799 54.3511C11.0012 54.2425 10.9527 54.1151 10.9393 53.9816V53.8223C10.9527 53.9557 11.0012 54.0832 11.0799 54.1917C11.1587 54.3002 11.2649 54.3858 11.3876 54.4399C11.718 54.607 12.0831 54.6942 12.4534 54.6942C12.8237 54.6942 13.1889 54.607 13.5193 54.4399C13.6394 54.3861 13.7431 54.3017 13.8201 54.195C13.8971 54.0883 13.9445 53.9631 13.9576 53.8322V53.8522Z" fill="#C3C3C3"/>
<path d="M13.5093 53.225C13.636 53.2712 13.7454 53.3553 13.8226 53.4657C13.8999 53.5762 13.9414 53.7078 13.9414 53.8426C13.9414 53.9774 13.8999 54.109 13.8226 54.2195C13.7454 54.3299 13.636 54.414 13.5093 54.4602C13.1789 54.6274 12.8138 54.7145 12.4435 54.7145C12.0732 54.7145 11.7081 54.6274 11.3776 54.4602C11.251 54.414 11.1416 54.3299 11.0643 54.2195C10.987 54.109 10.9456 53.9774 10.9456 53.8426C10.9456 53.7078 10.987 53.5762 11.0643 53.4657C11.1416 53.3553 11.251 53.2712 11.3776 53.225C11.7081 53.0578 12.0732 52.9707 12.4435 52.9707C12.8138 52.9707 13.1789 53.0578 13.5093 53.225Z" fill="white"/>
<path d="M12.7362 50.6357L12.9056 53.8731C12.9111 53.8961 12.9111 53.9199 12.9056 53.9429L12.7362 50.6656V50.6357Z" fill="#949494"/>
<path d="M12.7254 50.665L12.8948 53.9423C12.8694 53.9968 12.8276 54.0421 12.7752 54.0718C12.6699 54.1239 12.5541 54.1512 12.4366 54.1515V50.7945C12.502 50.8106 12.5703 50.8106 12.6358 50.7945C12.6717 50.7794 12.7003 50.7508 12.7155 50.7148L12.7254 50.665Z" fill="#C3C3C3"/>
<path d="M12.4447 50.7943V54.1513C12.3308 54.1474 12.219 54.1202 12.116 54.0716C12.0782 54.0523 12.0457 54.0241 12.0214 53.9894C11.9971 53.9546 11.9817 53.9144 11.9765 53.8724L12.1757 50.625C12.1778 50.6514 12.1873 50.6766 12.2032 50.6978C12.2191 50.719 12.2406 50.7352 12.2654 50.7445C12.3274 50.7606 12.3926 50.7606 12.4546 50.7445L12.4447 50.7943Z" fill="#DCDCDC"/>
<path d="M12.6458 50.5158C12.6705 50.5232 12.6922 50.5383 12.7075 50.5589C12.7229 50.5796 12.7312 50.6046 12.7312 50.6304C12.7312 50.6561 12.7229 50.6812 12.7075 50.7018C12.6922 50.7225 12.6705 50.7376 12.6458 50.7449C12.5852 50.7741 12.5188 50.7892 12.4516 50.7892C12.3843 50.7892 12.318 50.7741 12.2574 50.7449C12.2327 50.7376 12.211 50.7225 12.1957 50.7018C12.1803 50.6812 12.172 50.6561 12.172 50.6304C12.172 50.6046 12.1803 50.5796 12.1957 50.5589C12.211 50.5383 12.2327 50.5232 12.2574 50.5158C12.3183 50.488 12.3846 50.4736 12.4516 50.4736C12.5186 50.4736 12.5849 50.488 12.6458 50.5158Z" fill="white"/>
<path d="M82.8143 19.3274L72.0362 13.0618L77.9133 9.66504L88.6914 15.9306L82.8143 19.3274Z" fill="white"/>
<path d="M82.8342 33.1931L72.0562 26.9275L72.0362 13.0615L82.8143 19.3271L82.8342 33.1931Z" fill="#DCDCDC"/>
<path d="M73.4873 15.5014L72.6904 15.0432V13.7881L73.4873 14.2463V15.5014Z" fill="#134663"/>
<path d="M73.4873 17.5444L72.6904 17.0862V15.8311L73.4873 16.2893V17.5444Z" fill="#134663"/>
<path d="M73.4873 19.5864L72.6904 19.1282V17.873L73.4873 18.3313V19.5864Z" fill="#134663"/>
<path d="M73.4873 21.6284L72.6904 21.1702V19.915L73.4873 20.3733V21.6284Z" fill="#134663"/>
<path d="M75.2895 16.529L74.4926 16.0608V14.8057L75.2895 15.2738V16.529Z" fill="#134663"/>
<path d="M75.2895 18.5709L74.4926 18.1127V16.8477L75.2895 17.3158V18.5709Z" fill="#134663"/>
<path d="M75.2895 20.6127L74.4926 20.1545V18.8994L75.2895 19.3576V20.6127Z" fill="#134663"/>
<path d="M75.2895 22.6557L74.4926 22.1975V20.9424L75.2895 21.4006V22.6557Z" fill="#134663"/>
<path d="M77.0664 17.5444L76.2694 17.0862V15.8311L77.0664 16.2893V17.5444Z" fill="#134663"/>
<path d="M77.0663 19.5864L76.2694 19.1282V17.873L77.0663 18.3313V19.5864Z" fill="#134663"/>
<path d="M77.0664 21.6284L76.2694 21.1702V19.915L77.0664 20.3733V21.6284Z" fill="#134663"/>
<path d="M77.0664 23.6694L76.2694 23.2112V21.9561L77.0664 22.4143V23.6694Z" fill="#134663"/>
<path d="M78.611 18.4897L77.8142 18.0315V16.7764L78.611 17.2346V18.4897Z" fill="#134663"/>
<path d="M78.6111 20.5336L77.8142 20.0754V18.8203L78.6111 19.2885V20.5336Z" fill="#134663"/>
<path d="M78.611 22.5856L77.8142 22.1174V20.8623L78.611 21.3305V22.5856Z" fill="#134663"/>
<path d="M78.611 24.6276L77.8142 24.1594V22.9043L78.611 23.3725V24.6276Z" fill="#134663"/>
<path d="M80.4132 19.517L79.6163 19.0588V17.8037L80.4132 18.2619V19.517Z" fill="#134663"/>
<path d="M80.4132 21.5581L79.6163 21.0998V19.8447L80.4132 20.3029V21.5581Z" fill="#134663"/>
<path d="M80.4132 23.6L79.6163 23.1418V21.8867L80.4132 22.3449V23.6Z" fill="#134663"/>
<path d="M80.4132 25.643L79.6163 25.1848V23.9297L80.4132 24.3879V25.643Z" fill="#134663"/>
<path d="M82.1774 20.5336L81.3805 20.0754V18.8203L82.1774 19.2885V20.5336Z" fill="#134663"/>
<path d="M82.1774 22.5856L81.3805 22.1174V20.8623L82.1774 21.3305V22.5856Z" fill="#134663"/>
<path d="M82.1774 24.6276L81.3805 24.1594V22.9043L82.1774 23.3725V24.6276Z" fill="#134663"/>
<path d="M82.1774 26.6684L81.3805 26.2002V24.9551L82.1774 25.4133V26.6684Z" fill="#134663"/>
<path d="M73.4873 23.6694L72.6904 23.2112V21.9561L73.4873 22.4143V23.6694Z" fill="#134663"/>
<path d="M75.2894 24.6977L74.4925 24.2395V22.9844L75.2894 23.4426V24.6977Z" fill="#134663"/>
<path d="M77.0664 25.7213L76.2694 25.2532V23.998L77.0664 24.4563V25.7213Z" fill="#134663"/>
<path d="M78.611 26.6684L77.8142 26.2002V24.9551L78.611 25.4133V26.6684Z" fill="#134663"/>
<path d="M80.4132 27.685L79.6163 27.2268V25.9717L80.4132 26.4299V27.685Z" fill="#134663"/>
<path d="M82.1774 28.7114L81.3805 28.2532V26.998L82.1774 27.4563V28.7114Z" fill="#134663"/>
<path d="M82.8182 19.3274L82.8381 33.1934L88.6953 29.8166V15.9307L82.8182 19.3274Z" fill="#B3B3B3"/>
<path d="M84.3706 25.8125L83.5737 26.2707V27.5258L84.3706 27.0676V25.8125Z" fill="#22313F"/>
<path d="M84.3706 23.7705L83.5737 24.2287V25.4838L84.3706 25.0157V23.7705Z" fill="#22313F"/>
<path d="M84.3706 21.7178L83.5737 22.186V23.4411L84.3706 22.9729V21.7178Z" fill="#22313F"/>
<path d="M84.3706 19.6768L83.5737 20.1449V21.4L84.3706 20.9319V19.6768Z" fill="#22313F"/>
<path d="M86.177 24.7852L85.3801 25.2434V26.4985L86.177 26.0403V24.7852Z" fill="#22313F"/>
<path d="M86.177 22.7432L85.3801 23.2014V24.4565L86.177 23.9983V22.7432Z" fill="#22313F"/>
<path d="M86.177 20.7021L85.3801 21.1604V22.4155L86.177 21.9573V20.7021Z" fill="#22313F"/>
<path d="M86.177 18.6602L85.3801 19.1184V20.3735L86.177 19.9153V18.6602Z" fill="#22313F"/>
<path d="M87.9369 23.7705L87.14 24.2287V25.4838L87.9369 25.0157V23.7705Z" fill="#22313F"/>
<path d="M87.9369 21.7178L87.14 22.186V23.4411L87.9369 22.9729V21.7178Z" fill="#22313F"/>
<path d="M87.9369 19.6768L87.14 20.1449V21.4L87.9369 20.9319V19.6768Z" fill="#22313F"/>
<path d="M87.9369 17.6348L87.14 18.093V19.3581L87.9369 18.8899V17.6348Z" fill="#22313F"/>
<path d="M84.3706 29.8955L83.5737 30.3537V31.6088L84.3706 31.1506V29.8955Z" fill="#22313F"/>
<path d="M84.3706 27.8535L83.5737 28.3117V29.5668L84.3706 29.1086V27.8535Z" fill="#22313F"/>
<path d="M84.3706 25.8125L83.5737 26.2707V27.5258L84.3706 27.0676V25.8125Z" fill="#22313F"/>
<path d="M86.177 28.8711L85.3801 29.3393V30.5844L86.177 30.1262V28.8711Z" fill="#22313F"/>
<path d="M86.177 26.8281L85.3801 27.2863V28.5415L86.177 28.0832V26.8281Z" fill="#22313F"/>
<path d="M86.177 24.7852L85.3801 25.2434V26.4985L86.177 26.0403V24.7852Z" fill="#22313F"/>
<path d="M87.9369 27.8535L87.14 28.3117V29.5668L87.9369 29.1086V27.8535Z" fill="#22313F"/>
<path d="M87.9369 25.8125L87.14 26.2707V27.5258L87.9369 27.0676V25.8125Z" fill="#22313F"/>
<path d="M87.9369 23.7705L87.14 24.2287V25.4838L87.9369 25.0157V23.7705Z" fill="#22313F"/>
<path d="M84.926 12.3242V15.6413L81.589 17.5738L81.5989 14.2567L84.926 12.3242Z" fill="#C2C2C2"/>
<path d="M81.6014 14.2565L81.5914 17.5736L75.9334 14.3063V10.9893L81.6014 14.2565Z" fill="#DCDCDC"/>
<path d="M84.9284 12.3249L81.6014 14.2574L75.9334 10.9901L79.2705 9.05762L84.9284 12.3249Z" fill="white"/>
<path d="M77.7345 12.4742L76.5591 11.7969V14.2673L77.7345 14.9446V12.4742Z" fill="#134663"/>
<path d="M79.1991 13.3307L78.0237 12.6533V15.1237L79.1991 15.8011V13.3307Z" fill="#134663"/>
<path d="M80.7354 14.2174L79.5599 13.54V16.0104L80.7354 16.6878V14.2174Z" fill="#134663"/>
<path d="M88.0207 14.9942L90.77 13.4004L89.9432 15.9505L87.1939 17.5542L88.0207 14.9942Z" fill="#7F7F7F"/>
<path d="M71.6328 5.54125L74.3821 3.9375L90.7682 13.4006L88.019 14.9944L71.6328 5.54125Z" fill="white"/>
<path d="M88.019 14.9962L87.1922 17.5562L72.4396 9.03935L71.6328 5.54297L88.019 14.9962Z" fill="#DCDCDC"/>
<path d="M73.7845 9.07818L72.7386 8.48051V6.83691L73.7845 7.44455V9.07818Z" fill="#134663"/>
<path d="M75.6569 10.1629L74.6209 9.56528V7.93164L75.6569 8.52931V10.1629Z" fill="#134663"/>
<path d="M77.5408 11.2588L76.4948 10.6512V9.01758L77.5408 9.61525V11.2588Z" fill="#134663"/>
<path d="M79.4231 12.3448L78.3772 11.7471V10.1035L79.4231 10.7111V12.3448Z" fill="#134663"/>
<path d="M81.2955 13.4305L80.2596 12.8329V11.1992L81.2955 11.7969V13.4305Z" fill="#134663"/>
<path d="M83.1794 14.5264L82.1335 13.9188V12.2852L83.1794 12.8928V14.5264Z" fill="#134663"/>
<path d="M85.0518 15.6122L84.0158 15.0145V13.3809L85.0518 13.9785V15.6122Z" fill="#134663"/>
<path d="M86.9342 16.709L85.8982 16.1014V14.4678L86.9342 15.0654V16.709Z" fill="#134663"/>
<path d="M82.0009 3.8457V9.69293C82.0055 9.71258 82.0055 9.73305 82.0009 9.7527V3.91543C82.005 3.89237 82.005 3.86877 82.0009 3.8457Z" fill="#949494"/>
<path d="M81.9883 3.91504V9.7523C81.9583 9.81278 81.9093 9.86177 81.8488 9.89176C81.7393 9.9529 81.6156 9.98385 81.4902 9.98141V4.17403C81.6186 4.17505 81.7452 4.14425 81.8588 4.08438C81.9137 4.05481 81.9587 4.00979 81.9883 3.95488V3.91504Z" fill="#B3B3B3"/>
<path d="M81.4902 4.17364V10.0209C81.3679 10.0245 81.247 9.99346 81.1416 9.93122C81.1 9.91324 81.0641 9.88425 81.0378 9.84739C81.0115 9.81053 80.9957 9.76719 80.9922 9.72203V3.83496C80.9945 3.88044 81.0099 3.92429 81.0364 3.96135C81.0628 3.9984 81.0993 4.02713 81.1416 4.04415C81.247 4.10639 81.3679 4.13747 81.4902 4.1338V4.17364Z" fill="#DCDCDC"/>
<path d="M81.848 3.63759C81.8891 3.65361 81.9245 3.68168 81.9494 3.71811C81.9743 3.75455 81.9876 3.79766 81.9876 3.8418C81.9876 3.88593 81.9743 3.92904 81.9494 3.96548C81.9245 4.00192 81.8891 4.02998 81.848 4.046C81.7375 4.10444 81.6144 4.13499 81.4894 4.13499C81.3644 4.13499 81.2413 4.10444 81.1308 4.046C81.0897 4.02998 81.0543 4.00192 81.0294 3.96548C81.0045 3.92904 80.9912 3.88593 80.9912 3.8418C80.9912 3.79766 81.0045 3.75455 81.0294 3.71811C81.0543 3.68168 81.0897 3.65361 81.1308 3.63759C81.2408 3.57743 81.3641 3.5459 81.4894 3.5459C81.6148 3.5459 81.7381 3.57743 81.848 3.63759Z" fill="#CCCCCC"/>
<path d="M83.5589 4.11543V4.33458C83.5448 4.51522 83.4817 4.68859 83.3764 4.83603C83.271 4.98347 83.1275 5.09939 82.9612 5.17132C82.5097 5.39745 82.0118 5.51519 81.5069 5.51519C81.0019 5.51519 80.504 5.39745 80.0525 5.17132C79.883 5.10005 79.7364 4.98322 79.6291 4.83377C79.5219 4.68432 79.4581 4.50809 79.4449 4.32461V4.10547C79.4581 4.28894 79.5219 4.46517 79.6291 4.61462C79.7364 4.76407 79.883 4.88091 80.0525 4.95217C80.5026 5.18293 81.0011 5.30328 81.5069 5.30328C82.0126 5.30328 82.5111 5.18293 82.9612 4.95217C83.1275 4.88025 83.271 4.76432 83.3764 4.61688C83.4817 4.46944 83.5448 4.29607 83.5589 4.11543Z" fill="#C3C3C3"/>
<path d="M82.9474 3.26908C83.1244 3.32761 83.2784 3.44045 83.3876 3.59156C83.4968 3.74268 83.5556 3.92436 83.5556 4.1108C83.5556 4.29723 83.4968 4.47892 83.3876 4.63003C83.2784 4.78114 83.1244 4.89399 82.9474 4.95252C82.4973 5.18328 81.9988 5.30363 81.493 5.30363C80.9873 5.30363 80.4887 5.18328 80.0387 4.95252C79.8617 4.89399 79.7076 4.78114 79.5984 4.63003C79.4893 4.47892 79.4305 4.29723 79.4305 4.1108C79.4305 3.92436 79.4893 3.74268 79.5984 3.59156C79.7076 3.44045 79.8617 3.32761 80.0387 3.26908C80.4887 3.03832 80.9873 2.91797 81.493 2.91797C81.9988 2.91797 82.4973 3.03832 82.9474 3.26908Z" fill="white"/>
<path d="M81.7838 1.01758L81.9531 4.17528C81.9578 4.19493 81.9578 4.2154 81.9531 4.23505L81.7838 1.05742V1.01758Z" fill="#949494"/>
<path d="M81.78 1.05762L81.9493 4.23524C81.9261 4.28886 81.8834 4.33162 81.8298 4.35477C81.7301 4.41244 81.616 4.44011 81.501 4.43446V1.18711C81.566 1.20649 81.6353 1.20649 81.7003 1.18711C81.7162 1.18112 81.7306 1.1718 81.7427 1.15977C81.7547 1.14775 81.764 1.1333 81.77 1.11738L81.78 1.05762Z" fill="#C3C3C3"/>
<path d="M81.5062 1.1877V4.44501C81.3949 4.44586 81.2852 4.41844 81.1874 4.36532C81.1518 4.3496 81.1211 4.32472 81.0984 4.29321C81.0756 4.2617 81.0616 4.22471 81.0579 4.18602L81.2472 1.02832C81.25 1.05185 81.2588 1.07426 81.2728 1.09344C81.2867 1.11261 81.3053 1.12791 81.3268 1.13789C81.3883 1.1584 81.4547 1.1584 81.5161 1.13789L81.5062 1.1877Z" fill="#DCDCDC"/>
<path d="M81.6906 0.90853C81.7902 0.968298 81.8001 1.06791 81.6906 1.12768C81.6315 1.16177 81.5645 1.17973 81.4963 1.17973C81.4281 1.17973 81.3611 1.16177 81.3021 1.12768C81.1925 1.06791 81.1925 0.968298 81.3021 0.90853C81.3627 0.879389 81.4291 0.864258 81.4963 0.864258C81.5636 0.864258 81.63 0.879389 81.6906 0.90853Z" fill="white"/>
<path d="M67.1432 24.827L70.1315 23.0938L70.1216 26.7296L67.1332 28.4628L67.1432 24.827Z" fill="#C44A10"/>
<path d="M63.9805 23.004L66.9688 21.2607L70.1365 23.0936L67.1481 24.8269L63.9805 23.004Z" fill="#FF8D23"/>
<path d="M67.1454 24.8268L67.1355 28.4626L63.9678 26.6397L63.9778 23.0039L67.1454 24.8268Z" fill="#82310B"/>
<path d="M63.9223 26.7L66.9106 24.9668L66.9006 28.6026L63.9023 30.3458L63.9223 26.7Z" fill="#C44A10"/>
<path d="M60.758 24.8768L63.7463 23.1436L66.914 24.9665L63.9256 26.6997L60.758 24.8768Z" fill="#FF8D23"/>
<path d="M63.923 26.6999L63.9031 30.3457L60.7454 28.5128L60.7554 24.877L63.923 26.6999Z" fill="#82310B"/>
<path d="M60.6342 28.6202L63.6226 26.877L63.6126 30.5228L60.6242 32.256L60.6342 28.6202Z" fill="#C44A10"/>
<path d="M57.4715 26.787L60.4698 25.0537L63.6275 26.8766L60.6392 28.6198L57.4715 26.787Z" fill="#FF8D23"/>
<path d="M60.6365 28.62L60.6265 32.2558L57.4588 30.4329L57.4688 26.7871L60.6365 28.62Z" fill="#82310B"/>
<path d="M57.4033 30.494L60.3917 28.7607L60.3817 32.3966L57.3934 34.1298L57.4033 30.494Z" fill="#C44A10"/>
<path d="M54.2406 28.6709L57.239 26.9277L60.3966 28.7606L57.4083 30.4938L54.2406 28.6709Z" fill="#FF8D23"/>
<path d="M57.4056 30.4938L57.3957 34.1296L54.228 32.3067L54.2379 28.6709L57.4056 30.4938Z" fill="#82310B"/>
<path d="M54.0527 32.4053L57.041 30.6621L57.0311 34.2979L54.0427 36.0412L54.0527 32.4053Z" fill="#C44A10"/>
<path d="M50.89 30.5721L53.8783 28.8389L57.046 30.6618L54.0576 32.405L50.89 30.5721Z" fill="#FF8D23"/>
<path d="M54.0549 32.4051L54.045 36.041L50.8773 34.2081L50.8873 30.5723L54.0549 32.4051Z" fill="#82310B"/>
<path d="M50.8263 34.2793L53.8147 32.5361L53.8047 36.172L50.8164 37.9152L50.8263 34.2793Z" fill="#C44A10"/>
<path d="M47.6636 32.4461L50.652 30.7129L53.8196 32.5358L50.8313 34.279L47.6636 32.4461Z" fill="#FF8D23"/>
<path d="M50.8286 34.2792L50.8186 37.915L47.651 36.0821L47.6609 32.4463L50.8286 34.2792Z" fill="#82310B"/>
<path d="M47.5495 36.1922L50.5478 34.459L50.5379 38.0948L47.5395 39.8281L47.5495 36.1922Z" fill="#C44A10"/>
<path d="M44.3952 34.3692L47.3836 32.626L50.5513 34.4588L47.5529 36.1921L44.3952 34.3692Z" fill="#FF8D23"/>
<path d="M47.5502 36.192L47.5402 39.8279L44.3826 38.005L44.3925 34.3691L47.5502 36.192Z" fill="#82310B"/>
<path d="M44.3096 38.0633L47.3079 36.3301L47.2979 39.9659L44.2996 41.7091L44.3096 38.0633Z" fill="#C44A10"/>
<path d="M41.1553 36.2403L44.1437 34.4971L47.3113 36.3299L44.313 38.0632L41.1553 36.2403Z" fill="#FF8D23"/>
<path d="M44.3103 38.0631L44.3003 41.7089L41.1426 39.8761L41.1526 36.2402L44.3103 38.0631Z" fill="#82310B"/>
<path d="M40.977 40.0079L43.9754 38.2646L43.9654 41.9104L40.9671 43.6437L40.977 40.0079Z" fill="#C44A10"/>
<path d="M37.8228 38.1747L40.8111 36.4414L43.9788 38.2643L40.9805 40.0075L37.8228 38.1747Z" fill="#FF8D23"/>
<path d="M40.9778 40.0077L40.9678 43.6435L37.8101 41.8106L37.82 38.1748L40.9778 40.0077Z" fill="#82310B"/>
<path d="M37.7501 41.8788L40.7484 40.1455L40.7384 43.7813L37.7401 45.5146L37.7501 41.8788Z" fill="#C44A10"/>
<path d="M34.5958 40.0557L37.5842 38.3125L40.7518 40.1454L37.7535 41.8786L34.5958 40.0557Z" fill="#FF8D23"/>
<path d="M37.7508 41.8786L37.7409 45.5144L34.5831 43.6915L34.5931 40.0557L37.7508 41.8786Z" fill="#82310B"/>
<path d="M34.4681 43.7948L37.4564 42.0615L37.4465 45.6974L34.4581 47.4406L34.4681 43.7948Z" fill="#C44A10"/>
<path d="M31.3053 41.9715L34.3036 40.2383L37.4614 42.0612L34.473 43.7944L31.3053 41.9715Z" fill="#FF8D23"/>
<path d="M34.4703 43.7946L34.4603 47.4404L31.2927 45.6075L31.3027 41.9717L34.4703 43.7946Z" fill="#82310B"/>
<path d="M31.2411 45.6739L34.2295 43.9307L34.2195 47.5665L31.2311 49.3097L31.2411 45.6739Z" fill="#C44A10"/>
<path d="M28.0783 43.8407L31.0667 42.1074L34.2344 43.9303L31.246 45.6735L28.0783 43.8407Z" fill="#FF8D23"/>
<path d="M31.2433 45.6737L31.2334 49.3095L28.0657 47.4866L28.0757 43.8408L31.2433 45.6737Z" fill="#82310B"/>
<path d="M27.8995 47.576L30.8879 45.8428L30.8779 49.4786L27.8895 51.2119L27.8995 47.576Z" fill="#C44A10"/>
<path d="M24.7368 45.753L27.7251 44.0098L30.8928 45.8426L27.9044 47.5759L24.7368 45.753Z" fill="#FF8D23"/>
<path d="M27.9017 47.5758L27.8918 51.2117L24.7241 49.3888L24.7341 45.7529L27.9017 47.5758Z" fill="#82310B"/>
<path d="M24.6686 49.451L27.657 47.7178L27.647 51.3536L24.6587 53.0968L24.6686 49.451Z" fill="#C44A10"/>
<path d="M21.5059 47.628L24.4943 45.8848L27.6619 47.7176L24.6736 49.4509L21.5059 47.628Z" fill="#FF8D23"/>
<path d="M24.6709 49.4508L24.6609 53.0966L21.4933 51.2638L21.5032 47.6279L24.6709 49.4508Z" fill="#82310B"/>
<path d="M21.3867 51.3721L24.385 49.6289L24.3651 53.2647L21.3767 55.008L21.3867 51.3721Z" fill="#C44A10"/>
<path d="M18.224 49.5389L21.2223 47.8057L24.39 49.6286L21.3916 51.3718L18.224 49.5389Z" fill="#FF8D23"/>
<path d="M21.3889 51.3719L21.379 55.0078L18.2113 53.1849L18.2213 49.5391L21.3889 51.3719Z" fill="#82310B"/>
<path d="M21.1547 51.5127L21.1448 51.8115V54.8696L21.1348 54.9792V55.1485L19.043 56.3638L18.4054 55.9952L18.1464 55.8558L18.1564 53.2459L18.2361 53.1961L21.1547 51.5127Z" fill="#82310B"/>
<path d="M14.9895 51.4229L17.9878 49.6797L21.1554 51.5125L18.1571 53.2458L14.9895 51.4229Z" fill="#FF8D23"/>
<path d="M18.1571 53.2459L18.1471 55.8558L14.9895 53.9532V51.4131L17.171 52.6782L18.1571 53.2459Z" fill="#F9781A"/>
<path d="M70.5625 26.8075L73.5509 25.0742L73.5409 28.7101L70.5525 30.4533L70.5625 26.8075Z" fill="#C44A10"/>
<path d="M67.3998 24.9842L70.3881 23.251L73.5558 25.0739L70.5675 26.8071L67.3998 24.9842Z" fill="#FF8D23"/>
<path d="M70.5647 26.8073L70.5548 30.4531L67.3871 28.6202L67.3971 24.9844L70.5647 26.8073Z" fill="#82310B"/>
<path d="M67.3416 28.6905L70.3299 26.9473L70.32 30.5831L67.3217 32.3263L67.3416 28.6905Z" fill="#C44A10"/>
<path d="M64.1774 26.8573L67.1657 25.124L70.3334 26.9469L67.345 28.6901L64.1774 26.8573Z" fill="#FF8D23"/>
<path d="M67.3423 28.6903L67.3224 32.3261L64.1647 30.4933L64.1747 26.8574L67.3423 28.6903Z" fill="#82310B"/>
<path d="M64.0496 30.6043L67.038 28.8711L67.028 32.5069L64.0396 34.2402L64.0496 30.6043Z" fill="#C44A10"/>
<path d="M60.8869 28.7813L63.8852 27.0381L67.0429 28.8709L64.0546 30.6042L60.8869 28.7813Z" fill="#FF8D23"/>
<path d="M64.0519 30.6041L64.0419 34.24L60.8742 32.4171L60.8842 28.7812L64.0519 30.6041Z" fill="#82310B"/>
<path d="M60.8227 32.4764L63.811 30.7432L63.8011 34.379L60.8127 36.1222L60.8227 32.4764Z" fill="#C44A10"/>
<path d="M57.66 30.6534L60.6583 28.9102L63.816 30.743L60.8277 32.4763L57.66 30.6534Z" fill="#FF8D23"/>
<path d="M60.8249 32.4762L60.815 36.122L57.6473 34.2892L57.6573 30.6533L60.8249 32.4762Z" fill="#82310B"/>
<path d="M57.4675 34.3897L60.4558 32.6465L60.4458 36.2823L57.4575 38.0255L57.4675 34.3897Z" fill="#C44A10"/>
<path d="M54.3047 32.5565L57.2931 30.8232L60.4608 32.6461L57.4724 34.3894L54.3047 32.5565Z" fill="#FF8D23"/>
<path d="M57.4697 34.3895L57.4597 38.0253L54.2921 36.1925L54.3021 32.5566L57.4697 34.3895Z" fill="#82310B"/>
<path d="M54.2411 36.2608L57.2295 34.5176L57.2195 38.1634L54.2312 39.8966L54.2411 36.2608Z" fill="#C44A10"/>
<path d="M51.0784 34.4375L54.0668 32.6943L57.2345 34.5172L54.2461 36.2604L51.0784 34.4375Z" fill="#FF8D23"/>
<path d="M54.2434 36.2604L54.2334 39.8962L51.0657 38.0733L51.0757 34.4375L54.2434 36.2604Z" fill="#82310B"/>
<path d="M50.9597 38.1737L53.958 36.4404L53.9481 40.0763L50.9498 41.8195L50.9597 38.1737Z" fill="#C44A10"/>
<path d="M47.8055 36.3506L50.7938 34.6074L53.9615 36.4403L50.9632 38.1735L47.8055 36.3506Z" fill="#FF8D23"/>
<path d="M50.9605 38.1735L50.9505 41.8193L47.7928 39.9864L47.8028 36.3506L50.9605 38.1735Z" fill="#82310B"/>
<path d="M47.7243 40.0567L50.7227 38.3135L50.7127 41.9493L47.7144 43.6925L47.7243 40.0567Z" fill="#C44A10"/>
<path d="M44.5701 38.2235L47.5584 36.4902L50.7261 38.3131L47.7278 40.0563L44.5701 38.2235Z" fill="#FF8D23"/>
<path d="M47.7251 40.0565L47.7151 43.6923L44.5574 41.8595L44.5673 38.2236L47.7251 40.0565Z" fill="#82310B"/>
<path d="M44.4063 41.9891L47.3947 40.2559L47.3847 43.8917L44.3864 45.6249L44.4063 41.9891Z" fill="#C44A10"/>
<path d="M41.2421 40.1661L44.2304 38.4229L47.3981 40.2557L44.4097 41.989L41.2421 40.1661Z" fill="#FF8D23"/>
<path d="M44.407 41.9889L44.3871 45.6248L41.2294 43.8019L41.2394 40.166L44.407 41.9889Z" fill="#82310B"/>
<path d="M41.1655 43.8622L44.1638 42.1289L44.1538 45.7647L41.1555 47.508L41.1655 43.8622Z" fill="#C44A10"/>
<path d="M38.0112 42.0391L40.9996 40.2959L44.1673 42.1288L41.1689 43.862L38.0112 42.0391Z" fill="#FF8D23"/>
<path d="M41.1662 43.862L41.1562 47.5078L37.9985 45.6749L38.0085 42.0391L41.1662 43.862Z" fill="#82310B"/>
<path d="M37.8874 45.7852L40.8757 44.042L40.8658 47.6778L37.8774 49.421L37.8874 45.7852Z" fill="#C44A10"/>
<path d="M34.7247 43.952L37.723 42.2188L40.8807 44.0416L37.8923 45.7849L34.7247 43.952Z" fill="#FF8D23"/>
<path d="M37.8896 45.785L37.8797 49.4209L34.712 47.5979L34.722 43.9521L37.8896 45.785Z" fill="#82310B"/>
<path d="M34.6604 47.6551L37.6488 45.9219L37.6388 49.5577L34.6504 51.291L34.6604 47.6551Z" fill="#C44A10"/>
<path d="M31.4977 45.8321L34.4861 44.0889L37.6537 45.9217L34.6654 47.655L31.4977 45.8321Z" fill="#FF8D23"/>
<path d="M34.6627 47.6549L34.6527 51.2908L31.485 49.4679L31.495 45.832L34.6627 47.6549Z" fill="#82310B"/>
<path d="M31.3149 49.5584L34.3032 47.8252L34.2933 51.461L31.3049 53.2042L31.3149 49.5584Z" fill="#C44A10"/>
<path d="M28.1522 47.7354L31.1406 45.9922L34.3082 47.825L31.3199 49.5583L28.1522 47.7354Z" fill="#FF8D23"/>
<path d="M31.3172 49.5583L31.3072 53.2041L28.1395 51.3712L28.1495 47.7354L31.3172 49.5583Z" fill="#82310B"/>
<path d="M28.088 51.4424L31.0763 49.6992L31.0663 53.3351L28.078 55.0783L28.088 51.4424Z" fill="#C44A10"/>
<path d="M24.9252 49.6092L27.9136 47.876L31.0813 49.6989L28.0929 51.4421L24.9252 49.6092Z" fill="#FF8D23"/>
<path d="M28.0902 51.4422L28.0802 55.0781L24.9126 53.2452L24.9225 49.6094L28.0902 51.4422Z" fill="#82310B"/>
<path d="M24.8059 53.3543L27.8042 51.6211L27.7943 55.2569L24.796 56.9902L24.8059 53.3543Z" fill="#C44A10"/>
<path d="M21.6432 51.5313L24.6416 49.7881L27.8092 51.6209L24.8109 53.3542L21.6432 51.5313Z" fill="#FF8D23"/>
<path d="M24.8082 53.3542L24.7982 56.99L21.6306 55.1671L21.6405 51.5312L24.8082 53.3542Z" fill="#82310B"/>
<path d="M24.564 53.4941V53.8428V56.861L24.5541 56.9905V57.13L22.4921 58.3353L21.8446 57.9667L21.5657 57.8073L21.5757 55.2274L21.6653 55.1776L24.564 53.4941Z" fill="#82310B"/>
<path d="M18.4088 53.4043L21.4071 51.6611L24.5648 53.494L21.5764 55.2272L18.4088 53.4043Z" fill="#FF8D23"/>
<path d="M21.5764 55.2272L21.5665 57.8071L19.0463 56.3628L18.4088 55.9942V53.4043L21.1381 54.9782L21.5764 55.2272Z" fill="#F9781A"/>
<path d="M73.9954 28.8299L76.9838 27.0967L76.9738 30.7325L73.9855 32.4757L73.9954 28.8299Z" fill="#C44A10"/>
<path d="M70.8327 27.0069L73.831 25.2637L76.9887 27.0965L74.0004 28.8298L70.8327 27.0069Z" fill="#FF8D23"/>
<path d="M73.9977 28.8297L73.9877 32.4755L70.82 30.6427L70.83 27.0068L73.9977 28.8297Z" fill="#82310B"/>
<path d="M70.7646 30.7129L73.7529 28.9697L73.7429 32.6056L70.7546 34.3488L70.7646 30.7129Z" fill="#C44A10"/>
<path d="M67.6018 28.8797L70.6001 27.1465L73.7579 28.9694L70.7695 30.7126L67.6018 28.8797Z" fill="#FF8D23"/>
<path d="M70.7668 30.7127L70.7568 34.3486L67.5892 32.5157L67.5992 28.8799L70.7668 30.7127Z" fill="#82310B"/>
<path d="M67.4877 32.626L70.486 30.8828L70.476 34.5286L67.4777 36.2619L67.4877 32.626Z" fill="#C44A10"/>
<path d="M64.3334 30.7928L67.3218 29.0596L70.4894 30.8825L67.4911 32.6257L64.3334 30.7928Z" fill="#FF8D23"/>
<path d="M67.4884 32.6258L67.4785 36.2617L64.3208 34.4388L64.3307 30.793L67.4884 32.6258Z" fill="#82310B"/>
<path d="M64.2523 34.4979L67.2506 32.7646L67.2407 36.4005L64.2423 38.1437L64.2523 34.4979Z" fill="#C44A10"/>
<path d="M61.098 32.6749L64.0864 30.9316L67.254 32.7645L64.2557 34.4978L61.098 32.6749Z" fill="#FF8D23"/>
<path d="M64.253 34.4977L64.243 38.1435L61.0854 36.3106L61.0953 32.6748L64.253 34.4977Z" fill="#82310B"/>
<path d="M60.9101 36.4092L63.9084 34.666L63.8985 38.3019L60.9002 40.0451L60.9101 36.4092Z" fill="#C44A10"/>
<path d="M57.7474 34.576L60.7457 32.8428L63.9134 34.6657L60.9151 36.4089L57.7474 34.576Z" fill="#FF8D23"/>
<path d="M60.9124 36.409L60.9024 40.0449L57.7347 38.212L57.7447 34.5762L60.9124 36.409Z" fill="#82310B"/>
<path d="M57.6831 38.2842L60.6814 36.541L60.6714 40.1868L57.6731 41.9201L57.6831 38.2842Z" fill="#C44A10"/>
<path d="M54.5246 36.461L57.513 34.7178L60.6806 36.5407L57.6823 38.2839L54.5246 36.461Z" fill="#FF8D23"/>
<path d="M57.6854 38.2838L57.6754 41.9197L54.5077 40.0968L54.5277 36.4609L57.6854 38.2838Z" fill="#82310B"/>
<path d="M54.4017 40.1971L57.3901 38.4639L57.3801 42.0997L54.3918 43.833L54.4017 40.1971Z" fill="#C44A10"/>
<path d="M51.239 38.3741L54.2274 36.6309L57.3951 38.4637L54.4067 40.197L51.239 38.3741Z" fill="#FF8D23"/>
<path d="M54.404 40.1969L54.394 43.8328L51.2264 42.0099L51.2363 38.374L54.404 40.1969Z" fill="#82310B"/>
<path d="M51.1793 42.0791L54.1676 40.3359L54.1577 43.9718L51.1693 45.715L51.1793 42.0791Z" fill="#C44A10"/>
<path d="M48.0166 40.2459L51.0049 38.5127L54.1726 40.3356L51.1842 42.0788L48.0166 40.2459Z" fill="#FF8D23"/>
<path d="M51.1816 42.079L51.1716 45.7148L48.0039 43.8819L48.0139 40.2461L51.1816 42.079Z" fill="#82310B"/>
<path d="M47.8383 44.0127L50.8267 42.2695L50.8167 45.9153L47.8284 47.6486L47.8383 44.0127Z" fill="#C44A10"/>
<path d="M44.6756 42.1895L47.664 40.4463L50.8316 42.2692L47.8433 44.0124L44.6756 42.1895Z" fill="#FF8D23"/>
<path d="M47.8406 44.0124L47.8306 47.6482L44.663 45.8253L44.6729 42.1895L47.8406 44.0124Z" fill="#82310B"/>
<path d="M44.6114 45.8846L47.5997 44.1514L47.5898 47.7872L44.6014 49.5205L44.6114 45.8846Z" fill="#C44A10"/>
<path d="M41.4487 44.0616L44.437 42.3184L47.6047 44.1512L44.6163 45.8845L41.4487 44.0616Z" fill="#FF8D23"/>
<path d="M44.6136 45.8844L44.6037 49.5203L41.436 47.6974L41.446 44.0615L44.6136 45.8844Z" fill="#82310B"/>
<path d="M41.3261 47.8067L44.3244 46.0635L44.3145 49.6993L41.3161 51.4425L41.3261 47.8067Z" fill="#C44A10"/>
<path d="M38.1718 45.9735L41.1602 44.2402L44.3279 46.0631L41.3296 47.8063L38.1718 45.9735Z" fill="#FF8D23"/>
<path d="M41.3269 47.8065L41.3169 51.4423L38.1592 49.6095L38.1692 45.9736L41.3269 47.8065Z" fill="#82310B"/>
<path d="M38.0985 49.6807L41.0968 47.9375L41.0868 51.5833L38.0885 53.3166L38.0985 49.6807Z" fill="#C44A10"/>
<path d="M34.94 47.8575L37.9284 46.1143L41.096 47.9372L38.0977 49.6804L34.94 47.8575Z" fill="#FF8D23"/>
<path d="M38.1007 49.6803L38.0908 53.3162L34.9231 51.4933L34.9431 47.8574L38.1007 49.6803Z" fill="#82310B"/>
<path d="M34.7478 51.5809L37.7362 49.8477V53.4835L34.7379 55.2167L34.7478 51.5809Z" fill="#C44A10"/>
<path d="M31.5851 49.7579L34.5834 48.0146L37.7411 49.8475L34.7528 51.5808L31.5851 49.7579Z" fill="#FF8D23"/>
<path d="M34.7501 51.5807L34.7401 55.2166L31.5725 53.3936L31.5824 49.7578L34.7501 51.5807Z" fill="#82310B"/>
<path d="M31.5214 53.4629L34.5098 51.7197L34.4998 55.3556L31.5115 57.0988L31.5214 53.4629Z" fill="#C44A10"/>
<path d="M28.3587 51.6297L31.3571 49.8965L34.5148 51.7194L31.5264 53.4626L28.3587 51.6297Z" fill="#FF8D23"/>
<path d="M31.5237 53.4627L31.5137 57.0986L28.3461 55.2657L28.356 51.6299L31.5237 53.4627Z" fill="#82310B"/>
<path d="M28.2486 55.377L31.2369 53.6338L31.2269 57.2796L28.2386 59.0128L28.2486 55.377Z" fill="#C44A10"/>
<path d="M25.0858 53.5438L28.0742 51.8105L31.2419 53.6334L28.2535 55.3767L25.0858 53.5438Z" fill="#FF8D23"/>
<path d="M28.2508 55.3768L28.2408 59.0126L25.0732 57.1897L25.0832 53.5439L28.2508 55.3768Z" fill="#82310B"/>
<path d="M28.0106 55.5156V55.8145L28.0006 58.8725V58.9821V59.1515L25.9785 60.3269L25.2613 59.9085L25.0123 59.7691L25.0222 57.2489L25.1019 57.1991L28.0106 55.5156Z" fill="#07334E"/>
<path d="M21.8595 55.4258L24.8479 53.6826L28.0156 55.5155L25.0272 57.2487L21.8595 55.4258Z" fill="#FF8D23"/>
<path d="M25.0245 57.2487L25.0145 59.7689L22.4943 58.3345L21.8468 57.9659L21.8568 55.4258L24.5563 56.9897L25.0245 57.2487Z" fill="#1A4B6C"/>
<path d="M77.4192 30.8233L80.4076 29.0801L80.3977 32.7159L77.4093 34.4591L77.4192 30.8233Z" fill="#C44A10"/>
<path d="M74.2565 28.9901L77.2549 27.2568L80.4126 29.0797L77.4242 30.8229L74.2565 28.9901Z" fill="#FF8D23"/>
<path d="M77.4215 30.8231L77.4116 34.4589L74.2439 32.6261L74.2539 28.9902L77.4215 30.8231Z" fill="#82310B"/>
<path d="M74.1839 32.6963L77.1722 30.9531L77.1623 34.5989L74.1739 36.3322L74.1839 32.6963Z" fill="#C44A10"/>
<path d="M71.0212 30.8631L74.0195 29.1299L77.1772 30.9528L74.1888 32.696L71.0212 30.8631Z" fill="#FF8D23"/>
<path d="M74.1861 32.6961L74.1761 36.332L71.0085 34.5091L71.0185 30.8633L74.1861 32.6961Z" fill="#82310B"/>
<path d="M70.9025 34.6073L73.9008 32.874L73.8908 36.5099L70.8925 38.2431L70.9025 34.6073Z" fill="#C44A10"/>
<path d="M67.7482 32.7842L70.7366 31.041L73.9042 32.8739L70.9059 34.6071L67.7482 32.7842Z" fill="#FF8D23"/>
<path d="M70.9032 34.6071L70.8933 38.2429L67.7355 36.42L67.7455 32.7842L70.9032 34.6071Z" fill="#82310B"/>
<path d="M67.6671 36.4883L70.6654 34.7451L70.6554 38.381L67.6571 40.1242L67.6671 36.4883Z" fill="#C44A10"/>
<path d="M64.5128 34.6551L67.5012 32.9219L70.6688 34.7448L67.6705 36.488L64.5128 34.6551Z" fill="#FF8D23"/>
<path d="M67.6678 36.4881L67.6579 40.124L64.5001 38.2911L64.5101 34.6553L67.6678 36.4881Z" fill="#82310B"/>
<path d="M64.3249 38.3916L67.3232 36.6484L67.3132 40.2942L64.3149 42.0275L64.3249 38.3916Z" fill="#C44A10"/>
<path d="M61.1621 36.5684L64.1604 34.8252L67.3281 36.6481L64.3298 38.3913L61.1621 36.5684Z" fill="#FF8D23"/>
<path d="M64.3271 38.3913L64.3171 42.0271L61.1495 40.2042L61.1594 36.5684L64.3271 38.3913Z" fill="#82310B"/>
<path d="M61.0979 40.2655L64.0962 38.5322L64.0863 42.1681L61.0879 43.9013L61.0979 40.2655Z" fill="#C44A10"/>
<path d="M57.9352 38.4424L60.9335 36.6992L64.1012 38.5321L61.1029 40.2653L57.9352 38.4424Z" fill="#FF8D23"/>
<path d="M61.1001 40.2653L61.0902 43.9011L57.9225 42.0782L57.9325 38.4424L61.1001 40.2653Z" fill="#82310B"/>
<path d="M57.821 42.1885L60.8094 40.4453L60.7994 44.0812L57.8111 45.8244L57.821 42.1885Z" fill="#C44A10"/>
<path d="M54.6583 40.3553L57.6467 38.6221L60.8143 40.445L57.826 42.1882L54.6583 40.3553Z" fill="#FF8D23"/>
<path d="M57.8233 42.1883L57.8133 45.8242L54.6457 43.9913L54.6556 40.3555L57.8233 42.1883Z" fill="#82310B"/>
<path d="M54.5986 44.0616L57.5869 42.3184L57.577 45.9642L54.5886 47.6974L54.5986 44.0616Z" fill="#C44A10"/>
<path d="M51.4359 42.2284L54.4243 40.4951L57.5919 42.318L54.6036 44.0612L51.4359 42.2284Z" fill="#FF8D23"/>
<path d="M54.6008 44.0614L54.5909 47.6972L51.4232 45.8743L51.4332 42.2285L54.6008 44.0614Z" fill="#82310B"/>
<path d="M51.2577 45.994L54.246 44.2607L54.236 47.8966L51.2477 49.6298L51.2577 45.994Z" fill="#C44A10"/>
<path d="M48.0949 44.1709L51.0833 42.4277L54.251 44.2606L51.2626 45.9938L48.0949 44.1709Z" fill="#FF8D23"/>
<path d="M51.2599 45.9938L51.2499 49.6296L48.0823 47.8067L48.0922 44.1709L51.2599 45.9938Z" fill="#82310B"/>
<path d="M48.0352 47.877L51.0236 46.1338L51.0136 49.7696L48.0253 51.5128L48.0352 47.877Z" fill="#C44A10"/>
<path d="M44.8725 46.0438L47.8609 44.3105L51.0285 46.1334L48.0402 47.8767L44.8725 46.0438Z" fill="#FF8D23"/>
<path d="M48.0375 47.8768L48.0275 51.5126L44.8598 49.6798L44.8698 46.0439L48.0375 47.8768Z" fill="#82310B"/>
<path d="M44.7363 49.7901L47.7347 48.0469L47.7247 51.6927L44.7264 53.4259L44.7363 49.7901Z" fill="#C44A10"/>
<path d="M41.5821 47.9569L44.5704 46.2236L47.7381 48.0465L44.7398 49.7897L41.5821 47.9569Z" fill="#FF8D23"/>
<path d="M44.737 49.7899L44.7271 53.4257L41.5694 51.6028L41.5793 47.957L44.737 49.7899Z" fill="#82310B"/>
<path d="M41.5178 51.661L44.5161 49.9277L44.5062 53.5636L41.5078 55.2968L41.5178 51.661Z" fill="#C44A10"/>
<path d="M38.3593 49.8379L41.3477 48.0947L44.5153 49.9276L41.517 51.6608L38.3593 49.8379Z" fill="#FF8D23"/>
<path d="M41.5201 51.6608L41.5101 55.2966L38.3424 53.4737L38.3623 49.8379L41.5201 51.6608Z" fill="#82310B"/>
<path d="M38.1626 53.5752L41.1609 51.832L41.151 55.4679L38.1526 57.2111L38.1626 53.5752Z" fill="#C44A10"/>
<path d="M34.9999 51.742L37.9982 50.0088L41.1659 51.8317L38.1675 53.5749L34.9999 51.742Z" fill="#FF8D23"/>
<path d="M38.1649 53.575L38.1549 57.2109L34.9872 55.378L34.9972 51.7422L38.1649 53.575Z" fill="#82310B"/>
<path d="M34.9363 55.4454L37.9246 53.7021L37.9147 57.3479L34.9263 59.0812L34.9363 55.4454Z" fill="#C44A10"/>
<path d="M31.7736 53.6122L34.7719 51.8789L37.9296 53.7018L34.9412 55.445L31.7736 53.6122Z" fill="#FF8D23"/>
<path d="M34.9385 55.4452L34.9286 59.081L31.7609 57.2581L31.7709 53.6123L34.9385 55.4452Z" fill="#82310B"/>
<path d="M31.6633 57.3582L34.6517 55.625L34.6417 59.2608L31.6534 60.9941L31.6633 57.3582Z" fill="#C44A10"/>
<path d="M28.5006 55.5352L31.489 53.792L34.6566 55.6249L31.6683 57.3581L28.5006 55.5352Z" fill="#FF8D23"/>
<path d="M31.6656 57.3581L31.6556 60.9939L28.488 59.171L28.4979 55.5352L31.6656 57.3581Z" fill="#82310B"/>
<path d="M31.4254 57.498V57.777L31.4154 60.8649V60.8948V61.1339L29.4232 62.2894L28.7259 61.8909L28.427 61.7216L28.437 59.2313L28.5167 59.1914L31.4254 57.498Z" fill="#82310B"/>
<path d="M25.2743 57.4081L28.2626 55.6748L31.4303 57.4977L28.4419 59.231L25.2743 57.4081Z" fill="#FF8D23"/>
<path d="M28.4392 59.2311L28.4293 61.7214L25.9788 60.3268L25.2616 59.9085L25.2716 57.4082L28.001 58.9821L28.4392 59.2311Z" fill="#F9781A"/>
<path d="M80.88 32.7559L83.8683 31.0127L83.8584 34.6485L80.87 36.3917L80.88 32.7559Z" fill="#C44A10"/>
<path d="M77.7173 30.9227L80.7156 29.1895L83.8733 31.0124L80.8849 32.7556L77.7173 30.9227Z" fill="#FF8D23"/>
<path d="M80.8822 32.7557L80.8722 36.3916L77.7046 34.5587L77.7146 30.9229L80.8822 32.7557Z" fill="#82310B"/>
<path d="M77.6537 34.627L80.6421 32.8838L80.6321 36.5296L77.6437 38.2628L77.6537 34.627Z" fill="#1A4B6C"/>
<path d="M74.491 32.8038L77.4893 31.0605L80.647 32.8834L77.6587 34.6267L74.491 32.8038Z" fill="#2B3E4F"/>
<path d="M77.6559 34.6266L77.646 38.2624L74.4783 36.4395L74.4883 32.8037L77.6559 34.6266Z" fill="#07334E"/>
<path d="M74.3783 36.5409L77.3667 34.8076L77.3567 38.4435L74.3584 40.1867L74.3783 36.5409Z" fill="#C44A10"/>
<path d="M71.2141 34.7178L74.2025 32.9746L77.3701 34.8075L74.3818 36.5407L71.2141 34.7178Z" fill="#FF8D23"/>
<path d="M74.3791 36.5407L74.3592 40.1865L71.2015 38.3536L71.2114 34.7178L74.3791 36.5407Z" fill="#82310B"/>
<path d="M71.1514 38.4229L74.1397 36.6797L74.1297 40.3155L71.1314 42.0587L71.1514 38.4229Z" fill="#C44A10"/>
<path d="M67.9872 36.5897L70.9755 34.8564L74.1432 36.6793L71.1548 38.4226L67.9872 36.5897Z" fill="#FF8D23"/>
<path d="M71.1521 38.4227L71.1322 42.0585L67.9745 40.2257L67.9844 36.5898L71.1521 38.4227Z" fill="#82310B"/>
<path d="M67.7953 40.326L70.7936 38.5928L70.7836 42.2286L67.7853 43.9619L67.7953 40.326Z" fill="#C44A10"/>
<path d="M64.641 38.503L67.6294 36.7598L70.7971 38.5926L67.7987 40.3259L64.641 38.503Z" fill="#FF8D23"/>
<path d="M67.796 40.3258L67.7861 43.9617L64.6284 42.1388L64.6384 38.5029L67.796 40.3258Z" fill="#82310B"/>
<path d="M64.5644 42.1981L67.5628 40.4648L67.5528 44.1007L64.5545 45.8339L64.5644 42.1981Z" fill="#C44A10"/>
<path d="M61.4102 40.375L64.3985 38.6318L67.5662 40.4647L64.5678 42.1979L61.4102 40.375Z" fill="#FF8D23"/>
<path d="M64.5652 42.1979L64.5552 45.8337L61.3975 44.0108L61.4075 40.375L64.5652 42.1979Z" fill="#82310B"/>
<path d="M61.2908 44.1202L64.2792 42.377L64.2693 46.0128L61.2809 47.756L61.2908 44.1202Z" fill="#C7C7C7"/>
<path d="M58.1282 42.287L61.1165 40.5537L64.2842 42.3766L61.2958 44.1198L58.1282 42.287Z" fill="#808080"/>
<path d="M61.2931 44.12L61.2831 47.7558L58.1155 45.9229L58.1254 42.2871L61.2931 44.12Z" fill="#808080"/>
<path d="M58.0548 45.9942L61.0432 44.251L61.0332 47.8968L58.0449 49.63L58.0548 45.9942Z" fill="#C44A10"/>
<path d="M54.8921 44.161L57.8805 42.4277L61.0481 44.2506L58.0598 45.9938L54.8921 44.161Z" fill="#FF8D23"/>
<path d="M58.0571 45.994L58.0471 49.6298L54.8795 47.8069L54.8894 44.1611L58.0571 45.994Z" fill="#82310B"/>
<path d="M54.7184 47.9266L57.7067 46.1934L57.6968 49.8292L54.7084 51.5724L54.7184 47.9266Z" fill="#C7C7C7"/>
<path d="M51.5557 46.1036L54.544 44.3604L57.7117 46.1932L54.7233 47.9265L51.5557 46.1036Z" fill="#808080"/>
<path d="M54.7207 47.9264L54.7107 51.5722L51.543 49.7394L51.553 46.1035L54.7207 47.9264Z" fill="#808080"/>
<path d="M51.4914 49.8106L54.4798 48.0674L54.4698 51.7032L51.4815 53.4464L51.4914 49.8106Z" fill="#1A4B6C"/>
<path d="M48.3287 47.9774L51.3171 46.2441L54.4847 48.067L51.4964 49.8103L48.3287 47.9774Z" fill="#2B3E4F"/>
<path d="M51.4937 49.8104L51.4837 53.4462L48.3161 51.6134L48.326 47.9775L51.4937 49.8104Z" fill="#07334E"/>
<path d="M48.2106 51.7225L51.2089 49.9893L51.199 53.6251L48.2007 55.3583L48.2106 51.7225Z" fill="#C44A10"/>
<path d="M45.0564 49.8995L48.0447 48.1562L51.2124 49.9891L48.2141 51.7224L45.0564 49.8995Z" fill="#FF8D23"/>
<path d="M48.2114 51.7223L48.2014 55.3582L45.0437 53.5353L45.0537 49.8994L48.2114 51.7223Z" fill="#82310B"/>
<path d="M44.9785 53.5926L47.9769 51.8594L47.9669 55.4952L44.9686 57.2384L44.9785 53.5926Z" fill="#1A4B6C"/>
<path d="M41.8201 51.7696L44.8084 50.0264L47.9761 51.8592L44.9777 53.5925L41.8201 51.7696Z" fill="#2B3E4F"/>
<path d="M44.9808 53.5924L44.9709 57.2382L41.8032 55.4054L41.8231 51.7695L44.9808 53.5924Z" fill="#07334E"/>
<path d="M41.6376 55.5049L44.6359 53.7617L44.626 57.3976L41.6276 59.1408L41.6376 55.5049Z" fill="#C44A10"/>
<path d="M38.4833 53.6717L41.4717 51.9385L44.6393 53.7614L41.641 55.5046L38.4833 53.6717Z" fill="#FF8D23"/>
<path d="M41.6383 55.5047L41.6283 59.1406L38.4707 57.3077L38.4806 53.6719L41.6383 55.5047Z" fill="#82310B"/>
<path d="M38.4061 57.379L41.4044 55.6357L41.3944 59.2815L38.3961 61.0148L38.4061 57.379Z" fill="#C44A10"/>
<path d="M35.2476 55.5457L38.236 53.8125L41.4036 55.6354L38.4053 57.3786L35.2476 55.5457Z" fill="#FF8D23"/>
<path d="M38.4083 57.3788L38.3984 61.0146L35.2307 59.1917L35.2506 55.5459L38.4083 57.3788Z" fill="#82310B"/>
<path d="M35.1286 59.2918L38.117 57.5586L38.107 61.1944L35.1187 62.9376L35.1286 59.2918Z" fill="#1A4B6C"/>
<path d="M31.9659 57.4688L34.9543 55.7256L38.1219 57.5584L35.1336 59.2917L31.9659 57.4688Z" fill="#2B3E4F"/>
<path d="M35.1309 59.2917L35.1209 62.9375L31.9532 61.1046L31.9632 57.4688L35.1309 59.2917Z" fill="#07334E"/>
<path d="M31.9023 61.1739L34.8906 59.4307L34.8807 63.0665L31.8923 64.8097L31.9023 61.1739Z" fill="#C7C7C7"/>
<path d="M28.7396 59.3407L31.728 57.6074L34.8956 59.4303L31.9072 61.1735L28.7396 59.3407Z" fill="#FF8D23"/>
<path d="M31.9045 61.1737L31.8946 64.8095L31.0778 64.3314L31.028 64.2019L30.8586 63.7636L30.5598 62.9368L30.4901 62.897L30.251 62.7575L29.7828 62.4985L29.4242 62.2893L28.7269 61.8909L28.7369 59.3408L31.4164 60.8948L31.9045 61.1737Z" fill="#C7C7C7"/>
<path d="M67.1568 21.1905L70.1452 19.4473L70.1352 23.0931L67.1468 24.8263L67.1568 21.1905Z" fill="#1A4B6C"/>
<path d="M63.9941 19.3573L66.9824 17.624L70.1501 19.4469L67.1617 21.1901L63.9941 19.3573Z" fill="#4B86A6"/>
<path d="M67.159 21.1903L67.1491 24.8261L63.9814 23.0032L63.9914 19.3574L67.159 21.1903Z" fill="#07334E"/>
<path d="M63.9253 23.0633L66.9137 21.3301L66.9037 24.9659L63.9153 26.6992L63.9253 23.0633Z" fill="#C44A10"/>
<path d="M60.7626 21.2403L63.7509 19.4971L66.9186 21.3299L63.9303 23.0632L60.7626 21.2403Z" fill="#FF8D23"/>
<path d="M63.9275 23.0631L63.9176 26.699L60.7499 24.8761L60.7599 21.2402L63.9275 23.0631Z" fill="#82310B"/>
<path d="M60.6348 24.9764L63.6332 23.2432L63.6232 26.879L60.6249 28.6222L60.6348 24.9764Z" fill="#1A4B6C"/>
<path d="M57.4721 23.1532L60.4705 21.4199L63.6381 23.2428L60.6398 24.9761L57.4721 23.1532Z" fill="#4B86A6"/>
<path d="M60.6371 24.9762L60.6272 28.622L57.4595 26.7892L57.4694 23.1533L60.6371 24.9762Z" fill="#07334E"/>
<path d="M57.4124 26.8575L60.4008 25.1143L60.3908 28.7501L57.4024 30.4933L57.4124 26.8575Z" fill="#C44A10"/>
<path d="M54.2497 25.0243L57.248 23.291L60.4057 25.1139L57.4174 26.8571L54.2497 25.0243Z" fill="#FF8D23"/>
<path d="M57.4147 26.8573L57.4047 30.4931L54.237 28.6603L54.247 25.0244L57.4147 26.8573Z" fill="#82310B"/>
<path d="M54.0707 28.7616L57.0591 27.0283L57.0492 30.6642L54.0608 32.3974L54.0707 28.7616Z" fill="#9C9C9C"/>
<path d="M50.908 26.9385L53.9064 25.1953L57.0641 27.0282L54.0757 28.7614L50.908 26.9385Z" fill="white"/>
<path d="M54.073 28.7614L54.063 32.3972L50.8954 30.5743L50.9053 26.9385L54.073 28.7614Z" fill="#808080"/>
<path d="M50.8354 30.6327L53.8238 28.8994L53.8138 32.5353L50.8254 34.2785L50.8354 30.6327Z" fill="#1A4B6C"/>
<path d="M47.6727 28.8096L50.671 27.0664L53.8287 28.8993L50.8404 30.6325L47.6727 28.8096Z" fill="#4B86A6"/>
<path d="M50.8377 30.6325L50.8277 34.2783L47.66 32.4454L47.67 28.8096L50.8377 30.6325Z" fill="#07334E"/>
<path d="M47.564 32.5567L50.5523 30.8135L50.5424 34.4493L47.5441 36.1925L47.564 32.5567Z" fill="#C44A10"/>
<path d="M44.3997 30.7235L47.3881 28.9902L50.5558 30.8131L47.5674 32.5563L44.3997 30.7235Z" fill="#FF8D23"/>
<path d="M47.5647 32.5565L47.5448 36.1923L44.3871 34.3694L44.3971 30.7236L47.5647 32.5565Z" fill="#82310B"/>
<path d="M44.3277 34.4286L47.326 32.6953L47.316 36.3312L44.3177 38.0644L44.3277 34.4286Z" fill="#9C9C9C"/>
<path d="M41.1734 32.6055L44.1618 30.8623L47.3294 32.6952L44.3311 34.4284L41.1734 32.6055Z" fill="white"/>
<path d="M44.3284 34.4284L44.3185 38.0642L41.1608 36.2413L41.1707 32.6055L44.3284 34.4284Z" fill="#808080"/>
<path d="M41.0006 36.3602L43.9889 34.627L43.979 38.2628L40.9807 40.006L41.0006 36.3602Z" fill="#C44A10"/>
<path d="M37.8364 34.537L40.8247 32.8037L43.9924 34.6266L41.004 36.3599L37.8364 34.537Z" fill="#FF8D23"/>
<path d="M41.0013 36.36L40.9814 40.0058L37.8237 38.1729L37.8337 34.5371L41.0013 36.36Z" fill="#82310B"/>
<path d="M37.7552 38.2442L40.7535 36.501L40.7436 40.1368L37.7453 41.88L37.7552 38.2442Z" fill="#1A4B6C"/>
<path d="M34.601 36.411L37.5893 34.6777L40.757 36.5006L37.7586 38.2438L34.601 36.411Z" fill="#4B86A6"/>
<path d="M37.756 38.244L37.746 41.8798L34.5883 40.0569L34.5983 36.4111L37.756 38.244Z" fill="#07334E"/>
<path d="M34.4817 40.1561L37.47 38.4229L37.46 42.0587L34.4717 43.7919L34.4817 40.1561Z" fill="#C44A10"/>
<path d="M31.3189 38.3331L34.3173 36.5898L37.475 38.4227L34.4866 40.156L31.3189 38.3331Z" fill="#FF8D23"/>
<path d="M34.4839 40.1559L34.4739 43.7917L31.3063 41.9688L31.3162 38.333L34.4839 40.1559Z" fill="#82310B"/>
<path d="M31.2501 42.0291L34.2385 40.2959L34.2286 43.9317L31.2402 45.6749L31.2501 42.0291Z" fill="#C44A10"/>
<path d="M28.0875 40.2061L31.0758 38.4629L34.2435 40.2958L31.2551 42.029L28.0875 40.2061Z" fill="#FF8D23"/>
<path d="M31.2524 42.029L31.2425 45.6748L28.0748 43.8419L28.0848 40.2061L31.2524 42.029Z" fill="#82310B"/>
<path d="M27.9001 43.9424L30.8885 42.1992L30.8785 45.8351L27.8902 47.5783L27.9001 43.9424Z" fill="#C44A10"/>
<path d="M24.7374 42.1092L27.7258 40.376L30.8934 42.1989L27.9051 43.9421L24.7374 42.1092Z" fill="#FF8D23"/>
<path d="M27.9024 43.9422L27.8924 47.5781L24.7248 45.7552L24.7347 42.1094L27.9024 43.9422Z" fill="#82310B"/>
<path d="M24.6892 45.8153L27.6775 44.082L27.6975 47.7278L24.7091 49.471L24.6892 45.8153Z" fill="#1A4B6C"/>
<path d="M21.5195 43.9922L24.5079 42.249L27.6755 44.0819L24.6872 45.8151L21.5195 43.9922Z" fill="#4B86A6"/>
<path d="M24.6845 45.8151L24.6745 49.4509L21.5069 47.628L21.5168 43.9922L24.6845 45.8151Z" fill="#07334E"/>
<path d="M21.3924 47.7374L24.3908 45.9941L24.3808 49.63L21.3825 51.3732L21.3924 47.7374Z" fill="#C44A10"/>
<path d="M18.2381 45.9043L21.2265 44.1611L24.3942 45.994L21.3959 47.7372L18.2381 45.9043Z" fill="#FF8D23"/>
<path d="M21.3931 47.7372L21.3832 51.373L18.2255 49.5401L18.2354 45.9043L21.3931 47.7372Z" fill="#82310B"/>
<path d="M18.1655 49.6084L21.1638 47.8652L21.1538 51.5011L18.1555 53.2443L18.1655 49.6084Z" fill="#07334E"/>
<path d="M15.0112 47.7752L17.9995 46.042L21.1672 47.8649L18.1689 49.6081L15.0112 47.7752Z" fill="#4B86A6"/>
<path d="M18.1662 49.6083L18.1562 53.2441L14.9985 51.4112L15.0085 47.7754L18.1662 49.6083Z" fill="#1A4B6C"/>
<path d="M70.5716 23.1717L73.5599 21.4385L73.55 25.0743L70.5616 26.8076L70.5716 23.1717Z" fill="#C44A10"/>
<path d="M67.4089 21.3487L70.3972 19.6055L73.5649 21.4383L70.5765 23.1716L67.4089 21.3487Z" fill="#FF8D23"/>
<path d="M70.5738 23.1715L70.5639 26.8074L67.3962 24.9845L67.4062 21.3486L70.5738 23.1715Z" fill="#82310B"/>
<path d="M67.3446 25.0457L70.333 23.3125L70.323 26.9483L67.3346 28.6915L67.3446 25.0457Z" fill="#C44A10"/>
<path d="M64.1819 23.2227L67.1703 21.4795L70.3379 23.3124L67.3496 25.0456L64.1819 23.2227Z" fill="#FF8D23"/>
<path d="M67.3469 25.0456L67.3369 28.6914L64.1692 26.8585L64.1792 23.2227L67.3469 25.0456Z" fill="#82310B"/>
<path d="M64.0541 26.9678L67.0525 25.2246L67.0425 28.8604L64.0442 30.6037L64.0541 26.9678Z" fill="#9C9C9C"/>
<path d="M60.8914 25.1346L63.8898 23.4014L67.0574 25.2243L64.0591 26.9675L60.8914 25.1346Z" fill="white"/>
<path d="M64.0564 26.9676L64.0464 30.6035L60.8788 28.7806L60.8887 25.1348L64.0564 26.9676Z" fill="#808080"/>
<path d="M60.8317 28.8416L63.8301 27.1084L63.8101 30.7442L60.8218 32.4775L60.8317 28.8416Z" fill="#C44A10"/>
<path d="M57.669 27.0186L60.6673 25.2754L63.835 27.1083L60.8367 28.8415L57.669 27.0186Z" fill="#FF8D23"/>
<path d="M60.834 28.8415L60.824 32.4773L57.6564 30.6544L57.6663 27.0186L60.834 28.8415Z" fill="#82310B"/>
<path d="M57.4856 30.743L60.474 29.0098L60.464 32.6456L57.4756 34.3888L57.4856 30.743Z" fill="#9C9C9C"/>
<path d="M54.3229 28.92L57.3212 27.1768L60.4789 29.0096L57.4906 30.7429L54.3229 28.92Z" fill="white"/>
<path d="M57.4878 30.7428L57.4779 34.3886L54.3102 32.5558L54.3202 28.9199L57.4878 30.7428Z" fill="#808080"/>
<path d="M54.2547 32.626L57.2431 30.8828L57.2331 34.5187L54.2448 36.2619L54.2547 32.626Z" fill="#C44A10"/>
<path d="M51.092 30.7928L54.0903 29.0596L57.248 30.8825L54.2597 32.6257L51.092 30.7928Z" fill="#FF8D23"/>
<path d="M54.257 32.6258L54.247 36.2617L51.0793 34.4288L51.0893 30.793L54.257 32.6258Z" fill="#82310B"/>
<path d="M50.9788 34.5379L53.9671 32.8047L53.9572 36.4405L50.9588 38.1738L50.9788 34.5379Z" fill="#C44A10"/>
<path d="M47.8145 32.7149L50.8029 30.9717L53.9706 32.8045L50.9822 34.5378L47.8145 32.7149Z" fill="#FF8D23"/>
<path d="M50.9795 34.5377L50.9596 38.1736L47.8019 36.3507L47.8118 32.7148L50.9795 34.5377Z" fill="#82310B"/>
<path d="M47.7425 36.409L50.7408 34.6758L50.7309 38.3116L47.7325 40.0548L47.7425 36.409Z" fill="#C44A10"/>
<path d="M44.5882 34.586L47.5766 32.8428L50.7442 34.6756L47.7459 36.4089L44.5882 34.586Z" fill="#FF8D23"/>
<path d="M47.7432 36.4088L47.7333 40.0546L44.5756 38.2218L44.5855 34.5859L47.7432 36.4088Z" fill="#82310B"/>
<path d="M44.4184 38.3536L47.4068 36.6104L47.3968 40.2462L44.4084 41.9894L44.4184 38.3536Z" fill="#C44A10"/>
<path d="M41.2557 36.5204L44.244 34.7871L47.4117 36.61L44.4234 38.3532L41.2557 36.5204Z" fill="#FF8D23"/>
<path d="M44.4206 38.3534L44.4107 41.9892L41.243 40.1663L41.253 36.5205L44.4206 38.3534Z" fill="#82310B"/>
<path d="M41.1746 40.2245L44.1729 38.4912L44.1629 42.1271L41.1646 43.8603L41.1746 40.2245Z" fill="#C44A10"/>
<path d="M38.0203 38.4014L41.0086 36.6582L44.1763 38.4911L41.178 40.2243L38.0203 38.4014Z" fill="#FF8D23"/>
<path d="M41.1753 40.2243L41.1653 43.8601L38.0076 42.0372L38.0176 38.4014L41.1753 40.2243Z" fill="#82310B"/>
<path d="M37.901 42.1485L40.8893 40.4053L40.8794 44.0411L37.891 45.7843L37.901 42.1485Z" fill="#9C9C9C"/>
<path d="M34.7383 40.3155L37.7366 38.5723L40.8943 40.4051L37.9059 42.1483L34.7383 40.3155Z" fill="white"/>
<path d="M37.9032 42.1483L37.8933 45.7841L34.7256 43.9513L34.7356 40.3154L37.9032 42.1483Z" fill="#808080"/>
<path d="M34.6701 44.0215L37.6584 42.2783L37.6884 45.9142L34.6601 47.6773L34.6701 44.0215Z" fill="#1A4B6C"/>
<path d="M31.5074 42.1883L34.5057 40.4551L37.6634 42.278L34.6751 44.0212L31.5074 42.1883Z" fill="#4B86A6"/>
<path d="M34.6723 44.0213L34.6624 47.6572L31.4947 45.8243L31.5047 42.1885L34.6723 44.0213Z" fill="#07334E"/>
<path d="M31.3195 45.9247L34.3078 44.1914L34.2978 47.8272L31.3095 49.5605L31.3195 45.9247Z" fill="#C44A10"/>
<path d="M28.1567 44.1016L31.1451 42.3584L34.3128 44.1913L31.3244 45.9245L28.1567 44.1016Z" fill="#FF8D23"/>
<path d="M31.3217 45.9245L31.3117 49.5603L28.1441 47.7374L28.154 44.1016L31.3217 45.9245Z" fill="#82310B"/>
<path d="M28.1016 47.7977L31.0899 46.0645L31.0799 49.7003L28.0916 51.4435L28.1016 47.7977Z" fill="#C44A10"/>
<path d="M24.9388 45.9747L27.9272 44.2314L31.0949 46.0643L28.1065 47.7976L24.9388 45.9747Z" fill="#FF8D23"/>
<path d="M28.1038 47.7975L28.0938 51.4433L24.9262 49.6104L24.9361 45.9746L28.1038 47.7975Z" fill="#82310B"/>
<path d="M24.8065 49.7198L27.8049 47.9766L27.7949 51.6124L24.7966 53.3556L24.8065 49.7198Z" fill="#C44A10"/>
<path d="M21.6481 47.8866L24.6364 46.1533L27.8041 47.9762L24.8058 49.7194L21.6481 47.8866Z" fill="#FF8D23"/>
<path d="M24.8088 49.7196L24.7989 53.3554L21.6312 51.5226L21.6511 47.8867L24.8088 49.7196Z" fill="#82310B"/>
<path d="M21.5802 51.5938L24.5786 49.8506L24.5686 53.4964L21.5703 55.2296L21.5802 51.5938Z" fill="#9C9C9C"/>
<path d="M18.426 49.7706L21.4143 48.0273L24.582 49.8502L21.5837 51.5935L18.426 49.7706Z" fill="white"/>
<path d="M21.581 51.5934L21.571 55.2292L18.4133 53.4063L18.4232 49.7705L21.581 51.5934Z" fill="#C7C7C7"/>
<path d="M74.0097 25.1942L76.998 23.4609L76.988 27.0968L73.9997 28.83L74.0097 25.1942Z" fill="#1A4B6C"/>
<path d="M70.8469 23.3711L73.8452 21.6279L77.003 23.4608L74.0146 25.194L70.8469 23.3711Z" fill="#4B86A6"/>
<path d="M74.0119 25.194L74.0019 28.8298L70.8343 27.0069L70.8443 23.3711L74.0119 25.194Z" fill="#07334E"/>
<path d="M70.7872 27.0663L73.7756 25.333L73.7656 28.9688L70.7773 30.7021L70.7872 27.0663Z" fill="#C44A10"/>
<path d="M67.6245 25.2432L70.6228 23.5L73.7805 25.3329L70.7922 27.0661L67.6245 25.2432Z" fill="#FF8D23"/>
<path d="M70.7894 27.0661L70.7795 30.7019L67.6119 28.879L67.6218 25.2432L70.7894 27.0661Z" fill="#82310B"/>
<path d="M67.4952 28.9903L70.4936 27.2471L70.4836 30.8829L67.4952 32.6261V28.9903Z" fill="#1A4B6C"/>
<path d="M64.3425 27.1571L67.3309 25.4238L70.4985 27.2467L67.5002 28.9899L64.3425 27.1571Z" fill="#4B86A6"/>
<path d="M67.4975 28.9901V32.6259L64.3298 30.7931L64.3398 27.1572L67.4975 28.9901Z" fill="#07334E"/>
<path d="M64.2704 30.8624L67.2687 29.1191L67.2588 32.7649L64.2605 34.4982L64.2704 30.8624Z" fill="#1A4B6C"/>
<path d="M61.1162 29.0291L64.1045 27.2959L67.2722 29.1188L64.2739 30.862L61.1162 29.0291Z" fill="#4B86A6"/>
<path d="M64.2712 30.8622L64.2612 34.498L61.1035 32.6751L61.1134 29.0293L64.2712 30.8622Z" fill="#07334E"/>
<path d="M60.9197 32.7655L63.9181 31.0322L63.9081 34.6681L60.9098 36.4013L60.9197 32.7655Z" fill="#C44A10"/>
<path d="M57.7655 30.9424L60.7539 29.1992L63.9215 31.0321L60.9232 32.7653L57.7655 30.9424Z" fill="#FF8D23"/>
<path d="M60.9205 32.7653L60.9105 36.4011L57.7528 34.5782L57.7628 30.9424L60.9205 32.7653Z" fill="#82310B"/>
<path d="M57.6889 34.6495L60.6872 32.9062L60.6773 36.5421L57.6789 38.2853L57.6889 34.6495Z" fill="#C44A10"/>
<path d="M54.5346 32.8163L57.523 31.083L60.6907 32.9059L57.6923 34.6491L54.5346 32.8163Z" fill="#FF8D23"/>
<path d="M57.6896 34.6493L57.6797 38.2851L54.522 36.4522L54.5319 32.8164L57.6896 34.6493Z" fill="#82310B"/>
<path d="M54.4108 36.5596L57.3991 34.8164L57.3892 38.4622L54.4008 40.1955L54.4108 36.5596Z" fill="#9C9C9C"/>
<path d="M51.2481 34.7264L54.2364 32.9932L57.4041 34.8161L54.4157 36.5593L51.2481 34.7264Z" fill="white"/>
<path d="M54.4131 36.5594L54.4031 40.1953L51.2354 38.3724L51.2454 34.7266L54.4131 36.5594Z" fill="#808080"/>
<path d="M51.1838 38.4325L54.1722 36.6992L54.1622 40.3351L51.1739 42.0683L51.1838 38.4325Z" fill="#1A4B6C"/>
<path d="M48.0211 36.6094L51.0095 34.8662L54.1771 36.6991L51.1888 38.4323L48.0211 36.6094Z" fill="#4B86A6"/>
<path d="M51.1861 38.4323L51.1761 42.0681L48.0085 40.2452L48.0184 36.6094L51.1861 38.4323Z" fill="#07334E"/>
<path d="M47.8474 40.375L50.8358 38.6318L50.8258 42.2677L47.8374 44.0109L47.8474 40.375Z" fill="#C44A10"/>
<path d="M44.6847 38.5418L47.683 36.8086L50.8407 38.6315L47.8523 40.3747L44.6847 38.5418Z" fill="#FF8D23"/>
<path d="M47.8497 40.3749L47.8397 44.0107L44.672 42.1778L44.682 38.542L47.8497 40.3749Z" fill="#82310B"/>
<path d="M44.625 42.2391L47.6133 40.5059L47.6034 44.1417L44.615 45.8849L44.625 42.2391Z" fill="#1A4B6C"/>
<path d="M41.4622 40.4159L44.4605 38.6826L47.6183 40.5055L44.6299 42.2487L41.4622 40.4159Z" fill="#4B86A6"/>
<path d="M44.6272 42.2489L44.6172 45.8847L41.4496 44.0618L41.4596 40.416L44.6272 42.2489Z" fill="#07334E"/>
<path d="M41.3351 44.16L44.3335 42.4268L44.3235 46.0626L41.3252 47.8058L41.3351 44.16Z" fill="#C44A10"/>
<path d="M38.1809 42.337L41.1692 40.5938L44.3369 42.4266L41.3386 44.1599L38.1809 42.337Z" fill="#FF8D23"/>
<path d="M41.3359 44.1598L41.3259 47.8056L38.1682 45.9728L38.1782 42.3369L41.3359 44.1598Z" fill="#82310B"/>
<path d="M38.1082 46.044L41.1065 44.3008L41.0966 47.9366L38.0982 49.6798L38.1082 46.044Z" fill="#C44A10"/>
<path d="M34.9539 44.2108L37.9423 42.4775L41.1099 44.3004L38.1116 46.0437L34.9539 44.2108Z" fill="#FF8D23"/>
<path d="M38.1089 46.0438L38.0989 49.6796L34.9413 47.8468L34.9512 44.2109L38.1089 46.0438Z" fill="#82310B"/>
<path d="M34.766 47.9473L37.7643 46.2041L37.7543 49.8499L34.756 51.5831L34.766 47.9473Z" fill="#1A4B6C"/>
<path d="M31.6033 46.1141L34.6016 44.3809L37.7692 46.2038L34.7709 47.947L31.6033 46.1141Z" fill="#4B86A6"/>
<path d="M34.7682 47.9471L34.7583 51.583L31.5906 49.7601L31.6005 46.1143L34.7682 47.9471Z" fill="#07334E"/>
<path d="M31.5305 49.8182L34.5289 48.085L34.509 51.7208L31.5206 53.454L31.5305 49.8182Z" fill="#C44A10"/>
<path d="M28.3679 47.9952L31.3662 46.252L34.5338 48.0848L31.5355 49.8181L28.3679 47.9952Z" fill="#FF8D23"/>
<path d="M31.5328 49.818L31.5229 53.4539L28.3552 51.631L28.3652 47.9951L31.5328 49.818Z" fill="#82310B"/>
<path d="M28.2576 51.7403L31.246 49.9971L31.236 53.6329L28.2477 55.3761L28.2576 51.7403Z" fill="#9C9C9C"/>
<path d="M25.0949 49.9071L28.0833 48.1738L31.251 49.9967L28.2626 51.7399L25.0949 49.9071Z" fill="white"/>
<path d="M28.2599 51.7401L28.2499 55.3759L25.0822 53.5431L25.0922 49.9072L28.2599 51.7401Z" fill="#808080"/>
<path d="M25.0267 53.6143L28.0151 51.8711L28.0051 55.5069L25.0168 57.2501L25.0267 53.6143Z" fill="#82310B"/>
<path d="M21.864 51.7811L24.8524 50.0479L28.0201 51.8707L25.0317 53.614L21.864 51.7811Z" fill="#FF8D23"/>
<path d="M25.029 53.6141L25.0191 57.25L21.8514 55.4271L21.8614 51.7812L25.029 53.6141Z" fill="#F9781A"/>
<path d="M77.4244 27.1766L80.4228 25.4434L80.4028 29.0792L77.4145 30.8124L77.4244 27.1766Z" fill="#C44A10"/>
<path d="M74.2617 25.3536L77.26 23.6104L80.4277 25.4432L77.4294 27.1765L74.2617 25.3536Z" fill="#FF8D23"/>
<path d="M77.4267 27.1764L77.4167 30.8123L74.2491 28.9894L74.259 25.3535L77.4267 27.1764Z" fill="#82310B"/>
<path d="M74.202 29.0586L77.1904 27.3154L77.1804 30.9513L74.192 32.6945L74.202 29.0586Z" fill="#C44A10"/>
<path d="M71.0392 27.2254L74.0376 25.4922L77.1953 27.3151L74.2069 29.0583L71.0392 27.2254Z" fill="#FF8D23"/>
<path d="M74.2043 29.0584L74.1943 32.6943L71.0266 30.8614L71.0366 27.2256L74.2043 29.0584Z" fill="#82310B"/>
<path d="M70.9161 30.9717L73.9045 29.2285L73.8945 32.8743L70.9061 34.6076L70.9161 30.9717Z" fill="#9C9C9C"/>
<path d="M67.7534 29.1385L70.7417 27.4053L73.9094 29.2282L70.921 30.9714L67.7534 29.1385Z" fill="white"/>
<path d="M70.9183 30.9715L70.9084 34.6074L67.7407 32.7845L67.7507 29.1387L70.9183 30.9715Z" fill="#808080"/>
<path d="M67.6837 32.8456L70.682 31.1123L70.6721 34.7481L67.6837 36.4814V32.8456Z" fill="#C44A10"/>
<path d="M64.5309 31.0225L67.5193 29.2793L70.687 31.1122L67.6887 32.8454L64.5309 31.0225Z" fill="#FF8D23"/>
<path d="M67.6859 32.8454V36.4812L64.5183 34.6583L64.5282 31.0225L67.6859 32.8454Z" fill="#82310B"/>
<path d="M64.3436 34.7579L67.3419 33.0146L67.332 36.6505L64.3337 38.3937L64.3436 34.7579Z" fill="#C44A10"/>
<path d="M61.1893 32.9247L64.1777 31.1914L67.3454 33.0143L64.3471 34.7575L61.1893 32.9247Z" fill="#FF8D23"/>
<path d="M64.3444 34.7577L64.3344 38.3935L61.1767 36.5606L61.1867 32.9248L64.3444 34.7577Z" fill="#82310B"/>
<path d="M61.1076 36.6319L64.1059 34.8887L64.0959 38.5345L61.0976 40.2677L61.1076 36.6319Z" fill="#C44A10"/>
<path d="M57.9491 34.7987L60.9375 33.0654L64.1051 34.8883L61.1068 36.6315L57.9491 34.7987Z" fill="#FF8D23"/>
<path d="M61.1098 36.6317L61.0999 40.2675L57.9322 38.4446L57.9522 34.7988L61.1098 36.6317Z" fill="#82310B"/>
<path d="M57.8346 38.5448L60.823 36.8115L60.813 40.4474L57.8247 42.1806L57.8346 38.5448Z" fill="#C44A10"/>
<path d="M54.6719 36.7217L57.6603 34.9785L60.8279 36.8114L57.8396 38.5446L54.6719 36.7217Z" fill="#FF8D23"/>
<path d="M57.8369 38.5446L57.8269 42.1804L54.6593 40.3575L54.6692 36.7217L57.8369 38.5446Z" fill="#82310B"/>
<path d="M54.5992 40.4268L57.5876 38.6836L57.5776 42.3194L54.5893 44.0626L54.5992 40.4268Z" fill="#1A4B6C"/>
<path d="M51.4365 38.5936L54.4249 36.8604L57.5925 38.6832L54.6042 40.4265L51.4365 38.5936Z" fill="#4B86A6"/>
<path d="M54.6015 40.4266L54.5915 44.0624L51.4239 42.2296L51.4338 38.5938L54.6015 40.4266Z" fill="#07334E"/>
<path d="M51.2667 42.3575L54.2551 40.6143L54.2451 44.2601L51.2568 45.9933L51.2667 42.3575Z" fill="#C44A10"/>
<path d="M48.104 40.5243L51.1023 38.791L54.26 40.6139L51.2717 42.3571L48.104 40.5243Z" fill="#FF8D23"/>
<path d="M51.269 42.3573L51.259 45.9931L48.0913 44.1702L48.1013 40.5244L51.269 42.3573Z" fill="#82310B"/>
<path d="M48.0398 44.2303L51.0281 42.4971L51.0181 46.1329L48.0298 47.8662L48.0398 44.2303Z" fill="#C44A10"/>
<path d="M44.877 42.4073L47.8753 40.6641L51.0331 42.4969L48.0447 44.2302L44.877 42.4073Z" fill="#FF8D23"/>
<path d="M48.042 44.2301L48.032 47.866L44.8644 46.0431L44.8743 42.4072L48.042 44.2301Z" fill="#82310B"/>
<path d="M44.7545 46.1524L47.7528 44.4092L47.7428 48.045L44.7445 49.7882L44.7545 46.1524Z" fill="#C44A10"/>
<path d="M41.6002 44.3192L44.5886 42.5859L47.7562 44.4088L44.7579 46.152L41.6002 44.3192Z" fill="#FF8D23"/>
<path d="M44.7552 46.1522L44.7453 49.788L41.5875 47.9552L41.5975 44.3193L44.7552 46.1522Z" fill="#82310B"/>
<path d="M41.5306 48.0264L44.5189 46.2832L44.509 49.919L41.4409 51.7419L41.5306 48.0264Z" fill="#1A4B6C"/>
<path d="M38.3642 46.1932L41.3525 44.46L44.5202 46.2829L41.5218 48.0261L38.3642 46.1932Z" fill="#4B86A6"/>
<path d="M41.5192 48.0262L41.5092 51.6621L38.3515 49.8392L38.3615 46.1934L41.5192 48.0262Z" fill="#82310B"/>
<path d="M38.1808 49.9286L41.1791 48.1953L41.1691 51.8311L38.1708 53.5644L38.1808 49.9286Z" fill="#C44A10"/>
<path d="M35.018 48.1055L38.0163 46.3623L41.184 48.1952L38.1857 49.9284L35.018 48.1055Z" fill="#FF8D23"/>
<path d="M38.183 49.9284L38.173 53.5642L35.0054 51.7413L35.0153 48.1055L38.183 49.9284Z" fill="#82310B"/>
<path d="M34.9499 51.8106L37.9482 50.0674L37.9383 53.7032L34.9399 55.4464L34.9499 51.8106Z" fill="#C44A10"/>
<path d="M31.7872 49.9774L34.7855 48.2441L37.9532 50.067L34.9549 51.8102L31.7872 49.9774Z" fill="#FF8D23"/>
<path d="M34.9522 51.8104L34.9422 55.4462L31.7745 53.6134L31.7845 49.9775L34.9522 51.8104Z" fill="#82310B"/>
<path d="M31.6724 53.7237L34.6608 51.9805L34.6508 55.6163L31.6625 57.3595L31.6724 53.7237Z" fill="#C44A10"/>
<path d="M28.5097 51.8905L31.4981 50.1572L34.6657 51.9801L31.6774 53.7233L28.5097 51.8905Z" fill="#FF8D23"/>
<path d="M31.6747 53.7235L31.6647 57.3593L28.4971 55.5364L28.507 51.8906L31.6747 53.7235Z" fill="#82310B"/>
<path d="M28.446 55.5965L31.4344 53.8633L31.4245 57.4991L28.4361 59.2324L28.446 55.5965Z" fill="#9C9C9C"/>
<path d="M25.2834 53.7735L28.2717 52.0303L31.4394 53.8631L28.451 55.5964L25.2834 53.7735Z" fill="white"/>
<path d="M28.4483 55.5963L28.4383 59.2322L25.2707 57.4093L25.2806 53.7734L28.4483 55.5963Z" fill="#C7C7C7"/>
<path d="M80.8897 29.1192L83.888 27.376L83.8681 31.0118L80.8798 32.755L80.8897 29.1192Z" fill="#C44A10"/>
<path d="M77.727 27.2862L80.7253 25.543L83.893 27.3758L80.8947 29.119L77.727 27.2862Z" fill="#FF8D23"/>
<path d="M80.892 29.119L80.882 32.7548L77.7143 30.922L77.7243 27.2861L80.892 29.119Z" fill="#82310B"/>
<path d="M77.6673 30.9922L80.6556 29.249L80.6457 32.8849L77.6573 34.6281L77.6673 30.9922Z" fill="#C7C7C7"/>
<path d="M74.5046 29.159L77.5029 27.4258L80.6606 29.2487L77.6722 30.9919L74.5046 29.159Z" fill="white"/>
<path d="M77.6695 30.992L77.6596 34.6279L74.4919 32.795L74.5019 29.1592L77.6695 30.992Z" fill="#808080"/>
<path d="M74.3814 32.9051L77.3697 31.1719L77.3598 34.8077L74.3714 36.541L74.3814 32.9051Z" fill="#1A4B6C"/>
<path d="M71.2187 31.0821L74.207 29.3389L77.3747 31.1717L74.3863 32.905L71.2187 31.0821Z" fill="#4B86A6"/>
<path d="M74.3836 32.9049L74.3737 36.5408L71.206 34.7179L71.2159 31.082L74.3836 32.9049Z" fill="#07334E"/>
<path d="M71.1589 34.7782L74.1473 33.0449L74.1373 36.6808L71.149 38.424L71.1589 34.7782Z" fill="#C44A10"/>
<path d="M67.9962 32.9551L70.9846 31.2119L74.1523 33.0448L71.1639 34.778L67.9962 32.9551Z" fill="#FF8D23"/>
<path d="M71.1612 34.778L71.1513 38.4238L67.9836 36.5909L67.9935 32.9551L71.1612 34.778Z" fill="#82310B"/>
<path d="M67.8128 36.6895L70.8012 34.9463L70.7912 38.5821L67.8029 40.3253L67.8128 36.6895Z" fill="#C7C7C7"/>
<path d="M64.6501 34.8563L67.6385 33.123L70.8061 34.9459L67.8178 36.6892L64.6501 34.8563Z" fill="white"/>
<path d="M67.8151 36.6893L67.8051 40.3251L64.6374 38.4923L64.6474 34.8564L67.8151 36.6893Z" fill="#808080"/>
<path d="M64.5765 38.5635L67.5748 36.8203L67.5649 40.4661L64.5765 42.1994V38.5635Z" fill="#C7C7C7"/>
<path d="M61.4238 36.7403L64.4121 34.9971L67.5798 36.82L64.5815 38.5632L61.4238 36.7403Z" fill="white"/>
<path d="M64.5788 38.5631V42.199L61.4111 40.3761L61.421 36.7402L64.5788 38.5631Z" fill="#808080"/>
<path d="M61.2999 40.4745L64.2883 38.7412L64.2783 42.3771L61.2899 44.1203L61.2999 40.4745Z" fill="#C44A10"/>
<path d="M58.1372 38.6514L61.1355 36.9082L64.2932 38.7411L61.3048 40.4743L58.1372 38.6514Z" fill="#FF8D23"/>
<path d="M61.3021 40.4743L61.2922 44.1201L58.1245 42.2872L58.1345 38.6514L61.3021 40.4743Z" fill="#82310B"/>
<path d="M58.0736 42.3575L61.062 40.6143L61.052 44.2501L58.0636 45.9933L58.0736 42.3575Z" fill="#1A4B6C"/>
<path d="M54.9109 40.5243L57.9092 38.791L61.0669 40.6139L58.0785 42.3571L54.9109 40.5243Z" fill="#4B86A6"/>
<path d="M58.0759 42.3573L58.0659 45.9931L54.8982 44.1603L54.9082 40.5244L58.0759 42.3573Z" fill="#07334E"/>
<path d="M54.732 44.2899L57.7204 42.5566L57.7104 46.1925L54.722 47.9257L54.732 44.2899Z" fill="#C44A10"/>
<path d="M51.5693 42.4668L54.5676 40.7236L57.7253 42.5565L54.737 44.2897L51.5693 42.4668Z" fill="#FF8D23"/>
<path d="M54.7343 44.2897L54.7243 47.9255L51.5566 46.1026L51.5666 42.4668L54.7343 44.2897Z" fill="#82310B"/>
<path d="M51.505 46.161L54.4934 44.4277L54.4834 48.0636L51.4951 49.8068L51.505 46.161Z" fill="#1A4B6C"/>
<path d="M48.3423 44.3379L51.3407 42.5947L54.4984 44.4276L51.51 46.1608L48.3423 44.3379Z" fill="#4B86A6"/>
<path d="M51.5073 46.1608L51.4973 49.8066L48.3297 47.9737L48.3396 44.3379L51.5073 46.1608Z" fill="#07334E"/>
<path d="M48.2197 48.086L51.2181 46.3428L51.2081 49.9786L48.2098 51.7218L48.2197 48.086Z" fill="#C7C7C7"/>
<path d="M45.0655 46.2528L48.0538 44.5195L51.2215 46.3424L48.2232 48.0856L45.0655 46.2528Z" fill="white"/>
<path d="M48.2204 48.0858L48.2105 51.7216L45.0528 49.8888L45.0627 46.2529L48.2204 48.0858Z" fill="#808080"/>
<path d="M45.0028 49.9571L47.9911 48.2139L47.9812 51.8597L44.9828 53.5929L45.0028 49.9571Z" fill="#C44A10"/>
<path d="M41.8385 48.1338L44.8269 46.3906L47.9946 48.2135L45.0062 49.9567L41.8385 48.1338Z" fill="#FF8D23"/>
<path d="M45.0035 49.9567L44.9835 53.5925L41.8259 51.7696L41.8358 48.1338L45.0035 49.9567Z" fill="#82310B"/>
<path d="M41.6427 51.8612L44.6411 50.1279L44.6311 53.7638L41.6328 55.497L41.6427 51.8612Z" fill="#1A4B6C"/>
<path d="M38.4885 50.0381L41.4769 48.2949L44.6445 50.1278L41.6462 51.861L38.4885 50.0381Z" fill="#4B86A6"/>
<path d="M41.6435 51.861L41.6335 55.4968L38.4758 53.6739L38.4858 50.0381L41.6435 51.861Z" fill="#07334E"/>
<path d="M38.4203 53.7442L41.4187 52.001L41.4087 55.6368L38.4104 57.38L38.4203 53.7442Z" fill="#C7C7C7"/>
<path d="M35.2661 51.911L38.2544 50.1777L41.4221 52.0006L38.4237 53.7438L35.2661 51.911Z" fill="white"/>
<path d="M38.4211 53.744L38.4111 57.3798L35.2534 55.547L35.2634 51.9111L38.4211 53.744Z" fill="#9C9C9C"/>
<path d="M35.1383 55.6561L38.1267 53.9229L38.1167 57.5587L35.1284 59.2919L35.1383 55.6561Z" fill="#C44A10"/>
<path d="M31.9756 53.8331L34.964 52.0898L38.1316 53.9227L35.1433 55.656L31.9756 53.8331Z" fill="#FF8D23"/>
<path d="M35.1405 55.6559L35.1306 59.2917L31.9629 57.4688L31.9729 53.833L35.1405 55.6559Z" fill="#82310B"/>
<path d="M31.9114 57.5291L34.8997 55.7959L34.8897 59.4317L31.9014 61.165L31.9114 57.5291Z" fill="#07334E"/>
<path d="M28.7486 55.7061L31.737 53.9629L34.9047 55.7958L31.9163 57.529L28.7486 55.7061Z" fill="#4B86A6"/>
<path d="M31.9136 57.529L31.9036 61.1648L28.736 59.3419L28.746 55.7061L31.9136 57.529Z" fill="#1A4B6C"/>
</svg>
