<svg width="108" height="87" viewBox="0 0 108 87" fill="none" xmlns="http://www.w3.org/2000/svg">
<circle cx="56" cy="43.9092" r="42.5" fill="#F1F6FE"/>
<g style="mix-blend-mode:multiply" opacity="0.6">
<path d="M99.045 24.0126L93.1736 23.8532H92.7794C91.9911 23.7791 91.1968 23.8016 90.414 23.9203C90.0114 23.9706 89.5753 24.0461 89.0888 24.1552C87.4784 24.6602 85.9285 25.3409 84.4671 26.185L84.3581 26.2437L84.1484 26.3528L83.7541 26.5792H83.687C83.1838 26.856 82.8483 27.0489 82.8483 27.0489L74.9386 31.5783L31.8758 56.3139C31.8758 56.3139 25.3082 60.4155 24.3688 65.4313C24.3688 65.4313 24.3688 65.4733 24.3688 65.4985C24.3688 65.5236 24.3688 65.5907 24.3688 65.6578C24.1591 67.1341 23.2029 75.5973 23.228 75.7231C23.01 78.2395 30.9532 78.4659 41.4547 72.7119L42.7715 72.9049C42.7914 72.9134 42.8128 72.9178 42.8344 72.9178C42.8561 72.9178 42.8775 72.9134 42.8974 72.9049C42.9481 72.8814 42.9927 72.8464 43.0277 72.8028C43.0626 72.7591 43.0869 72.7079 43.0987 72.6532C43.1075 72.6426 43.1124 72.6293 43.1124 72.6155C43.1124 72.6017 43.1075 72.5883 43.0987 72.5777L42.0837 72.3177L42.6793 71.697H42.7799H42.9896L43.1574 71.6047V71.4286V71.0847L44.6085 69.5665L61.1323 60.038H61.2498L63.7661 58.6121V58.5114L64.0093 58.3689L65.234 58.6289L66.0727 58.1424L66.1315 57.4881L65.6953 57.3959L91.0767 42.7508L95.7403 43.7154L95.6983 44.2942L97.0739 44.5794L98.6592 43.6651L98.8521 41.0817L99.5064 41.2243L103.415 38.9847L103.474 38.255L103.91 38.3473C103.801 38.5269 103.73 38.7266 103.7 38.9344C103.688 38.9857 103.686 39.039 103.696 39.091C103.705 39.1429 103.725 39.1925 103.754 39.2365C103.783 39.2805 103.821 39.3181 103.865 39.3469C103.909 39.3758 103.959 39.3952 104.011 39.4041H104.153C104.45 39.4331 104.747 39.3558 104.992 39.186C105.256 39.0347 105.496 38.8453 105.705 38.6241L107.081 38.8254C107.115 38.8398 107.155 38.8398 107.19 38.8254C107.232 38.803 107.27 38.7721 107.3 38.7346C107.331 38.6971 107.353 38.6538 107.366 38.6073C107.368 38.6001 107.369 38.5924 107.368 38.5849C107.368 38.5773 107.365 38.57 107.361 38.5635C107.357 38.5571 107.352 38.5516 107.345 38.5476C107.339 38.5435 107.331 38.541 107.324 38.5402L106.057 38.2047C106.197 38.0083 106.286 37.7808 106.317 37.542C106.329 37.4876 106.33 37.4311 106.318 37.3765C106.306 37.3219 106.283 37.2706 106.249 37.2259C106.216 37.1812 106.173 37.1444 106.124 37.1179C106.075 37.0914 106.021 37.0758 105.965 37.0723H106.007H105.864C105.568 37.0503 105.273 37.1269 105.026 37.2904C104.79 37.4312 104.574 37.6002 104.38 37.7937L103.541 37.6259V37.5253L104.136 37.6091L107.148 35.8813L107.533 31.9642L101.536 30.0434L101.83 26.6128C101.964 25.1114 101.251 24.2307 100.018 24.0377C99.6963 23.9858 99.369 23.9774 99.045 24.0126ZM95.7738 42.3902L92.7626 41.7695L93.6517 41.2578L95.8241 41.7108L95.7738 42.3902ZM105.587 37.131H105.52H105.587ZM105.688 37.131H105.587H105.688ZM105.403 37.2233H105.478H105.403ZM105.109 37.3659L105.235 37.2988L105.109 37.3659ZM105.277 37.282L105.361 37.2401L105.277 37.282ZM107.005 38.817C107.002 38.7975 107.002 38.7777 107.005 38.7583C106.994 38.7738 106.986 38.7908 106.98 38.8086L107.005 38.817ZM103.793 39.1357C103.793 39.1357 103.784 39.1022 103.784 39.1105L103.793 39.1357ZM103.793 39.2196L103.801 39.1944L103.793 39.2196Z" fill="#4B86A6"/>
</g>
<path d="M96.0111 22.3184L94.2077 30.7061C94.0172 32.1273 93.5067 33.4866 92.7147 34.6819C91.4565 36.6447 86.8433 39.1778 86.8433 39.1778L31.484 71.2777C31.484 71.2777 23.8344 75.1445 16.5706 71.5545C15.4131 70.9758 4.19864 64.7185 4.07282 64.6011C3.94701 64.4836 96.0111 22.3184 96.0111 22.3184Z" fill="#A84300"/>
<path d="M96.0072 22.3184L94.2039 30.7061C94.0133 32.1273 93.5028 33.4866 92.7108 34.6819C91.4527 36.6447 86.8394 39.1778 86.8394 39.1778L31.4802 71.2777C31.4802 71.2777 23.8305 75.1445 16.5667 71.5545C15.4092 70.9758 2.21528 63.6784 2.08108 63.561C1.94687 63.4436 96.0072 22.3184 96.0072 22.3184Z" fill="#8F3900"/>
<path d="M2.10017 63.5944C5.74046 65.6913 22.8767 64.4332 34.8125 57.5468L35.4415 57.1862L11.9558 45.0742C0.573599 51.9438 -1.47301 61.5226 2.10017 63.5944Z" fill="#F29B12"/>
<path d="M92.9499 17.8384L85.4596 13.5607C81.3831 11.2037 74.7652 11.2037 70.6887 13.5607L16.4367 44.738L14.6081 45.7865L13.9875 46.1471L40.3166 56.6235L92.9499 26.4275C97.0263 24.0454 97.0263 20.2206 92.9499 17.8384Z" fill="#F29B12"/>
<path d="M4.46421 53.5214C2.78665 55.8616 1.83884 58.3192 1.83884 60.2316C1.83884 60.9278 1.97304 62.1776 2.87053 62.748C3.18927 62.9241 4.50615 63.5196 8.28064 63.5196C16.9116 63.3598 25.3986 61.2796 33.1252 57.4301L33.2259 57.3714L13.3217 45.8047C9.85963 47.7258 6.84151 50.3552 4.46421 53.5214Z" fill="#F87928"/>
<path d="M94.8778 22.1326C94.8778 23.3236 94.039 24.4895 92.3614 25.4206L69.7145 38.43H69.6474L69.2532 38.6481L69.1273 38.7236L69.0099 38.7991L38.5288 56.3463L33.2277 57.3528L13.3235 45.8028L18.0207 45.115L71.283 14.5417C73.4001 13.4772 75.7368 12.9229 78.1064 12.9229C80.476 12.9229 82.8128 13.4772 84.9299 14.5417L92.3866 18.8446C93.997 19.7756 94.8778 20.9415 94.8778 22.1326Z" fill="#F0650E"/>
<g style="mix-blend-mode:multiply" opacity="0.3">
<path d="M17.821 46.3564L71.0665 15.7411C73.1836 14.6767 75.5203 14.1223 77.8899 14.1223C80.2595 14.1223 82.5963 14.6767 84.7134 15.7411L92.1701 20.044C93.705 20.8828 94.5774 22.0235 94.6864 23.1559C94.8275 22.833 94.9016 22.4849 94.9045 22.1326C94.9045 20.9415 94.0657 19.7756 92.3882 18.8446L84.9314 14.5417C82.8144 13.4772 80.4776 12.9229 78.108 12.9229C75.7384 12.9229 73.4016 13.4772 71.2846 14.5417L18.039 45.115L13.3419 45.8028L14.9523 46.7339L17.821 46.3564Z" fill="#F0650E"/>
</g>
<g style="mix-blend-mode:multiply" opacity="0.2">
<g style="mix-blend-mode:multiply" opacity="0.2">
<path d="M3.75825 61.0349C3.75825 59.0973 4.71446 56.6397 6.38362 54.3247C8.68688 51.2351 11.613 48.6633 14.9727 46.7757L13.3203 45.8027C9.85219 47.7219 6.82821 50.3515 4.44605 53.5195C2.7685 55.8597 1.82068 58.3173 1.82068 60.2297C1.82068 60.9259 1.95488 62.1757 2.85237 62.746C3.3418 62.9846 3.86526 63.1459 4.40411 63.2241C3.93296 62.5956 3.70371 61.8185 3.75825 61.0349Z" fill="#F87928"/>
</g>
</g>
<path d="M40.5524 37.4405L35.612 34.5718L38.3045 33.0117L43.2533 35.8887L40.5524 37.4405Z" fill="#F9F9F9"/>
<path d="M40.5608 40.2005L35.6204 37.3318L35.612 34.5723L40.5524 37.4409L40.5608 40.2005Z" fill="#DCDCDC"/>
<path d="M40.5479 37.4414L40.5563 40.201L43.2488 38.6492V35.8896L40.5479 37.4414Z" fill="#C3C3C3"/>
<path d="M40.5464 31.3027L40.538 35.4631L39.6238 35.9999L39.6322 31.8396L40.5464 31.3027Z" fill="#AFAFAF"/>
<path d="M39.6352 31.8396L39.6268 35.9999L38.6958 35.4631L38.7042 31.3027L39.6352 31.8396Z" fill="#DCDCDC"/>
<path d="M40.5558 31.3034L39.6415 31.8402L38.7104 31.3034L39.6331 30.7666L40.5558 31.3034Z" fill="#F9F9F9"/>
<path d="M27.0099 69.6159C23.7273 70.9469 20.2183 71.6305 16.6761 71.629C23.9148 75.1434 31.4973 71.3102 31.4973 71.3102L86.8566 39.2103C86.8566 39.2103 91.453 36.6939 92.728 34.7144C93.52 33.5191 94.0305 32.1598 94.221 30.7386L94.3301 30.2354C92.8783 31.351 91.3477 32.3601 89.7503 33.2549C89.7503 33.2549 43.5925 62.2934 27.0099 69.6159Z" fill="#025074"/>
<path d="M64.9028 23.0733L64.1395 22.6287L64.1311 20.9512L64.8944 21.3957L64.9028 23.0733Z" fill="#461D00"/>
<path d="M65.5904 20.1823L64.8271 19.7378C64.8994 19.6865 64.9838 19.6549 65.0721 19.6461C65.1603 19.6373 65.2493 19.6515 65.3304 19.6875L66.0853 20.132C66.0063 20.0932 65.9181 20.0774 65.8306 20.0863C65.7431 20.0952 65.6599 20.1285 65.5904 20.1823Z" fill="#5A2600"/>
<path d="M64.8944 21.3932L64.1311 20.9486C64.1439 20.7046 64.2144 20.4671 64.3369 20.2557C64.4594 20.0442 64.6303 19.8649 64.8357 19.7324L65.599 20.177C65.3936 20.3094 65.2227 20.4888 65.1002 20.7002C64.9777 20.9117 64.9072 21.1492 64.8944 21.3932Z" fill="#5A2600"/>
<path d="M65.5986 20.1797C65.9845 19.9532 66.3032 20.1797 66.3032 20.5823V22.2598L64.8941 23.0986V21.4211C64.9029 21.1727 64.9716 20.9302 65.0942 20.714C65.2169 20.4979 65.3899 20.3146 65.5986 20.1797Z" fill="#853800"/>
<path d="M80.1563 28.3172L66.0648 20.1391C66.0184 20.1195 65.9685 20.1094 65.918 20.1094C65.8676 20.1094 65.8177 20.1195 65.7712 20.1391L79.8627 28.3172C79.9567 28.2785 80.0622 28.2785 80.1563 28.3172Z" fill="#8C3800"/>
<path d="M79.8622 28.2826L65.7708 20.1045C65.7007 20.1245 65.6331 20.1527 65.5695 20.1884L79.6609 28.3581C79.7234 28.322 79.7914 28.2965 79.8622 28.2826Z" fill="#AF4600"/>
<path d="M79.661 28.3562L65.5696 20.1865L65.5025 20.2285L79.5939 28.3981L79.661 28.3562Z" fill="#AF4600"/>
<path d="M79.5947 28.3972L65.5032 20.2275C65.2347 20.4254 65.0375 20.705 64.9413 21.0244L79.0327 29.2024C79.1213 28.868 79.3191 28.5728 79.5947 28.3637V28.3972Z" fill="#D25400"/>
<path d="M79.0327 29.2035L64.9413 21.0254C64.9063 21.1311 64.8865 21.2412 64.8826 21.3525L78.974 29.5306C78.973 29.4188 78.993 29.3079 79.0327 29.2035Z" fill="#AF4600"/>
<path d="M78.9733 29.5296L64.8818 21.3516C64.8724 21.4369 64.8861 21.5232 64.9215 21.6015C64.9569 21.6797 65.0127 21.7469 65.0831 21.7961L79.1746 29.9742C79.1042 29.925 79.0483 29.8578 79.0129 29.7795C78.9775 29.7013 78.9638 29.615 78.9733 29.5296Z" fill="#8C3800"/>
<path d="M79.6577 28.357C79.4558 28.4877 79.288 28.6647 79.1684 28.8734C79.0488 29.082 78.9807 29.3162 78.9699 29.5565C78.9699 30.001 79.2802 30.1772 79.6661 29.9591C79.8652 29.8254 80.0308 29.6477 80.1501 29.4397C80.2694 29.2317 80.3391 28.999 80.3539 28.7596C80.3539 28.3151 80.0435 28.1389 79.6577 28.357Z" fill="#833400"/>
<path d="M72.8767 25.4814L26.3246 52.5151H26.2491L72.6503 25.5485C72.6792 25.519 72.7152 25.4973 72.7548 25.4856C72.7944 25.4739 72.8364 25.4724 72.8767 25.4814Z" fill="#8C3800"/>
<path d="M72.9669 25.5402L26.4399 52.5739L26.3225 52.5152L72.8746 25.4814C72.9084 25.4958 72.9395 25.5157 72.9669 25.5402Z" fill="#AF4600"/>
<path d="M73.0138 25.5613L26.4953 52.5951H26.4449L72.9719 25.5613C72.9719 25.5613 72.997 25.553 73.0138 25.5613Z" fill="#AF4600"/>
<path d="M73.3755 26.0734L27.1506 52.9142L26.4963 52.5787L73.0148 25.5449C73.1903 25.6763 73.3171 25.8621 73.3755 26.0734Z" fill="#D25400"/>
<path d="M73.4198 26.283L27.371 53.0651L27.1529 52.9561L73.3779 26.1152C73.397 26.1697 73.4111 26.2259 73.4198 26.283Z" fill="#AF4600"/>
<path d="M73.4181 26.2842C73.4251 26.3396 73.4163 26.3958 73.3925 26.4463C73.3687 26.4968 73.331 26.5395 73.2839 26.5694L27.5873 53.1502L27.3693 53.0663L73.4181 26.2842Z" fill="#8C3800"/>
<path d="M70.897 24.478L24.3784 51.5034H24.3029L70.7041 24.5367C70.7594 24.495 70.8278 24.4742 70.897 24.478Z" fill="#8C3800"/>
<path d="M71.0207 24.5456L24.4937 51.5626L24.3763 51.5039L70.8948 24.4785L71.0207 24.5456Z" fill="#AF4600"/>
<path d="M71.0676 24.5459L24.5491 51.588H24.4987L71.0257 24.5459H71.0676Z" fill="#AF4600"/>
<path d="M71.4293 25.0659L25.2044 51.9068L24.5501 51.5629L71.0686 24.5459C71.2425 24.6751 71.3692 24.8578 71.4293 25.0659Z" fill="#D25400"/>
<path d="M71.4736 25.2763L25.4248 52.0417L25.2067 51.9326L71.4317 25.0918C71.4513 25.1519 71.4653 25.2137 71.4736 25.2763Z" fill="#AF4600"/>
<path d="M71.4719 25.2754C71.479 25.3308 71.4701 25.387 71.4463 25.4375C71.4226 25.488 71.3849 25.5307 71.3377 25.5606L25.6244 52.1498L25.4231 52.0407L71.4719 25.2754Z" fill="#8C3800"/>
<path d="M68.7974 23.3909L22.2872 50.4163H22.2034L68.6129 23.4413C68.6661 23.4024 68.7318 23.3845 68.7974 23.3909Z" fill="#8C3800"/>
<path d="M68.9357 23.4419L22.4088 50.4757L22.2914 50.417L68.8015 23.3916L68.9357 23.4419Z" fill="#AF4600"/>
<path d="M68.9722 23.4678L22.4453 50.5015L68.9722 23.4678Z" fill="#AF4600"/>
<path d="M69.3329 23.9802L23.1079 50.821L22.4453 50.4771L68.9722 23.4434C69.1443 23.5813 69.2702 23.7687 69.3329 23.9802Z" fill="#D25400"/>
<path d="M69.3677 24.1988L23.3189 50.9557L23.1092 50.8467L69.3342 24.0059C69.355 24.0681 69.3663 24.1332 69.3677 24.1988Z" fill="#AF4600"/>
<path d="M69.3671 24.1992C69.3715 24.2535 69.3623 24.308 69.3403 24.3578C69.3184 24.4076 69.2843 24.4511 69.2413 24.4844L23.528 51.0652L23.3183 50.9562L69.3671 24.1992Z" fill="#8C3800"/>
<path d="M53.1314 44.8389L48.1826 41.9619L50.8835 40.4102L55.8323 43.2788L53.1314 44.8389Z" fill="#F9F9F9"/>
<path d="M53.1398 47.5985L48.1994 44.7215L48.1826 41.9619L53.1314 44.8389L53.1398 47.5985Z" fill="#DCDCDC"/>
<path d="M53.1331 44.8394L53.1414 47.599L55.8339 46.0473V43.2793L53.1331 44.8394Z" fill="#C3C3C3"/>
<path d="M54.4791 39.4453L54.4707 43.6056L53.5565 44.1425L53.5648 39.9821L54.4791 39.4453Z" fill="#AFAFAF"/>
<path d="M53.5632 39.9821L53.5548 44.1425L52.6321 43.6056L52.6405 39.4453L53.5632 39.9821Z" fill="#DCDCDC"/>
<path d="M54.4837 39.446L53.5694 39.9828L52.6468 39.446L53.5611 38.9092L54.4837 39.446Z" fill="#F9F9F9"/>
<path d="M25.2755 45.0127V45.8515C25.2684 45.879 25.2684 45.9078 25.2755 45.9353V45.0966C25.2716 45.0687 25.2716 45.0405 25.2755 45.0127Z" fill="#8C3800"/>
<path d="M25.2932 45.0977V45.9364C25.3275 46.0077 25.3832 46.0663 25.4526 46.1042L25.5533 46.1545V45.3157L25.4526 45.2738C25.3784 45.2357 25.3193 45.1736 25.2849 45.0977H25.2932Z" fill="#8C3800"/>
<path d="M25.5966 45.332V46.1708C25.7485 46.2048 25.906 46.2048 26.0579 46.1708V45.332C25.9088 45.3656 25.7541 45.3656 25.605 45.332H25.5966Z" fill="#A84300"/>
<path d="M26.0489 45.3656V46.2043C26.1521 46.1893 26.2517 46.1552 26.3424 46.1037C26.3938 46.0811 26.4381 46.045 26.4706 45.9992C26.5031 45.9534 26.5226 45.8996 26.527 45.8437V45.0049C26.5217 45.0606 26.5019 45.114 26.4695 45.1596C26.4371 45.2053 26.3933 45.2416 26.3424 45.2649C26.2469 45.3105 26.1451 45.3416 26.0405 45.3572L26.0489 45.3656Z" fill="#702D00"/>
<path d="M25.4535 44.7539C25.4002 44.7733 25.3541 44.8087 25.3216 44.8552C25.289 44.9018 25.2716 44.9571 25.2716 45.0139C25.2716 45.0707 25.289 45.1261 25.3216 45.1726C25.3541 45.2191 25.4002 45.2545 25.4535 45.2739C25.5912 45.3439 25.7435 45.3804 25.898 45.3804C26.0525 45.3804 26.2048 45.3439 26.3426 45.2739C26.3959 45.2545 26.442 45.2191 26.4745 45.1726C26.507 45.1261 26.5245 45.0707 26.5245 45.0139C26.5245 44.9571 26.507 44.9018 26.4745 44.8552C26.442 44.8087 26.3959 44.7733 26.3426 44.7539C26.2043 44.6858 26.0522 44.6504 25.898 44.6504C25.7439 44.6504 25.5918 44.6858 25.4535 44.7539Z" fill="#7D3200"/>
<path d="M23.9257 44.2369V45.0757C23.9216 45.1007 23.9216 45.1262 23.9257 45.1512V44.3124C23.9218 44.2846 23.9218 44.2563 23.9257 44.2285V44.2369Z" fill="#8C3800"/>
<path d="M23.9409 44.3213V45.1601C23.9754 45.236 24.0345 45.2981 24.1087 45.3362L24.2094 45.3865V44.5478H24.1171C24.0447 44.5073 23.9862 44.4459 23.9493 44.3716L23.9409 44.3213Z" fill="#8C3800"/>
<path d="M24.2213 44.5391V45.3778V44.5391H24.1794H24.2213Z" fill="#A84300"/>
<path d="M24.2197 44.5557V45.3944C24.3688 45.428 24.5236 45.428 24.6727 45.3944V44.5557C24.5236 44.5895 24.3688 44.5895 24.2197 44.5557Z" fill="#A84300"/>
<path d="M24.7002 44.5892V45.428C24.8064 45.414 24.9089 45.3798 25.0022 45.3273C25.0536 45.3047 25.0979 45.2686 25.1304 45.2228C25.1629 45.177 25.1824 45.1233 25.1867 45.0673V44.2285C25.1799 44.2838 25.1595 44.3365 25.1273 44.3819C25.0951 44.4272 25.0521 44.4639 25.0022 44.4885C24.9063 44.533 24.8046 44.5641 24.7002 44.5808V44.5892Z" fill="#702D00"/>
<path d="M24.1191 43.9756C24.0657 43.9951 24.0197 44.0304 23.9872 44.077C23.9546 44.1235 23.9372 44.1789 23.9372 44.2356C23.9372 44.2924 23.9546 44.3478 23.9872 44.3943C24.0197 44.4408 24.0657 44.4762 24.1191 44.4956C24.2579 44.5619 24.4098 44.5963 24.5636 44.5963C24.7175 44.5963 24.8693 44.5619 25.0082 44.4956C25.0615 44.4762 25.1075 44.4408 25.1401 44.3943C25.1726 44.3478 25.1901 44.2924 25.1901 44.2356C25.1901 44.1789 25.1726 44.1235 25.1401 44.077C25.1075 44.0304 25.0615 43.9951 25.0082 43.9756C24.8704 43.9056 24.7181 43.8691 24.5636 43.8691C24.4091 43.8691 24.2568 43.9056 24.1191 43.9756Z" fill="#7D3200"/>
<path d="M39.1207 53.067V53.9058C39.113 53.9303 39.113 53.9567 39.1207 53.9812V53.1425C39.1168 53.1146 39.1168 53.0864 39.1207 53.0586V53.067Z" fill="#8C3800"/>
<path d="M39.1369 53.1338V53.9726C39.1681 54.048 39.2244 54.1102 39.2963 54.1487L39.397 54.199V53.3603H39.3047C39.2323 53.3198 39.1738 53.2584 39.1369 53.1841V53.1338Z" fill="#8C3800"/>
<path d="M39.4414 53.3691V54.2079C39.5874 54.2554 39.7421 54.2698 39.8943 54.2499V53.4111C39.7452 53.4449 39.5905 53.4449 39.4414 53.4111V53.3691Z" fill="#A84300"/>
<path d="M39.8962 53.4019V54.2407C40.0024 54.2267 40.1049 54.1926 40.1982 54.14C40.2496 54.1174 40.2939 54.0813 40.3264 54.0355C40.3589 53.9897 40.3784 53.936 40.3827 53.88V53.0664C40.376 53.1217 40.3555 53.1743 40.3233 53.2197C40.2911 53.2651 40.2481 53.3018 40.1982 53.3264C40.1023 53.3709 40.0007 53.402 39.8962 53.4187V53.4019Z" fill="#702D00"/>
<path d="M39.329 52.791C39.2757 52.8105 39.2296 52.8459 39.1971 52.8924C39.1645 52.9389 39.1471 52.9943 39.1471 53.0511C39.1471 53.1078 39.1645 53.1632 39.1971 53.2097C39.2296 53.2562 39.2757 53.2916 39.329 53.3111C39.4678 53.3774 39.6197 53.4118 39.7735 53.4118C39.9274 53.4118 40.0793 53.3774 40.2181 53.3111C40.2714 53.2916 40.3175 53.2562 40.35 53.2097C40.3825 53.1632 40.4 53.1078 40.4 53.0511C40.4 52.9943 40.3825 52.9389 40.35 52.8924C40.3175 52.8459 40.2714 52.8105 40.2181 52.791C40.0804 52.721 39.928 52.6846 39.7735 52.6846C39.619 52.6846 39.4667 52.721 39.329 52.791Z" fill="#7D3200"/>
<path d="M37.7941 52.2701V53.1089C37.7902 53.1339 37.7902 53.1594 37.7941 53.1844V52.3456C37.7902 52.3178 37.7902 52.2895 37.7941 52.2617V52.2701Z" fill="#8C3800"/>
<path d="M37.8095 52.3545V53.1933C37.8439 53.2693 37.903 53.3313 37.9773 53.3694L38.0779 53.4197V52.581C38.0447 52.5693 38.0135 52.5523 37.9857 52.5306C37.9124 52.4952 37.8533 52.4361 37.8179 52.3629L37.8095 52.3545Z" fill="#8C3800"/>
<path d="M38.114 52.5889V53.4276C38.2631 53.4612 38.4178 53.4612 38.5669 53.4276V52.5889C38.4174 52.6187 38.2635 52.6187 38.114 52.5889Z" fill="#A84300"/>
<path d="M38.5688 52.6224V53.4612C38.6749 53.4472 38.7774 53.413 38.8707 53.3605C38.9221 53.3379 38.9665 53.3018 38.999 53.256C39.0315 53.2102 39.0509 53.1565 39.0553 53.1005V52.2617C39.0487 52.3171 39.0273 52.3697 38.9934 52.414C38.9594 52.4583 38.9142 52.4926 38.8624 52.5133C38.7716 52.5649 38.6721 52.599 38.5688 52.614V52.6224Z" fill="#702D00"/>
<path d="M37.9738 52.0111C37.9194 52.0284 37.872 52.0625 37.8384 52.1084C37.8047 52.1544 37.7866 52.21 37.7866 52.2669C37.7866 52.3239 37.8047 52.3795 37.8384 52.4254C37.872 52.4714 37.9194 52.5055 37.9738 52.5228C38.1044 52.5865 38.2478 52.6197 38.3931 52.6197C38.5385 52.6197 38.6819 52.5865 38.8125 52.5228C38.8669 52.5055 38.9143 52.4714 38.9479 52.4254C38.9816 52.3795 38.9997 52.3239 38.9997 52.2669C38.9997 52.21 38.9816 52.1544 38.9479 52.1084C38.9143 52.0625 38.8669 52.0284 38.8125 52.0111C38.6814 51.9491 38.5382 51.917 38.3931 51.917C38.2481 51.917 38.1049 51.9491 37.9738 52.0111Z" fill="#7D3200"/>
<path d="M42.8541 34.1783V35.0171C42.8502 35.0421 42.8502 35.0676 42.8541 35.0926V34.2538C42.8462 34.2264 42.8462 34.1973 42.8541 34.1699V34.1783Z" fill="#8C3800"/>
<path d="M42.8702 34.2627V35.1015C42.9046 35.1775 42.9637 35.2395 43.0379 35.2776L43.1302 35.3279V34.4892L43.0295 34.4472C42.9592 34.4067 42.9035 34.3451 42.8702 34.2711V34.2627Z" fill="#8C3800"/>
<path d="M43.1647 34.4971V35.3358C43.3138 35.3697 43.4685 35.3697 43.6176 35.3358V34.4971C43.4657 34.531 43.3082 34.531 43.1563 34.4971H43.1647Z" fill="#A84300"/>
<path d="M43.6295 34.5306V35.3694C43.7328 35.3544 43.8323 35.3202 43.9231 35.2687C43.9755 35.2466 44.0211 35.2108 44.055 35.165C44.0889 35.1193 44.11 35.0653 44.116 35.0087V34.1699C44.1108 34.2256 44.0909 34.279 44.0586 34.3247C44.0262 34.3703 43.9823 34.4066 43.9314 34.4299C43.8389 34.4756 43.7399 34.5067 43.6379 34.5222L43.6295 34.5306Z" fill="#702D00"/>
<path d="M43.0372 33.9202C42.9838 33.9396 42.9378 33.975 42.9052 34.0215C42.8727 34.068 42.8553 34.1234 42.8553 34.1802C42.8553 34.237 42.8727 34.2923 42.9052 34.3389C42.9378 34.3854 42.9838 34.4208 43.0372 34.4402C43.176 34.5065 43.3279 34.5409 43.4817 34.5409C43.6355 34.5409 43.7874 34.5065 43.9263 34.4402C43.9796 34.4208 44.0256 34.3854 44.0582 34.3389C44.0907 34.2923 44.1082 34.237 44.1082 34.1802C44.1082 34.1234 44.0907 34.068 44.0582 34.0215C44.0256 33.975 43.9796 33.9396 43.9263 33.9202C43.7891 33.8482 43.6366 33.8105 43.4817 33.8105C43.3268 33.8105 43.1743 33.8482 43.0372 33.9202Z" fill="#7D3200"/>
<path d="M41.5125 33.3961V34.2349C41.5085 34.2599 41.5085 34.2853 41.5125 34.3103V33.4716C41.5083 33.4438 41.5083 33.4155 41.5125 33.3877V33.3961Z" fill="#8C3800"/>
<path d="M41.5214 33.4805V34.3192C41.5533 34.3969 41.6132 34.4597 41.6892 34.4954L41.7814 34.5457V33.7069H41.6808C41.6084 33.6665 41.5499 33.6051 41.513 33.5308L41.5214 33.4805Z" fill="#8C3800"/>
<path d="M41.8358 33.7148V34.5536C41.9877 34.5876 42.1452 34.5876 42.2971 34.5536V33.7736C42.1476 33.803 41.9938 33.803 41.8442 33.7736L41.8358 33.7148Z" fill="#A84300"/>
<path d="M42.277 33.7728V34.6116C42.3803 34.5966 42.4799 34.5624 42.5706 34.5109C42.622 34.4883 42.6663 34.4522 42.6988 34.4064C42.7313 34.3606 42.7508 34.3069 42.7551 34.2509V33.4121C42.7511 33.4672 42.7317 33.52 42.6991 33.5645C42.6664 33.609 42.6219 33.6434 42.5706 33.6637C42.4773 33.7163 42.3748 33.7504 42.2686 33.7644L42.277 33.7728Z" fill="#702D00"/>
<path d="M41.6995 33.1377C41.6462 33.1572 41.6002 33.1925 41.5676 33.2391C41.5351 33.2856 41.5176 33.341 41.5176 33.3977C41.5176 33.4545 41.5351 33.5099 41.5676 33.5564C41.6002 33.6029 41.6462 33.6383 41.6995 33.6577C41.8378 33.7258 41.9899 33.7612 42.1441 33.7612C42.2982 33.7612 42.4503 33.7258 42.5886 33.6577C42.643 33.6405 42.6904 33.6064 42.724 33.5604C42.7577 33.5144 42.7758 33.4589 42.7758 33.4019C42.7758 33.3449 42.7577 33.2894 42.724 33.2434C42.6904 33.1974 42.643 33.1633 42.5886 33.1461C42.4522 33.0728 42.3 33.0337 42.1451 33.0323C41.9903 33.0308 41.8373 33.067 41.6995 33.1377Z" fill="#7D3200"/>
<path d="M49.225 30.5117V31.3505C49.2219 31.3784 49.2219 31.4065 49.225 31.4344V30.5956C49.2161 30.5684 49.2161 30.539 49.225 30.5117Z" fill="#8C3800"/>
<path d="M49.2403 30.5947V31.4335C49.2781 31.505 49.3366 31.5635 49.4081 31.6013L49.5003 31.6516V30.8128H49.4081C49.3321 30.7771 49.2722 30.7143 49.2403 30.6367V30.5947Z" fill="#8C3800"/>
<path d="M49.5044 30.8135V31.6523H49.5464V30.8135H49.5044Z" fill="#A84300"/>
<path d="M49.5348 30.8301V31.6689C49.6807 31.7166 49.8355 31.731 49.9878 31.7108V30.872C49.8359 30.906 49.6783 30.906 49.5264 30.872L49.5348 30.8301Z" fill="#A84300"/>
<path d="M49.9996 30.864V31.7028C50.1054 31.6871 50.2076 31.6531 50.3016 31.6021C50.3518 31.5802 50.3954 31.5454 50.4278 31.5012C50.4602 31.457 50.4803 31.405 50.4861 31.3505V30.5117C50.4809 30.5674 50.4611 30.6208 50.4287 30.6665C50.3963 30.7121 50.3525 30.7484 50.3016 30.7717C50.2122 30.8248 50.1117 30.8564 50.008 30.864H49.9996Z" fill="#702D00"/>
<path d="M49.3931 30.2611C49.3388 30.2784 49.2914 30.3125 49.2577 30.3584C49.2241 30.4044 49.2059 30.46 49.2059 30.5169C49.2059 30.5739 49.2241 30.6295 49.2577 30.6754C49.2914 30.7214 49.3388 30.7555 49.3931 30.7728C49.5237 30.8365 49.6672 30.8697 49.8125 30.8697C49.9579 30.8697 50.1013 30.8365 50.2319 30.7728C50.4835 30.6302 50.4835 30.3953 50.2319 30.2611C50.1008 30.1991 49.9575 30.167 49.8125 30.167C49.6675 30.167 49.5242 30.1991 49.3931 30.2611Z" fill="#7D3200"/>
<path d="M47.8885 29.7314V30.5702C47.8853 30.5981 47.8853 30.6262 47.8885 30.6541V29.8153C47.8796 29.7881 47.8796 29.7587 47.8885 29.7314Z" fill="#8C3800"/>
<path d="M47.9038 29.8164V30.6552C47.9416 30.7267 48.0001 30.7851 48.0716 30.8229L48.1638 30.8733V30.0345H48.0632C47.9913 29.996 47.9349 29.9337 47.9038 29.8583V29.8164Z" fill="#8C3800"/>
<path d="M48.2009 30.0508V30.8896C48.3468 30.9373 48.5017 30.9517 48.6539 30.9315V30.0927C48.5048 30.1263 48.35 30.1263 48.2009 30.0927V30.0508Z" fill="#A84300"/>
<path d="M48.6495 30.0843V30.9231C48.7527 30.9081 48.8523 30.874 48.943 30.8224C48.9962 30.8024 49.0422 30.7669 49.075 30.7206C49.1079 30.6743 49.1262 30.6192 49.1276 30.5624V29.7236C49.1224 29.7794 49.1026 29.8327 49.0702 29.8784C49.0378 29.924 48.9939 29.9603 48.943 29.9837C48.8491 30.0332 48.7467 30.0646 48.6411 30.0759L48.6495 30.0843Z" fill="#702D00"/>
<path d="M48.075 29.4724C48.0216 29.4919 47.9756 29.5272 47.9431 29.5738C47.9105 29.6203 47.8931 29.6757 47.8931 29.7324C47.8931 29.7892 47.9105 29.8446 47.9431 29.8911C47.9756 29.9376 48.0216 29.973 48.075 29.9924C48.2127 30.0624 48.365 30.0989 48.5195 30.0989C48.674 30.0989 48.8263 30.0624 48.9641 29.9924C49.0184 29.9752 49.0658 29.9411 49.0995 29.8951C49.1331 29.8491 49.1513 29.7936 49.1513 29.7366C49.1513 29.6796 49.1331 29.6241 49.0995 29.5781C49.0658 29.5321 49.0184 29.498 48.9641 29.4808C48.8268 29.4101 48.6749 29.3726 48.5205 29.3711C48.3661 29.3697 48.2136 29.4044 48.075 29.4724Z" fill="#7D3200"/>
<path d="M56.6523 42.1611V42.9999C56.6476 43.0277 56.6476 43.056 56.6523 43.0838V42.245C56.6486 42.2172 56.6486 42.189 56.6523 42.1611Z" fill="#8C3800"/>
<path d="M56.6608 42.2685V43.1073C56.6927 43.1849 56.7526 43.2478 56.8285 43.2834H56.9208V42.4446L56.8202 42.3943C56.7503 42.3543 56.6924 42.2964 56.6524 42.2266L56.6608 42.2685Z" fill="#8C3800"/>
<path d="M56.9312 42.4971V43.3358C57.0831 43.3695 57.2406 43.3695 57.3925 43.3358V42.4971C57.2434 42.5306 57.0887 42.5306 56.9396 42.4971H56.9312Z" fill="#A84300"/>
<path d="M57.4164 42.5386V43.3774C57.5201 43.3698 57.6206 43.3382 57.71 43.2851C57.7609 43.2618 57.8047 43.2255 57.8371 43.1798C57.8695 43.1342 57.8893 43.0808 57.8945 43.0251V42.1611C57.8911 42.2174 57.872 42.2715 57.8394 42.3175C57.8068 42.3634 57.7619 42.3993 57.71 42.4212C57.6167 42.4737 57.5142 42.5078 57.408 42.5218L57.4164 42.5386Z" fill="#702D00"/>
<path d="M56.8412 41.928C56.5896 42.0706 56.5896 42.297 56.8412 42.4396C56.979 42.5096 57.1313 42.5461 57.2858 42.5461C57.4403 42.5461 57.5926 42.5096 57.7303 42.4396C57.7846 42.4224 57.8321 42.3883 57.8657 42.3423C57.8994 42.2963 57.9175 42.2408 57.9175 42.1838C57.9175 42.1268 57.8994 42.0713 57.8657 42.0253C57.8321 41.9793 57.7846 41.9452 57.7303 41.928C57.5932 41.856 57.4406 41.8184 57.2858 41.8184C57.1309 41.8184 56.9783 41.856 56.8412 41.928Z" fill="#7D3200"/>
<path d="M55.3167 41.4082V42.247C55.3077 42.2742 55.3077 42.3036 55.3167 42.3309V41.4921C55.3135 41.4642 55.3135 41.4361 55.3167 41.4082Z" fill="#8C3800"/>
<path d="M55.3367 41.4912V42.3299C55.3678 42.4053 55.4241 42.4676 55.496 42.5061H55.5967V41.6673L55.496 41.617C55.4245 41.5792 55.3661 41.5207 55.3283 41.4492L55.3367 41.4912Z" fill="#8C3800"/>
<path d="M55.6364 41.7188V42.5575C55.7855 42.5911 55.9402 42.5911 56.0893 42.5575V41.7188C55.9402 41.7526 55.7855 41.7526 55.6364 41.7188Z" fill="#A84300"/>
<path d="M56.0949 41.7605V42.5993C56.2005 42.5879 56.303 42.5566 56.3969 42.507C56.4478 42.4837 56.4916 42.4474 56.524 42.4017C56.5564 42.3561 56.5762 42.3027 56.5814 42.247V41.4082C56.5754 41.4637 56.5553 41.5167 56.523 41.5622C56.4907 41.6077 56.4473 41.6442 56.3969 41.6682C56.3036 41.7207 56.2011 41.7549 56.0949 41.7689V41.7605Z" fill="#702D00"/>
<path d="M55.5021 41.1494C55.4478 41.1667 55.4003 41.2008 55.3667 41.2468C55.333 41.2928 55.3149 41.3483 55.3149 41.4053C55.3149 41.4623 55.333 41.5178 55.3667 41.5638C55.4003 41.6098 55.4478 41.6438 55.5021 41.6611C55.6398 41.7311 55.7921 41.7675 55.9466 41.7675C56.1011 41.7675 56.2534 41.7311 56.3912 41.6611C56.4455 41.6438 56.4929 41.6098 56.5266 41.5638C56.5602 41.5178 56.5784 41.4623 56.5784 41.4053C56.5784 41.3483 56.5602 41.2928 56.5266 41.2468C56.4929 41.2008 56.4455 41.1667 56.3912 41.1494C56.2534 41.0794 56.1011 41.043 55.9466 41.043C55.7921 41.043 55.6398 41.0794 55.5021 41.1494Z" fill="#7D3200"/>
<path d="M63.0809 38.5439V39.3827C63.0778 39.4106 63.0778 39.4387 63.0809 39.4666V38.6278C63.072 38.6006 63.072 38.5712 63.0809 38.5439Z" fill="#8C3800"/>
<path d="M63.0962 38.6289V39.4677C63.134 39.5392 63.1925 39.5976 63.264 39.6354L63.3562 39.6858V38.847H63.2556C63.1837 38.8085 63.1274 38.7462 63.0962 38.6708V38.6289Z" fill="#8C3800"/>
<path d="M63.3933 38.8633V39.7021C63.5424 39.7359 63.6972 39.7359 63.8463 39.7021V38.8633C63.6972 38.8968 63.5425 38.8968 63.3933 38.8633Z" fill="#A84300"/>
<path d="M63.8445 38.8968V39.7356C63.9478 39.7206 64.0473 39.6864 64.1381 39.6349C64.1911 39.6135 64.2371 39.578 64.2711 39.5321C64.3052 39.4862 64.3259 39.4318 64.331 39.3749V38.5361C64.3258 38.5919 64.306 38.6452 64.2736 38.6909C64.2412 38.7365 64.1973 38.7728 64.1465 38.7962C64.0526 38.8457 63.9501 38.8771 63.8445 38.8884V38.8968Z" fill="#702D00"/>
<path d="M63.2654 38.2878C63.2121 38.3073 63.166 38.3427 63.1335 38.3892C63.101 38.4357 63.0835 38.4911 63.0835 38.5479C63.0835 38.6046 63.101 38.66 63.1335 38.7065C63.166 38.753 63.2121 38.7884 63.2654 38.8079C63.4031 38.8779 63.5554 38.9143 63.7099 38.9143C63.8644 38.9143 64.0168 38.8779 64.1545 38.8079C64.3977 38.6653 64.4061 38.4304 64.1545 38.2962C64.0172 38.2256 63.8653 38.188 63.7109 38.1866C63.5566 38.1851 63.404 38.2198 63.2654 38.2878Z" fill="#7D3200"/>
<path d="M61.7348 37.7676V38.6064C61.7277 38.6339 61.7277 38.6627 61.7348 38.6902V37.8515C61.7348 37.8515 61.7348 37.8011 61.7348 37.7676Z" fill="#8C3800"/>
<path d="M61.7526 37.8525V38.6913C61.7874 38.7649 61.8467 38.8242 61.9203 38.8591L62.0126 38.9094V38.0706L61.912 38.0287C61.8377 37.9906 61.7786 37.9285 61.7442 37.8525H61.7526Z" fill="#8C3800"/>
<path d="M62.056 38.0869V38.9257C62.2048 38.9736 62.3623 38.9879 62.5173 38.9676V38.1289C62.3682 38.1624 62.2135 38.1624 62.0644 38.1289L62.056 38.0869Z" fill="#A84300"/>
<path d="M62.5082 38.1204V38.9592C62.6115 38.9442 62.711 38.9101 62.8018 38.8586C62.8537 38.8368 62.8985 38.8008 62.9312 38.7549C62.9638 38.7089 62.9829 38.6548 62.9863 38.5985V37.7598C62.9811 37.8155 62.9613 37.8689 62.9289 37.9145C62.8965 37.9602 62.8527 37.9965 62.8018 38.0198C62.7079 38.0694 62.6054 38.1007 62.4998 38.1121L62.5082 38.1204Z" fill="#702D00"/>
<path d="M61.9686 37.5078C61.9153 37.5273 61.8692 37.5626 61.8367 37.6092C61.8042 37.6557 61.7867 37.7111 61.7867 37.7678C61.7867 37.8246 61.8042 37.88 61.8367 37.9265C61.8692 37.973 61.9153 38.0084 61.9686 38.0278C62.1064 38.0978 62.2587 38.1343 62.4132 38.1343C62.5677 38.1343 62.72 38.0978 62.8577 38.0278C62.911 38.0084 62.9571 37.973 62.9896 37.9265C63.0222 37.88 63.0396 37.8246 63.0396 37.7678C63.0396 37.7111 63.0222 37.6557 62.9896 37.6092C62.9571 37.5626 62.911 37.5273 62.8577 37.5078C62.7198 37.4385 62.5675 37.4023 62.4132 37.4023C62.2588 37.4023 62.1065 37.4385 61.9686 37.5078Z" fill="#7D3200"/>
<path d="M56.6136 26.566V27.4048C56.6096 27.4298 56.6096 27.4553 56.6136 27.4803V26.6415C56.6097 26.6137 56.6097 26.5854 56.6136 26.5576V26.566Z" fill="#8C3800"/>
<path d="M56.6289 26.6503V27.4891C56.6633 27.5651 56.7224 27.6272 56.7967 27.6653H56.8973V26.8265C56.864 26.8148 56.8329 26.7978 56.805 26.7762C56.7318 26.7408 56.6727 26.6816 56.6373 26.6084L56.6289 26.6503Z" fill="#8C3800"/>
<path d="M56.9481 26.876V27.7148C57.0972 27.7483 57.2519 27.7483 57.401 27.7148V26.876C57.2519 26.9098 57.0971 26.9098 56.9481 26.876Z" fill="#A84300"/>
<path d="M57.3882 26.9177V27.7565C57.4946 27.749 57.5978 27.7174 57.6902 27.6642C57.7411 27.6409 57.7849 27.6046 57.8173 27.5589C57.8497 27.5133 57.8695 27.4599 57.8747 27.4042V26.5654C57.8689 26.6199 57.8488 26.6719 57.8164 26.7161C57.784 26.7603 57.7404 26.7951 57.6902 26.8171C57.5962 26.868 57.494 26.9021 57.3882 26.9177Z" fill="#702D00"/>
<path d="M56.7917 26.3028C56.7374 26.32 56.6899 26.3541 56.6563 26.4001C56.6226 26.4461 56.6045 26.5016 56.6045 26.5586C56.6045 26.6156 56.6226 26.6711 56.6563 26.7171C56.6899 26.7631 56.7374 26.7972 56.7917 26.8144C56.9294 26.8844 57.0817 26.9209 57.2362 26.9209C57.3907 26.9209 57.543 26.8844 57.6808 26.8144C57.7351 26.7972 57.7825 26.7631 57.8162 26.7171C57.8498 26.6711 57.868 26.6156 57.868 26.5586C57.868 26.5016 57.8498 26.4461 57.8162 26.4001C57.7825 26.3541 57.7351 26.32 57.6808 26.3028C57.543 26.2328 57.3907 26.1963 57.2362 26.1963C57.0817 26.1963 56.9294 26.2328 56.7917 26.3028Z" fill="#7D3200"/>
<path d="M55.2569 25.7848V26.6235C55.253 26.6485 55.253 26.674 55.2569 26.699V25.8602C55.2537 25.8324 55.2537 25.8042 55.2569 25.7764V25.7848Z" fill="#8C3800"/>
<path d="M55.2576 25.8691V26.7079C55.292 26.7838 55.3511 26.8459 55.4254 26.884C55.4587 26.8887 55.4926 26.8887 55.526 26.884V26.0452L55.4337 25.9949C55.3622 25.9571 55.3038 25.8986 55.266 25.8271L55.2576 25.8691Z" fill="#8C3800"/>
<path d="M55.5804 26.0947V26.9335C55.7295 26.9673 55.8842 26.9673 56.0333 26.9335V26.0947C55.8842 26.1286 55.7295 26.1286 55.5804 26.0947Z" fill="#A84300"/>
<path d="M56.0352 26.1365V26.9752C56.1416 26.9677 56.2448 26.9362 56.3372 26.883C56.3871 26.8583 56.4301 26.8217 56.4623 26.7763C56.4945 26.7309 56.515 26.6782 56.5217 26.623V25.7842C56.5177 25.8392 56.4983 25.892 56.4657 25.9365C56.433 25.981 56.3885 26.0155 56.3372 26.0358C56.2465 26.0873 56.1469 26.1215 56.0436 26.1365H56.0352Z" fill="#702D00"/>
<path d="M55.4541 25.5238C55.3997 25.5411 55.3523 25.5751 55.3187 25.6211C55.285 25.6671 55.2669 25.7227 55.2669 25.7796C55.2669 25.8366 55.285 25.8921 55.3187 25.9381C55.3523 25.9841 55.3997 26.0182 55.4541 26.0355C55.5847 26.0992 55.7281 26.1323 55.8735 26.1323C56.0188 26.1323 56.1622 26.0992 56.2928 26.0355C56.5445 25.8929 56.5445 25.6664 56.2928 25.5238C56.1617 25.4618 56.0185 25.4297 55.8735 25.4297C55.7284 25.4297 55.5852 25.4618 55.4541 25.5238Z" fill="#7D3200"/>
<path d="M62.9881 22.873V23.7118C62.981 23.7393 62.981 23.7682 62.9881 23.7957V22.9569C62.9834 22.9292 62.9834 22.9008 62.9881 22.873Z" fill="#8C3800"/>
<path d="M63.0048 22.9824V23.8212C63.039 23.8924 63.0948 23.9511 63.1641 23.989L63.2648 24.0393V23.2005H63.1725C63.0983 23.1624 63.0392 23.1003 63.0048 23.0244V22.9824Z" fill="#8C3800"/>
<path d="M63.3092 23.2158V24.0546C63.4552 24.1021 63.6099 24.1164 63.7621 24.0965V23.2578C63.6131 23.2916 63.4583 23.2916 63.3092 23.2578V23.2158Z" fill="#A84300"/>
<path d="M63.7641 23.2505V24.0893C63.8702 24.0753 63.9727 24.0411 64.066 23.9886C64.118 23.9668 64.1628 23.9309 64.1954 23.885C64.228 23.839 64.2471 23.7848 64.2506 23.7286V22.873C64.2438 22.9283 64.2234 22.981 64.1912 23.0264C64.1589 23.0718 64.1159 23.1084 64.066 23.1331C63.9721 23.1827 63.8697 23.214 63.7641 23.2253V23.2505Z" fill="#702D00"/>
<path d="M63.1652 22.6367C63.1119 22.6562 63.0659 22.6915 63.0333 22.7381C63.0008 22.7846 62.9833 22.84 62.9833 22.8967C62.9833 22.9535 63.0008 23.0089 63.0333 23.0554C63.0659 23.1019 63.1119 23.1373 63.1652 23.1567C63.303 23.2267 63.4553 23.2632 63.6098 23.2632C63.7643 23.2632 63.9166 23.2267 64.0543 23.1567C64.1077 23.1373 64.1537 23.1019 64.1862 23.0554C64.2188 23.0089 64.2362 22.9535 64.2362 22.8967C64.2362 22.84 64.2188 22.7846 64.1862 22.7381C64.1537 22.6915 64.1077 22.6562 64.0543 22.6367C63.916 22.5686 63.7639 22.5332 63.6098 22.5332C63.4556 22.5332 63.3035 22.5686 63.1652 22.6367Z" fill="#7D3200"/>
<path d="M61.6352 22.1168V22.9556C61.6313 22.9806 61.6313 23.006 61.6352 23.0311V22.1923C61.6313 22.1645 61.6313 22.1362 61.6352 22.1084V22.1168Z" fill="#8C3800"/>
<path d="M61.6506 22.2012V23.0399C61.685 23.1159 61.7441 23.178 61.8184 23.2161L61.919 23.2664V22.4276L61.8267 22.3857C61.7543 22.3453 61.6959 22.2839 61.659 22.2096L61.6506 22.2012Z" fill="#8C3800"/>
<path d="M61.9587 22.4355V23.2743C62.1047 23.3218 62.2594 23.3362 62.4116 23.3163V22.4775C62.2626 22.5113 62.1078 22.5113 61.9587 22.4775V22.4355Z" fill="#A84300"/>
<path d="M62.4099 22.4691V23.3078C62.516 23.2939 62.6185 23.2597 62.7118 23.2072C62.7632 23.1846 62.8076 23.1485 62.8401 23.1027C62.8725 23.0569 62.892 23.0032 62.8964 22.9472V22.1084C62.8896 22.1636 62.8692 22.2163 62.837 22.2617C62.8048 22.3071 62.7618 22.3438 62.7118 22.3684C62.6159 22.4129 62.5143 22.444 62.4099 22.4607V22.4691Z" fill="#702D00"/>
<path d="M61.8274 21.8565C61.7741 21.8759 61.728 21.9113 61.6955 21.9578C61.663 22.0043 61.6455 22.0597 61.6455 22.1165C61.6455 22.1732 61.663 22.2286 61.6955 22.2752C61.728 22.3217 61.7741 22.357 61.8274 22.3765C61.9662 22.4428 62.1181 22.4772 62.272 22.4772C62.4258 22.4772 62.5777 22.4428 62.7165 22.3765C62.7698 22.357 62.8159 22.3217 62.8484 22.2752C62.881 22.2286 62.8984 22.1732 62.8984 22.1165C62.8984 22.0597 62.881 22.0043 62.8484 21.9578C62.8159 21.9113 62.7698 21.8759 62.7165 21.8565C62.5788 21.7865 62.4265 21.75 62.272 21.75C62.1175 21.75 61.9651 21.7865 61.8274 21.8565Z" fill="#7D3200"/>
<path d="M70.4144 34.6146V35.4533C70.4097 35.4811 70.4097 35.5094 70.4144 35.5372V34.6146C70.4105 34.5895 70.4105 34.5641 70.4144 34.5391V34.6146Z" fill="#8C3800"/>
<path d="M70.4292 34.6138V35.4526C70.4636 35.5286 70.5228 35.5907 70.597 35.6287H70.6976V34.7899L70.6054 34.7396C70.5312 34.7016 70.472 34.6395 70.4376 34.5635L70.4292 34.6138Z" fill="#8C3800"/>
<path d="M70.7337 34.8818V35.7206C70.8828 35.7542 71.0375 35.7542 71.1866 35.7206V34.8818C71.0376 34.9157 70.8828 34.9157 70.7337 34.8818Z" fill="#A84300"/>
<path d="M71.1922 34.9255V35.7643C71.2978 35.7529 71.4003 35.7216 71.4942 35.672C71.5451 35.6487 71.5889 35.6124 71.6213 35.5668C71.6537 35.5211 71.6735 35.4677 71.6787 35.412V34.5732C71.6763 34.6298 71.6576 34.6844 71.6248 34.7305C71.5921 34.7766 71.5467 34.8123 71.4942 34.8333C71.4034 34.8848 71.3039 34.9189 71.2006 34.9339L71.1922 34.9255Z" fill="#702D00"/>
<path d="M70.5997 34.3129C70.5453 34.3301 70.4979 34.3642 70.4643 34.4102C70.4306 34.4562 70.4125 34.5117 70.4125 34.5687C70.4125 34.6257 70.4306 34.6812 70.4643 34.7272C70.4979 34.7732 70.5453 34.8073 70.5997 34.8245C70.7303 34.8883 70.8737 34.9214 71.0191 34.9214C71.1644 34.9214 71.3078 34.8883 71.4384 34.8245C71.6901 34.6819 71.6901 34.4555 71.4384 34.3129C71.3073 34.2509 71.1641 34.2188 71.0191 34.2188C70.874 34.2188 70.7308 34.2509 70.5997 34.3129Z" fill="#7D3200"/>
<path d="M69.0779 33.7773V34.6161C69.074 34.6439 69.074 34.6722 69.0779 34.7V33.8612C69.0702 33.8366 69.0702 33.8103 69.0779 33.7857V33.7773Z" fill="#8C3800"/>
<path d="M69.0941 33.8687V34.7075C69.1286 34.7834 69.1877 34.8455 69.2619 34.8836H69.3542V34.0448L69.2619 33.9945C69.1859 33.9588 69.1261 33.896 69.0941 33.8184V33.8687Z" fill="#8C3800"/>
<path d="M69.3886 34.1045V34.9433C69.5377 34.9771 69.6925 34.9771 69.8416 34.9433V34.1045C69.6897 34.1385 69.5321 34.1385 69.3802 34.1045H69.3886Z" fill="#A84300"/>
<path d="M69.8535 34.1464V34.9852C69.9579 34.9685 70.0595 34.9374 70.1554 34.8929C70.2107 34.8691 70.2586 34.8308 70.294 34.7821C70.3294 34.7334 70.3511 34.6761 70.3567 34.6161V33.7773C70.3515 33.8331 70.3317 33.8864 70.2993 33.9321C70.2669 33.9777 70.2231 34.014 70.1722 34.0374C70.0814 34.0889 69.9819 34.123 69.8786 34.138L69.8535 34.1464Z" fill="#702D00"/>
<path d="M69.2678 33.5326C69.0246 33.6752 69.0162 33.9017 69.2678 34.0443C69.3985 34.108 69.5419 34.1411 69.6872 34.1411C69.8326 34.1411 69.976 34.108 70.1066 34.0443C70.3582 33.9017 70.3582 33.6752 70.1066 33.5326C69.9755 33.4706 69.8323 33.4385 69.6872 33.4385C69.5422 33.4385 69.399 33.4706 69.2678 33.5326Z" fill="#7D3200"/>
<path d="M76.8336 30.9293V31.7681C76.8295 31.7931 76.8295 31.8186 76.8336 31.8436V31.0048C76.8297 30.977 76.8297 30.9487 76.8336 30.9209V30.9293Z" fill="#8C3800"/>
<path d="M76.8489 31.0127V31.8515C76.8833 31.9275 76.9424 31.9895 77.0167 32.0276L77.1173 32.0779V31.2559H77.025C76.9526 31.2155 76.8942 31.1541 76.8573 31.0798L76.8489 31.0127Z" fill="#8C3800"/>
<path d="M77.1534 31.2559V32.0946C77.2993 32.1421 77.4541 32.1565 77.6063 32.1366V31.2559C77.4572 31.2897 77.3024 31.2897 77.1534 31.2559Z" fill="#A84300"/>
<path d="M77.6082 31.2572V32.0959C77.7143 32.082 77.8168 32.0478 77.9101 31.9953C77.9615 31.9727 78.0059 31.9366 78.0384 31.8908C78.0709 31.845 78.0903 31.7912 78.0947 31.7353V30.8965C78.0879 30.9517 78.0675 31.0044 78.0353 31.0498C78.0031 31.0952 77.9601 31.1319 77.9101 31.1565C77.8142 31.201 77.7126 31.2321 77.6082 31.2488V31.2572Z" fill="#702D00"/>
<path d="M77.0186 30.6709C76.9653 30.6904 76.9192 30.7258 76.8867 30.7723C76.8542 30.8188 76.8367 30.8742 76.8367 30.9309C76.8367 30.9877 76.8542 31.0431 76.8867 31.0896C76.9192 31.1361 76.9653 31.1715 77.0186 31.191C77.1569 31.259 77.309 31.2944 77.4632 31.2944C77.6173 31.2944 77.7694 31.259 77.9077 31.191C77.961 31.1715 78.0071 31.1361 78.0396 31.0896C78.0722 31.0431 78.0896 30.9877 78.0896 30.9309C78.0896 30.8742 78.0722 30.8188 78.0396 30.7723C78.0071 30.7258 77.961 30.6904 77.9077 30.6709C77.77 30.6009 77.6177 30.5645 77.4632 30.5645C77.3087 30.5645 77.1563 30.6009 77.0186 30.6709Z" fill="#7D3200"/>
<path d="M75.5006 30.1529V30.9917C75.4966 31.0167 75.4966 31.0422 75.5006 31.0672V30.2284C75.4967 30.2006 75.4967 30.1724 75.5006 30.1445V30.1529Z" fill="#8C3800"/>
<path d="M75.516 30.2373V31.0761C75.5504 31.1521 75.6095 31.2142 75.6837 31.2522L75.7844 31.3026V30.4218H75.6921C75.6197 30.3814 75.5612 30.32 75.5244 30.2457L75.516 30.2373Z" fill="#8C3800"/>
<path d="M75.778 30.4219V31.2607V30.4219H75.7361H75.778Z" fill="#A84300"/>
<path d="M75.8204 30.4717V31.3105C75.9663 31.3582 76.1211 31.3726 76.2733 31.3524V30.5136C76.1238 30.5434 75.9699 30.5434 75.8204 30.5136V30.4717Z" fill="#A84300"/>
<path d="M76.2752 30.5052V31.344C76.3814 31.33 76.4839 31.2958 76.5772 31.2433C76.6276 31.2193 76.671 31.1828 76.7033 31.1373C76.7356 31.0918 76.7557 31.0388 76.7617 30.9833V30.1445C76.7577 30.1996 76.7383 30.2524 76.7057 30.2969C76.673 30.3414 76.6285 30.3758 76.5772 30.3962C76.4865 30.4477 76.3869 30.4818 76.2836 30.4968L76.2752 30.5052Z" fill="#702D00"/>
<path d="M75.6841 29.8922C75.6308 29.9117 75.5848 29.947 75.5522 29.9935C75.5197 30.0401 75.5022 30.0955 75.5022 30.1522C75.5022 30.209 75.5197 30.2644 75.5522 30.3109C75.5848 30.3574 75.6308 30.3928 75.6841 30.4122C75.821 30.4802 75.9717 30.5156 76.1245 30.5156C76.2773 30.5156 76.428 30.4802 76.5648 30.4122C76.6192 30.395 76.6666 30.3609 76.7002 30.3149C76.7339 30.2689 76.752 30.2134 76.752 30.1564C76.752 30.0994 76.7339 30.0439 76.7002 29.9979C76.6666 29.9519 76.6192 29.9178 76.5648 29.9006C76.4288 29.8307 76.2784 29.7935 76.1255 29.792C75.9726 29.7906 75.8214 29.8249 75.6841 29.8922Z" fill="#7D3200"/>
<path d="M33.2301 57.3534L39.1351 56.0029L40.3178 56.6236L34.2534 57.8566L33.2301 57.3534Z" fill="#F29B12"/>
<path d="M11.9553 45.0741L16.8118 44.5205L18.0365 45.116L13.3477 45.8038L11.9553 45.0741Z" fill="#F29B12"/>
<path d="M76.5329 32.8949L73.8739 34.4466L71.1982 32.8949L73.8572 31.3516L76.5329 32.8949Z" fill="#7D3200"/>
<path d="M37.0692 40.0668L34.4019 41.6185L31.7262 40.0668L34.3851 38.5234L37.0692 40.0668Z" fill="#7D3200"/>
<path d="M19.2863 59.2822L19.2695 60.2804L17.2984 61.4295L17.3235 60.423L19.2863 59.2822Z" fill="#AFAFAF"/>
<path d="M17.3223 60.423L17.2971 61.4295L15.3176 60.2804L15.3344 59.2822L17.3223 60.423Z" fill="#DCDCDC"/>
<path d="M19.2866 59.2819L17.3239 60.4227L15.336 59.2819L17.3071 58.1328L19.2866 59.2819Z" fill="#F9F9F9"/>
<path d="M24.0542 46.2305L24.029 47.237L22.0663 48.3777L22.083 47.3712L24.0542 46.2305Z" fill="#AFAFAF"/>
<path d="M22.0818 47.3712L22.0651 48.3777L20.0855 47.237L20.1023 46.2305L22.0818 47.3712Z" fill="#DCDCDC"/>
<path d="M24.0545 46.2306L22.0834 47.3713L20.1039 46.2306L22.075 45.0898L24.0545 46.2306Z" fill="#EDEDED"/>
<path d="M61.617 24.583L61.6002 25.5895L59.6291 26.7303L59.6543 25.7237L61.617 24.583Z" fill="#AFAFAF"/>
<path d="M59.6531 25.7237L59.6279 26.7303L57.6484 25.5895L57.6736 24.583L59.6531 25.7237Z" fill="#DCDCDC"/>
<path d="M61.6163 24.5831L59.6536 25.7239L57.6741 24.5831L59.6368 23.4424L61.6163 24.5831Z" fill="white"/>
<path d="M9.38499 58.7793L9.35983 59.7774L7.39709 60.9266L7.41387 59.92L9.38499 58.7793Z" fill="#AFAFAF"/>
<path d="M7.41267 59.92L7.39589 60.9266L5.41638 59.7774L5.43316 58.7793L7.41267 59.92Z" fill="#DCDCDC"/>
<path d="M9.38536 58.7794L7.41424 59.9201L5.43472 58.7794L7.40585 57.6387L9.38536 58.7794Z" fill="#F9F9F9"/>
<path d="M23.575 56.2295L18.6262 53.3525L21.3187 51.8008L26.2675 54.6778L23.575 56.2295Z" fill="#EDEDED"/>
<path d="M23.5834 57.2109L18.6346 54.3339L18.6262 53.3525L23.575 56.2295L23.5834 57.2109Z" fill="#DCDCDC"/>
<path d="M23.5721 56.2295L23.5805 57.2108L26.2646 55.6591V54.6777L23.5721 56.2295Z" fill="#C3C3C3"/>
<path d="M37.6365 54.8467V55.1906C37.6361 55.2796 37.619 55.3678 37.5862 55.4506V55.1067C37.6254 55.0257 37.6455 54.9367 37.6449 54.8467H37.6365Z" fill="#949494"/>
<path d="M37.5729 55.1064V55.4503C37.4633 55.6767 37.284 55.862 37.0612 55.9788C36.6291 56.2036 36.1474 56.3161 35.6605 56.3059V55.9536C36.1482 55.9711 36.6317 55.8582 37.0612 55.6265C37.2829 55.5149 37.4603 55.3316 37.5645 55.1064H37.5729Z" fill="#B2B2B2"/>
<path d="M35.6671 55.954V56.3063C35.1856 56.3148 34.7098 56.2023 34.2831 55.9791C34.1212 55.9038 33.9827 55.786 33.8823 55.6384C33.7819 55.4907 33.7233 55.3186 33.7127 55.1404V54.7881C33.7205 54.9671 33.778 55.1403 33.8787 55.2885C33.9795 55.4366 34.1195 55.5538 34.2831 55.6269C34.6915 55.8504 35.1512 55.9632 35.6167 55.954H35.6671Z" fill="#949494"/>
<path d="M37.0676 54.0411C37.8225 54.4857 37.8309 55.1902 37.0676 55.6264C36.644 55.8415 36.1756 55.9537 35.7004 55.9537C35.2253 55.9537 34.7569 55.8415 34.3332 55.6264C34.1684 55.5694 34.0255 55.4624 33.9243 55.3203C33.8232 55.1782 33.7688 55.0082 33.7688 54.8338C33.7688 54.6594 33.8232 54.4893 33.9243 54.3472C34.0255 54.2052 34.1684 54.0982 34.3332 54.0411C34.7569 53.826 35.2253 53.7139 35.7004 53.7139C36.1756 53.7139 36.644 53.826 37.0676 54.0411Z" fill="#CCCCCC"/>
<path d="M85.6554 21.8488L74.8101 15.5496L80.7234 12.1357L91.5688 18.435L85.6554 21.8488Z" fill="#EDEDED"/>
<path d="M85.6722 24.5331L74.8352 18.2255L74.8101 15.5498L85.6554 21.849L85.6722 24.5331Z" fill="#DCDCDC"/>
<path d="M85.6614 21.8474L85.6782 24.5315L91.5748 21.1261V18.4336L85.6614 21.8474Z" fill="#B3B3B3"/>
<path d="M83.9146 8.27649L87.1774 6.38086L88.402 17.8302L85.1392 19.7258L83.9146 8.27649Z" fill="#9C9C9C"/>
<path d="M85.8648 7.77344C85.4954 8.42714 85.2134 9.1265 85.026 9.8536C85.026 10.3736 85.3867 10.5833 85.8648 10.3233C86.1071 10.1706 86.3096 9.96241 86.4555 9.71591C86.6013 9.4694 86.6864 9.1917 86.7036 8.90579C86.6868 8.39413 85.8648 7.77344 85.8648 7.77344Z" fill="#22313F"/>
<path d="M78.3685 5.13099L81.6313 3.23535L87.1756 6.38076L83.9128 8.2764L78.3685 5.13099Z" fill="white"/>
<path d="M83.9137 8.27627L85.1383 19.7256L77.5725 15.4143L78.3693 5.13086L83.9137 8.27627Z" fill="#DCDCDC"/>
<path d="M69.3447 6.80176L69.3112 18.9892L68.3549 19.5428L68.3885 7.35535L69.3447 6.80176Z" fill="#B0B0B0"/>
<path d="M68.391 7.35535L68.3574 19.5428L67.4012 18.9892L67.4348 6.80176L68.391 7.35535Z" fill="#C7C7C7"/>
<path d="M69.343 6.80164L68.3868 7.35523L67.4306 6.80164L68.3868 6.24805L69.343 6.80164Z" fill="#CCCCCC"/>
<path d="M70.9427 9.43394L66.6062 6.87567L68.3341 5.86914L72.6789 8.4358L70.9427 9.43394Z" fill="white"/>
<path d="M70.9511 11.2796L66.6062 8.7129V6.87598L70.9427 9.43424L70.9511 11.2796Z" fill="#DCDCDC"/>
<path d="M70.9488 9.43467L70.9572 11.28L72.6851 10.2902V8.43652L70.9488 9.43467Z" fill="#C3C3C3"/>
<path d="M80.2524 14.8105L70.2709 9.01455L75.7146 5.86914L85.6876 11.6735L80.2524 14.8105Z" fill="white"/>
<path d="M80.2692 27.6523L70.2961 21.8479L70.2709 9.01465L80.2524 14.8106L80.2692 27.6523Z" fill="#DCDCDC"/>
<path d="M71.7463 12.1097L71.0082 11.6819V10.5244L71.7463 10.9522V12.1097Z" fill="#025074"/>
<path d="M71.7463 14.0058L71.0082 13.578V12.4121L71.7463 12.8399V14.0058Z" fill="#025074"/>
<path d="M71.7463 15.8919L71.0082 15.4642V14.3066L71.7463 14.726V15.8919Z" fill="#025074"/>
<path d="M71.7463 17.7786L71.0082 17.3593V16.1934L71.7463 16.6211V17.7786Z" fill="#025074"/>
<path d="M71.7464 19.6751L71.0082 19.2474V18.0898L71.7464 18.5092V19.6751Z" fill="#025074"/>
<path d="M71.7464 21.5628L71.0082 21.135V19.9775L71.7464 20.4053V21.5628Z" fill="#025074"/>
<path d="M73.4153 13.057L72.6772 12.6292V11.4717L73.4153 11.8911V13.057Z" fill="#025074"/>
<path d="M73.4153 14.9447L72.6772 14.5169V13.3594L73.4153 13.7872V14.9447Z" fill="#025074"/>
<path d="M73.4153 16.8398L72.6772 16.412V15.2461L73.4153 15.6739V16.8398Z" fill="#025074"/>
<path d="M73.4153 18.7279L72.6772 18.3001V17.1426L73.4153 17.5704V18.7279Z" fill="#025074"/>
<path d="M73.4153 20.623L72.6772 20.1952V19.0293L73.4153 19.4571V20.623Z" fill="#025074"/>
<path d="M73.4153 22.5101L72.6772 22.0823V20.9248L73.4153 21.3442V22.5101Z" fill="#025074"/>
<path d="M75.0513 14.0058L74.3131 13.578V12.4121L75.0513 12.8399V14.0058Z" fill="#025074"/>
<path d="M75.0513 15.8919L74.3131 15.4642V14.3066L75.0513 14.726V15.8919Z" fill="#025074"/>
<path d="M75.0513 17.7786L74.3131 17.3593V16.1934L75.0513 16.6211V17.7786Z" fill="#025074"/>
<path d="M75.0513 19.6751L74.3132 19.2474V18.0898L75.0513 18.5092V19.6751Z" fill="#025074"/>
<path d="M75.0513 21.5628L74.3132 21.135V19.9775L75.0513 20.4053V21.5628Z" fill="#025074"/>
<path d="M75.0513 23.4589L74.3132 23.0311V21.8652L75.0513 22.293V23.4589Z" fill="#025074"/>
<path d="M77.762 15.6318L77.0238 15.204V14.0381L77.762 14.4659V15.6318Z" fill="#025074"/>
<path d="M77.762 17.5199L77.0238 17.0921V15.9346L77.762 16.3623V17.5199Z" fill="#025074"/>
<path d="M77.762 19.4066L77.0238 18.9872V17.8213L77.762 18.2491V19.4066Z" fill="#025074"/>
<path d="M77.762 21.3021L77.0238 20.8743V19.7168L77.762 20.1362V21.3021Z" fill="#025074"/>
<path d="M77.762 23.1898L77.0238 22.762V21.6045L77.762 22.0323V23.1898Z" fill="#025074"/>
<path d="M77.762 25.0859L77.0238 24.6581V23.4922L77.762 23.92V25.0859Z" fill="#025074"/>
<path d="M79.1118 16.3792L78.3737 15.9515V14.7939L79.1118 15.2217V16.3792Z" fill="#025074"/>
<path d="M79.1118 18.2743L78.3737 17.8466V16.6807L79.1118 17.1084V18.2743Z" fill="#025074"/>
<path d="M79.1118 20.1624L78.3737 19.7347V18.5771L79.1118 18.9965V20.1624Z" fill="#025074"/>
<path d="M79.1118 22.0501L78.3737 21.6307V20.4648L79.1118 20.8926V22.0501Z" fill="#025074"/>
<path d="M79.1118 23.9443L78.3737 23.5165V22.3506L79.1118 22.7784V23.9443Z" fill="#025074"/>
<path d="M79.1118 25.8314L78.3737 25.4036V24.2461L79.1118 24.6739V25.8314Z" fill="#025074"/>
<path d="M80.2547 14.8118L80.2715 27.6535L85.69 24.5249V11.6748L80.2547 14.8118Z" fill="#B3B3B3"/>
<path d="M79.7522 11.6573L71.9683 7.12794L76.2125 4.67871L83.9964 9.2081L79.7522 11.6573Z" fill="white"/>
<path d="M79.7689 13.7552L71.9851 9.23424L71.9683 7.12891L79.7522 11.6583L79.7689 13.7552Z" fill="#DCDCDC"/>
<path d="M79.7522 11.6572L79.7689 13.7542L83.9964 11.3133V9.20801L79.7522 11.6572Z" fill="#C3C3C3"/>
<path d="M74.4418 8.78L72.2106 7.48828V9.09873L74.4418 10.3904V8.78Z" fill="#025074"/>
<path d="M76.9774 10.2321L74.7379 8.94043V10.5425L76.9774 11.8342V10.2321Z" fill="#025074"/>
<path d="M79.5231 11.7907L77.2836 10.499V12.1011L79.5231 13.3928V11.7907Z" fill="#025074"/>
<path d="M81.3588 12.5882L82.3737 12.0011V10.3906L81.3588 10.9778V12.5882Z" fill="#134663"/>
<path d="M82.6169 11.9177L83.6318 11.3306V9.72852L82.6169 10.3073V11.9177Z" fill="#134663"/>
<path d="M81.1197 11.1211L80.13 11.6831V13.2935L81.1197 12.7232V11.1211Z" fill="#134663"/>
<path d="M85.5869 16.3057L85.5533 28.4931L84.5971 29.0383L84.6307 16.8593L85.5869 16.3057Z" fill="#A3A3A3"/>
<path d="M84.6332 16.8593L84.5996 29.0383L83.6434 28.4931L83.677 16.3057L84.6332 16.8593Z" fill="#C7C7C7"/>
<path d="M85.5852 16.3055L84.629 16.8591L83.6728 16.3055L84.629 15.752L85.5852 16.3055Z" fill="#CCCCCC"/>
<path d="M84.6004 17.3783L80.2555 14.82L81.9834 13.8135L86.3282 16.3801L84.6004 17.3783Z" fill="white"/>
<path d="M84.6004 19.2239L80.2555 16.6572V14.8203L84.6004 17.3786V19.2239Z" fill="#DCDCDC"/>
<path d="M84.605 17.378V19.2233L86.3329 18.2336V16.3799L84.605 17.378Z" fill="#C2C2C2"/>
<path d="M78.183 3.16797V8.57808C78.1871 8.60025 78.1871 8.623 78.183 8.64518V3.23507C78.1868 3.21286 78.1868 3.19018 78.183 3.16797Z" fill="#949494"/>
<path d="M78.1638 3.23438V8.61093C78.1355 8.66456 78.0917 8.7084 78.038 8.73675C77.9338 8.78828 77.8188 8.81416 77.7025 8.81224V3.43568C77.8189 3.43862 77.9341 3.41268 78.038 3.36019C78.092 3.33228 78.1359 3.28832 78.1638 3.23438Z" fill="#B3B3B3"/>
<path d="M77.7017 3.43638V8.84648C77.5881 8.84838 77.4758 8.82247 77.3746 8.77099C77.3377 8.75279 77.3061 8.72555 77.2826 8.69182C77.2591 8.65808 77.2446 8.61895 77.2404 8.57807V3.16797C77.246 3.2084 77.2611 3.24694 77.2844 3.28046C77.3077 3.31397 77.3386 3.34152 77.3746 3.36089C77.4758 3.41236 77.5881 3.43828 77.7017 3.43638Z" fill="#DCDCDC"/>
<path d="M78.0385 2.97521C78.223 3.08425 78.223 3.25201 78.0385 3.36105C77.9351 3.41085 77.8219 3.43671 77.7072 3.43671C77.5925 3.43671 77.4792 3.41085 77.3759 3.36105C77.338 3.34494 77.3058 3.31806 77.2831 3.28376C77.2604 3.24946 77.2484 3.20925 77.2484 3.16813C77.2484 3.12702 77.2604 3.08681 77.2831 3.05251C77.3058 3.01821 77.338 2.99133 77.3759 2.97521C77.4781 2.92158 77.5918 2.89355 77.7072 2.89355C77.8226 2.89355 77.9363 2.92158 78.0385 2.97521Z" fill="#CCCCCC"/>
<path d="M79.5829 3.4205V3.6218C79.5675 3.78801 79.5081 3.94712 79.4108 4.08275C79.3135 4.21838 79.1818 4.32563 79.0293 4.39348C78.6131 4.60827 78.1515 4.72035 77.6831 4.72035C77.2147 4.72035 76.7531 4.60827 76.3369 4.39348C76.1821 4.32538 76.0484 4.21715 75.9496 4.07999C75.8508 3.94283 75.7905 3.78174 75.7749 3.61342V3.41211C75.7887 3.58096 75.8484 3.74283 75.9474 3.88029C76.0464 4.01775 76.1811 4.12558 76.3369 4.19217C76.7531 4.40696 77.2147 4.51904 77.6831 4.51904C78.1515 4.51904 78.6131 4.40696 79.0293 4.19217C79.1818 4.12433 79.3135 4.01707 79.4108 3.88144C79.5081 3.74581 79.5675 3.58671 79.5829 3.4205Z" fill="#C3C3C3"/>
<path d="M79.0487 2.63124C79.2051 2.69307 79.3394 2.80052 79.434 2.93963C79.5286 3.07873 79.5792 3.24307 79.5792 3.4113C79.5792 3.57952 79.5286 3.74386 79.434 3.88297C79.3394 4.02208 79.2051 4.12953 79.0487 4.19136C78.6324 4.40615 78.1708 4.51823 77.7025 4.51823C77.2341 4.51823 76.7725 4.40615 76.3562 4.19136C76.1998 4.12953 76.0655 4.02208 75.9709 3.88297C75.8763 3.74386 75.8257 3.57952 75.8257 3.4113C75.8257 3.24307 75.8763 3.07873 75.9709 2.93963C76.0655 2.80052 76.1998 2.69307 76.3562 2.63124C76.7737 2.42039 77.2348 2.31055 77.7025 2.31055C78.1701 2.31055 78.6312 2.42039 79.0487 2.63124Z" fill="white"/>
<path d="M77.9537 0.561523L78.1131 3.47208C78.118 3.49133 78.118 3.51154 78.1131 3.53079L77.9621 0.595075L77.9537 0.561523Z" fill="#949494"/>
<path d="M77.9496 0.594727L78.1006 3.53044C78.0786 3.58078 78.0401 3.62217 77.9916 3.64787C77.8986 3.69645 77.7944 3.71959 77.6896 3.71497V0.703767C77.7535 0.703738 77.8165 0.689409 77.8741 0.661829C77.9044 0.649077 77.9285 0.624995 77.9412 0.594727H77.9496Z" fill="#C3C3C3"/>
<path d="M77.6982 0.704691V3.7159C77.5964 3.71666 77.4959 3.69369 77.4046 3.6488C77.3696 3.63365 77.3394 3.60925 77.3172 3.57821C77.295 3.54718 77.2817 3.51068 77.2788 3.47265L77.4633 0.553711C77.4633 0.59565 77.4633 0.629202 77.5388 0.662753C77.5904 0.690452 77.648 0.704865 77.7066 0.704691H77.6982Z" fill="#DCDCDC"/>
<path d="M77.9115 0.450719C77.9343 0.457228 77.9543 0.470982 77.9686 0.4899C77.9828 0.508817 77.9906 0.53187 77.9906 0.555567C77.9906 0.579263 77.9828 0.602314 77.9686 0.621232C77.9543 0.64015 77.9343 0.653905 77.9115 0.660414C77.8572 0.689061 77.7967 0.704033 77.7353 0.704033C77.6739 0.704033 77.6135 0.689061 77.5592 0.660414C77.4585 0.601699 77.4585 0.509434 77.5592 0.450719C77.6139 0.423401 77.6742 0.40918 77.7353 0.40918C77.7965 0.40918 77.8568 0.423401 77.9115 0.450719Z" fill="white"/>
<path d="M13.6142 46.3652L13.7987 46.2562V44.8135L13.6226 44.9225L13.6142 46.3652Z" fill="#B3B3B3"/>
<path d="M13.6274 44.6364L13.8119 44.5274L13.5603 44.3848L13.3758 44.4854L13.6274 44.6364Z" fill="#EDEDED"/>
<path d="M14.6082 46.9433L14.7927 46.8343L14.8011 45.3916L14.6166 45.5006L14.6082 46.9433Z" fill="#B3B3B3"/>
<path d="M14.368 45.0642L14.5526 44.9635L13.8061 44.5273L13.6215 44.6364L14.368 45.0642Z" fill="#EDEDED"/>
<path d="M14.6214 45.2071L14.806 45.1065L14.5543 44.9639L14.3698 45.0645L14.6214 45.2071Z" fill="#EDEDED"/>
<path d="M15.6096 47.5141L15.7941 47.4134V45.9707L15.618 46.0714L15.6096 47.5141Z" fill="#B3B3B3"/>
<path d="M15.3657 45.6442L15.5503 45.5352L14.8038 45.1074L14.6192 45.2081L15.3657 45.6442Z" fill="#EDEDED"/>
<path d="M15.6192 45.7858L15.8037 45.6768L15.5521 45.5342L15.3675 45.6432L15.6192 45.7858Z" fill="#EDEDED"/>
<path d="M16.6073 48.0937L16.7919 47.9847V46.542L16.6157 46.651L16.6073 48.0937Z" fill="#B3B3B3"/>
<path d="M16.3671 46.222L16.5516 46.1129L15.8051 45.6768L15.6206 45.7858L16.3671 46.222Z" fill="#EDEDED"/>
<path d="M16.6132 46.3639L16.7893 46.2549L16.5461 46.1123L16.3616 46.2213L16.6132 46.3639Z" fill="#EDEDED"/>
<path d="M17.6014 48.6709L17.7859 48.5618V47.1191L17.6098 47.2282L17.6014 48.6709Z" fill="#B3B3B3"/>
<path d="M17.3611 46.7927L17.5457 46.692L16.7908 46.2559L16.6146 46.3649L17.3611 46.7927Z" fill="#EDEDED"/>
<path d="M17.6109 46.943L17.7954 46.834L17.5438 46.6914L17.3593 46.7921L17.6109 46.943Z" fill="#EDEDED"/>
<path d="M18.5991 49.2416L18.7836 49.1409V47.6982L18.6075 47.8073L18.5991 49.2416Z" fill="#B3B3B3"/>
<path d="M18.3625 47.3718L18.5471 47.2627L17.8006 46.835L17.616 46.944L18.3625 47.3718Z" fill="#EDEDED"/>
<path d="M18.6123 47.5124L18.7884 47.4033L18.5452 47.2607L18.3607 47.3698L18.6123 47.5124Z" fill="#EDEDED"/>
<path d="M19.6041 49.8203L19.7887 49.7112V48.2686L19.6125 48.3776L19.6041 49.8203Z" fill="#B3B3B3"/>
<path d="M19.3602 47.9495L19.5448 47.8405L18.7899 47.4043L18.6137 47.5133L19.3602 47.9495Z" fill="#EDEDED"/>
<path d="M19.61 48.0915L19.7861 47.9824L19.5429 47.8398L19.3584 47.9489L19.61 48.0915Z" fill="#EDEDED"/>
<path d="M20.6018 50.3994L20.7864 50.2904V48.8477L20.6102 48.9567L20.6018 50.3994Z" fill="#B3B3B3"/>
<path d="M20.3543 48.5202L20.5388 48.4196L19.7839 47.9834L19.6078 48.0924L20.3543 48.5202Z" fill="#EDEDED"/>
<path d="M20.6077 48.6622L20.7922 48.5615L20.5406 48.4189L20.3561 48.5196L20.6077 48.6622Z" fill="#EDEDED"/>
<path d="M21.5996 50.9682L21.7841 50.8675V49.4248L21.608 49.5338L21.5996 50.9682Z" fill="#B3B3B3"/>
<path d="M21.3557 49.0983L21.5402 48.9893L20.7937 48.5615L20.6092 48.6622L21.3557 49.0983Z" fill="#EDEDED"/>
<path d="M21.6091 49.2419L21.7852 49.1412L21.542 48.9902L21.3575 49.0993L21.6091 49.2419Z" fill="#EDEDED"/>
<path d="M22.5973 51.5482L22.7818 51.4476V50.0049L22.6056 50.1055L22.5973 51.5482Z" fill="#B3B3B3"/>
<path d="M22.3497 49.6774L22.5343 49.5684L21.7794 49.1406L21.6032 49.2413L22.3497 49.6774Z" fill="#EDEDED"/>
<path d="M22.5995 49.82L22.7756 49.7109L22.5324 49.5684L22.3478 49.6774L22.5995 49.82Z" fill="#EDEDED"/>
<path d="M23.5913 52.126L23.7758 52.0169V50.5742L23.5997 50.6833L23.5913 52.126Z" fill="#EDEDED"/>
<path d="M23.3548 50.2478L23.5393 50.1471L22.7844 49.7109L22.6083 49.82L23.3548 50.2478Z" fill="#EDEDED"/>
<path d="M23.606 50.6833L23.7821 50.5742V50.2891L23.606 50.3981V50.6833Z" fill="#EDEDED"/>
<path d="M13.3695 44.4844V44.7779L13.3611 46.2206L13.6127 46.3632L13.6211 44.9205L14.3676 45.3483L14.3592 46.791L14.6109 46.942L14.6192 45.4993L15.3658 45.9271L15.3574 47.3698L15.609 47.5124L15.6174 46.0697L16.3639 46.5058L16.3555 47.9485L16.6071 48.0911L16.6155 46.6484L17.362 47.0846L17.3537 48.5273L17.6053 48.6699L17.6137 47.2272L18.3602 47.655L18.3518 49.0976L18.6034 49.2402L18.6118 47.8059L19.3583 48.2337L19.3499 49.6764L19.6016 49.819L19.61 48.3763L20.3565 48.8125L20.3481 50.2552L20.5997 50.3977L20.6081 48.9551L21.3546 49.3828L21.3462 50.8255L21.5979 50.9681L21.6063 49.5338L22.3528 49.9616L22.3444 51.4043L22.596 51.5469L22.6044 50.1042L23.3509 50.5403L23.3425 51.983L23.5942 52.1256L23.6025 50.6829V50.3977L23.3509 50.2468L22.6044 49.819L22.3528 49.6764L21.6063 49.2402L21.3546 49.0976L20.6081 48.6615L20.3565 48.5189L19.61 48.0911L19.3583 47.9485L18.6118 47.5124L18.3602 47.3698L17.6137 46.942L17.362 46.791L16.6155 46.3632L16.3639 46.2206L15.6174 45.7845L15.3658 45.6419L14.6192 45.2057L14.3676 45.0631L13.6211 44.6354L13.3695 44.4844Z" fill="#DCDCDC"/>
<path d="M23.6008 50.3991L23.777 50.2901L23.5337 50.1475L23.3492 50.2481L23.6008 50.3991Z" fill="#EDEDED"/>
<path d="M23.5919 52.1289L23.7764 52.0198V50.5771L23.6002 50.6862L23.5919 52.1289Z" fill="#B3B3B3"/>
<path d="M23.6051 50.4001L23.7896 50.291L23.538 50.1484L23.3535 50.2491L23.6051 50.4001Z" fill="#EDEDED"/>
<path d="M24.5859 52.707L24.7704 52.598V51.1553L24.5943 51.2643L24.5859 52.707Z" fill="#B3B3B3"/>
<path d="M24.3457 50.8278L24.5303 50.7188L23.7837 50.291L23.5992 50.4001L24.3457 50.8278Z" fill="#EDEDED"/>
<path d="M24.5991 50.9704L24.7753 50.8697L24.532 50.7188L24.3475 50.8278L24.5991 50.9704Z" fill="#EDEDED"/>
<path d="M25.5873 53.2777L25.7718 53.1771V51.7344L25.5957 51.835L25.5873 53.2777Z" fill="#B3B3B3"/>
<path d="M25.3434 51.4079L25.528 51.2989L24.7731 50.8711L24.5969 50.9717L25.3434 51.4079Z" fill="#EDEDED"/>
<path d="M25.5968 51.5495L25.773 51.4404L25.5297 51.2979L25.3452 51.4069L25.5968 51.5495Z" fill="#EDEDED"/>
<path d="M26.585 53.8574L26.7696 53.7484V52.3057L26.5934 52.4147L26.585 53.8574Z" fill="#B3B3B3"/>
<path d="M26.3448 51.9772L26.5293 51.8766L25.7744 51.4404L25.5983 51.5495L26.3448 51.9772Z" fill="#EDEDED"/>
<path d="M26.5909 52.1276L26.7754 52.0186L26.5238 51.876L26.3393 51.9766L26.5909 52.1276Z" fill="#EDEDED"/>
<path d="M27.5791 54.4346L27.7636 54.3255V52.8828L27.5875 52.9919L27.5791 54.4346Z" fill="#B3B3B3"/>
<path d="M27.3388 52.5563L27.5234 52.4557L26.7768 52.0195L26.5923 52.1286L27.3388 52.5563Z" fill="#EDEDED"/>
<path d="M27.5886 52.6983L27.7647 52.5977L27.5215 52.4551L27.3369 52.5557L27.5886 52.6983Z" fill="#EDEDED"/>
<path d="M28.5768 55.0053L28.7613 54.9046V53.4619L28.5852 53.571L28.5768 55.0053Z" fill="#B3B3B3"/>
<path d="M28.3402 53.1354L28.5248 53.0264L27.7699 52.5986L27.5937 52.6993L28.3402 53.1354Z" fill="#EDEDED"/>
<path d="M28.59 53.276L28.7661 53.1754L28.5229 53.0244L28.3383 53.1335L28.59 53.276Z" fill="#EDEDED"/>
<path d="M29.5818 55.5834L29.7663 55.4743V54.04L29.5902 54.1407L29.5818 55.5834Z" fill="#B3B3B3"/>
<path d="M29.3379 53.7146L29.5225 53.6055L28.7676 53.1777L28.5914 53.2784L29.3379 53.7146Z" fill="#EDEDED"/>
<path d="M29.5877 53.8552L29.7722 53.7461L29.5206 53.6035L29.3361 53.7126L29.5877 53.8552Z" fill="#EDEDED"/>
<path d="M30.5795 56.1631L30.7641 56.054V54.6113L30.5879 54.7204L30.5795 56.1631Z" fill="#B3B3B3"/>
<path d="M30.332 54.2839L30.5165 54.1832L29.77 53.7471L29.5855 53.8561L30.332 54.2839Z" fill="#EDEDED"/>
<path d="M30.5854 54.4343L30.7615 54.3252L30.5183 54.1826L30.3338 54.2833L30.5854 54.4343Z" fill="#EDEDED"/>
<path d="M31.5773 56.7402L31.7618 56.6312V55.1885L31.5857 55.2975L31.5773 56.7402Z" fill="#B3B3B3"/>
<path d="M31.3334 54.862L31.5179 54.753L30.763 54.3252L30.5869 54.4342L31.3334 54.862Z" fill="#EDEDED"/>
<path d="M31.5868 55.0055L31.7629 54.9049L31.5197 54.7539L31.3351 54.8629L31.5868 55.0055Z" fill="#EDEDED"/>
<path d="M32.575 57.3119L32.7595 57.2113V55.7686L32.5833 55.8692L32.575 57.3119Z" fill="#B3B3B3"/>
<path d="M32.3274 55.4411L32.5119 55.3321L31.757 54.9043L31.5809 55.0049L32.3274 55.4411Z" fill="#EDEDED"/>
<path d="M32.5772 55.5837L32.7533 55.4746L32.5101 55.332L32.3255 55.4411L32.5772 55.5837Z" fill="#EDEDED"/>
<path d="M33.569 57.2773L33.7535 57.2354V56.3379L33.5774 56.4469L33.569 57.2773Z" fill="#B3B3B3"/>
<path d="M33.3325 56.0114L33.517 55.9108L32.7621 55.4746L32.586 55.5836L33.3325 56.0114Z" fill="#EDEDED"/>
<path d="M33.5836 56.447L33.7598 56.3379V56.0527L33.5836 56.1618V56.447Z" fill="#B3B3B3"/>
<path d="M33.5802 56.1614V56.4466L33.5718 57.277L33.3202 57.3357L33.3286 56.304L32.5821 55.8679L32.5737 57.3105L32.3221 57.168L32.3305 55.7253L31.5839 55.2975L31.5756 56.7402L31.3239 56.5892L31.3323 55.1465L30.5858 54.7187L30.5774 56.1614L30.3258 56.0188L30.3342 54.5761L29.5877 54.14L29.5793 55.5827L29.3276 55.4401L29.336 53.9974L28.5895 53.5696L28.5811 55.0039L28.3295 54.8613L28.3379 53.4186L27.5914 52.9908L27.583 54.4335L27.3313 54.2826L27.3397 52.8483L26.5932 52.4121L26.5848 53.8548L26.3332 53.7122L26.3416 52.2695L25.5951 51.8333L25.5867 53.276L25.3351 53.1334L25.3435 51.6907L24.5969 51.263L24.5886 52.7057L24.3369 52.5547L24.3453 51.112L23.5988 50.6842L23.5904 52.1269L23.3388 51.9843L23.3472 50.5416V50.248L23.5988 50.399L24.3453 50.8268L24.5969 50.9694L25.3435 51.4056L25.5951 51.5482L26.3416 51.9759L26.5932 52.1269L27.3397 52.5547L27.5914 52.6973L28.3379 53.1334L28.5895 53.276L29.336 53.7122L29.5877 53.8548L30.3342 54.2826L30.5858 54.4335L31.3323 54.8613L31.5839 55.0039L32.3305 55.4401L32.5821 55.5827L33.3286 56.0104L33.5802 56.1614Z" fill="#DCDCDC"/>
<path d="M33.5785 56.1628L33.7547 56.0537L33.5114 55.9111L33.3269 56.0118L33.5785 56.1628Z" fill="#EDEDED"/>
<path d="M12.8712 57.5382L8.82831 55.1812L11.0343 53.9062L15.0772 56.2632L12.8712 57.5382Z" fill="#F9F9F9"/>
<path d="M12.8796 59.0642L8.8367 56.7156L8.82831 55.1807L12.8712 57.5376L12.8796 59.0642Z" fill="#DCDCDC"/>
<path d="M12.8687 57.5376L12.8771 59.0642L15.0747 57.7977V56.2627L12.8687 57.5376Z" fill="#9C9C9C"/>
<path d="M12.4861 52.9986V55.6743C12.4902 55.6993 12.4902 55.7248 12.4861 55.7498V53.0657C12.49 53.0407 12.49 53.0152 12.4861 52.9902V52.9986Z" fill="#949494"/>
<path d="M12.4801 53.0654V55.7495C12.446 55.8088 12.3968 55.8581 12.3375 55.8921C12.2156 55.9546 12.0802 55.9863 11.9432 55.9844V53.3087C12.0802 53.3106 12.2156 53.2789 12.3375 53.2164C12.4001 53.1829 12.4502 53.1299 12.4801 53.0654Z" fill="#B3B3B3"/>
<path d="M11.9445 53.309V55.9847C11.8132 55.9839 11.6839 55.9523 11.5671 55.8924C11.523 55.872 11.485 55.8403 11.457 55.8005C11.4291 55.7608 11.4121 55.7143 11.4077 55.6659V52.9902C11.4102 53.0392 11.4265 53.0864 11.4547 53.1264C11.4829 53.1665 11.5219 53.1978 11.5671 53.2167C11.6802 53.2785 11.8073 53.3102 11.9361 53.309H11.9445Z" fill="#DCDCDC"/>
<path d="M12.3442 52.7735C12.3906 52.7893 12.4308 52.8193 12.4594 52.8591C12.4879 52.899 12.5032 52.9468 12.5032 52.9958C12.5032 53.0448 12.4879 53.0926 12.4594 53.1324C12.4308 53.1723 12.3906 53.2022 12.3442 53.218C12.226 53.2784 12.0952 53.3099 11.9625 53.3099C11.8298 53.3099 11.6991 53.2784 11.5809 53.218C11.5345 53.2022 11.4942 53.1723 11.4657 53.1324C11.4372 53.0926 11.4219 53.0448 11.4219 52.9958C11.4219 52.9468 11.4372 52.899 11.4657 52.8591C11.4942 52.8193 11.5345 52.7893 11.5809 52.7735C11.6991 52.7131 11.8298 52.6816 11.9625 52.6816C12.0952 52.6816 12.226 52.7131 12.3442 52.7735Z" fill="#CCCCCC"/>
<path d="M14.1719 52.8332V53.068C14.1551 53.2598 14.0871 53.4435 13.975 53.5999C13.8628 53.7563 13.7107 53.8797 13.5345 53.9571C13.0518 54.2051 12.517 54.3345 11.9744 54.3345C11.4317 54.3345 10.8969 54.2051 10.4142 53.9571C10.2359 53.8816 10.0816 53.759 9.9678 53.6023C9.85401 53.4457 9.78506 53.2609 9.76837 53.068V52.8164C9.78422 53.0127 9.85253 53.2011 9.96615 53.362C10.0798 53.5228 10.2345 53.6501 10.4142 53.7307C10.8981 53.9747 11.4324 54.1019 11.9744 54.1019C12.5163 54.1019 13.0506 53.9747 13.5345 53.7307C13.7108 53.6511 13.8628 53.526 13.9748 53.3683C14.0868 53.2106 14.1549 53.0259 14.1719 52.8332Z" fill="#C3C3C3"/>
<path d="M13.5236 51.9281C13.7101 51.994 13.8716 52.1161 13.9859 52.2775C14.1002 52.439 14.1615 52.632 14.1615 52.8298C14.1615 53.0276 14.1002 53.2206 13.9859 53.3821C13.8716 53.5436 13.7101 53.6657 13.5236 53.7315C13.0397 53.9756 12.5054 54.1027 11.9634 54.1027C11.4215 54.1027 10.8872 53.9756 10.4033 53.7315C10.2168 53.6657 10.0552 53.5436 9.94099 53.3821C9.82674 53.2206 9.76538 53.0276 9.76538 52.8298C9.76538 52.632 9.82674 52.439 9.94099 52.2775C10.0552 52.1161 10.2168 51.994 10.4033 51.9281C10.886 51.6801 11.4208 51.5508 11.9634 51.5508C12.5061 51.5508 13.0409 51.6801 13.5236 51.9281Z" fill="white"/>
<path d="M12.4862 50.0566V52.7323C12.4909 52.7544 12.4909 52.7773 12.4862 52.7994V50.1237C12.4909 50.1016 12.4909 50.0788 12.4862 50.0566Z" fill="#949494"/>
<path d="M12.4801 50.123V52.7987C12.4488 52.8623 12.3991 52.9149 12.3375 52.9497C12.2156 53.0122 12.0803 53.0439 11.9433 53.042V50.3663C12.0803 50.3682 12.2156 50.3365 12.3375 50.274C12.4014 50.2421 12.4519 50.1886 12.4801 50.123Z" fill="#B3B3B3"/>
<path d="M11.9446 50.3668V53.0677C11.8133 53.0669 11.684 53.0353 11.5671 52.9754C11.523 52.955 11.4851 52.9233 11.4571 52.8835C11.4291 52.8438 11.4121 52.7974 11.4078 52.7489V50.0732C11.4121 50.1217 11.4291 50.1681 11.4571 50.2078C11.4851 50.2476 11.523 50.2793 11.5671 50.2997C11.6803 50.3615 11.8073 50.3932 11.9362 50.392L11.9446 50.3668Z" fill="#DCDCDC"/>
<path d="M12.3442 49.8292C12.3906 49.845 12.4309 49.8749 12.4594 49.9148C12.4879 49.9546 12.5033 50.0024 12.5033 50.0514C12.5033 50.1004 12.4879 50.1482 12.4594 50.1881C12.4309 50.2279 12.3906 50.2579 12.3442 50.2737C12.2261 50.3341 12.0953 50.3656 11.9626 50.3656C11.8299 50.3656 11.6991 50.3341 11.581 50.2737C11.5346 50.2579 11.4943 50.2279 11.4658 50.1881C11.4373 50.1482 11.4219 50.1004 11.4219 50.0514C11.4219 50.0024 11.4373 49.9546 11.4658 49.9148C11.4943 49.8749 11.5346 49.845 11.581 49.8292C11.6991 49.7688 11.8299 49.7373 11.9626 49.7373C12.0953 49.7373 12.2261 49.7688 12.3442 49.8292Z" fill="#CCCCCC"/>
<path d="M13.7883 49.9537V50.1466C13.7725 50.3084 13.7146 50.4631 13.6204 50.5956C13.5262 50.728 13.399 50.8335 13.2515 50.9015C12.8478 51.1083 12.4007 51.2162 11.9472 51.2162C11.4936 51.2162 11.0465 51.1083 10.6429 50.9015C10.4926 50.8339 10.3629 50.7276 10.2671 50.5935C10.1713 50.4594 10.1128 50.3023 10.0977 50.1382V49.9453C10.1128 50.1094 10.1713 50.2665 10.2671 50.4006C10.3629 50.5347 10.4926 50.641 10.6429 50.7086C11.0477 50.9115 11.4943 51.0172 11.9472 51.0172C12.4 51.0172 12.8466 50.9115 13.2515 50.7086C13.399 50.6406 13.5262 50.5351 13.6204 50.4026C13.7146 50.2702 13.7725 50.1154 13.7883 49.9537Z" fill="#C3C3C3"/>
<path d="M13.243 49.2004C13.3848 49.2691 13.5044 49.3764 13.5881 49.5099C13.6717 49.6434 13.7161 49.7978 13.7161 49.9553C13.7161 50.1129 13.6717 50.2673 13.5881 50.4008C13.5044 50.5343 13.3848 50.6416 13.243 50.7102C12.8381 50.9132 12.3915 51.0188 11.9387 51.0188C11.4858 51.0188 11.0392 50.9132 10.6344 50.7102C9.91302 50.2909 9.90464 49.6114 10.6344 49.2004C11.038 48.9936 11.4851 48.8857 11.9387 48.8857C12.3922 48.8857 12.8393 48.9936 13.243 49.2004Z" fill="white"/>
<path d="M12.4862 47.1924V49.8681C12.4902 49.8931 12.4902 49.9186 12.4862 49.9436V47.2595C12.4893 47.2372 12.4893 47.2146 12.4862 47.1924Z" fill="#949494"/>
<path d="M12.4801 47.2598V49.9355C12.4488 49.999 12.3991 50.0516 12.3375 50.0864C12.2156 50.1489 12.0803 50.1806 11.9433 50.1787V47.4946C12.0799 47.5029 12.2161 47.4739 12.3375 47.4107C12.4014 47.3789 12.4519 47.3254 12.4801 47.2598Z" fill="#B3B3B3"/>
<path d="M11.9446 47.4949V50.179C11.8137 50.1751 11.6851 50.1437 11.5671 50.0867C11.524 50.065 11.4869 50.033 11.4591 49.9935C11.4313 49.954 11.4137 49.9082 11.4078 49.8603V47.1846C11.4121 47.233 11.4291 47.2794 11.4571 47.3192C11.4851 47.3589 11.523 47.3906 11.5671 47.411C11.6809 47.4702 11.808 47.4991 11.9362 47.4949H11.9446Z" fill="#DCDCDC"/>
<path d="M12.3425 46.9688C12.5522 47.0862 12.5522 47.2875 12.3425 47.4134C12.2243 47.4737 12.0935 47.5052 11.9609 47.5052C11.8282 47.5052 11.6974 47.4737 11.5792 47.4134C11.3695 47.2875 11.3695 47.0862 11.5792 46.9688C11.6974 46.9084 11.8282 46.877 11.9609 46.877C12.0935 46.877 12.2243 46.9084 12.3425 46.9688Z" fill="#CCCCCC"/>
<path d="M13.5271 46.9615V47.1293C13.5144 47.266 13.4658 47.3969 13.3863 47.5089C13.3068 47.6208 13.1991 47.7097 13.0742 47.7667C12.731 47.9407 12.3517 48.0313 11.967 48.0313C11.5823 48.0313 11.203 47.9407 10.8598 47.7667C10.7356 47.7055 10.6284 47.6145 10.5479 47.5018C10.4674 47.3891 10.4161 47.2583 10.3985 47.1209V46.9531C10.4105 47.0922 10.4597 47.2255 10.5409 47.3391C10.622 47.4527 10.7321 47.5425 10.8598 47.599C11.203 47.7729 11.5823 47.8635 11.967 47.8635C12.3517 47.8635 12.731 47.7729 13.0742 47.599C13.1991 47.542 13.3068 47.453 13.3863 47.3411C13.4658 47.2292 13.5144 47.0982 13.5271 46.9615Z" fill="#C3C3C3"/>
<path d="M13.0615 46.3583C13.1947 46.4047 13.3102 46.4913 13.3919 46.6063C13.4737 46.7213 13.5176 46.8589 13.5176 47C13.5176 47.141 13.4737 47.2786 13.3919 47.3936C13.3102 47.5086 13.1947 47.5953 13.0615 47.6416C12.7183 47.8155 12.339 47.9062 11.9543 47.9062C11.5696 47.9062 11.1903 47.8155 10.8471 47.6416C10.7139 47.5953 10.5984 47.5086 10.5166 47.3936C10.4349 47.2786 10.391 47.141 10.391 47C10.391 46.8589 10.4349 46.7213 10.5166 46.6063C10.5984 46.4913 10.7139 46.4047 10.8471 46.3583C11.1903 46.1844 11.5696 46.0938 11.9543 46.0938C12.339 46.0938 12.7183 46.1844 13.0615 46.3583Z" fill="white"/>
<path d="M12.2437 43.6152L12.4283 46.9703C12.4312 46.9926 12.4312 47.0152 12.4283 47.0374L12.2521 43.632L12.2437 43.6152Z" fill="#949494"/>
<path d="M12.2376 43.6562L12.4137 47.0617C12.3879 47.1171 12.3433 47.1617 12.2879 47.1875C12.1801 47.2464 12.0584 47.2754 11.9356 47.2714V43.7821C12.0087 43.7835 12.0808 43.7662 12.1453 43.7317C12.1624 43.725 12.1779 43.7148 12.1909 43.7018C12.2039 43.6888 12.214 43.6733 12.2208 43.6562H12.2376Z" fill="#C3C3C3"/>
<path d="M11.9521 43.7822V47.2715C11.8439 47.2728 11.7372 47.2468 11.6417 47.1961C11.6021 47.1783 11.5681 47.1502 11.543 47.1148C11.5179 47.0794 11.5028 47.038 11.4991 46.9948L11.7088 43.6396C11.7111 43.6649 11.72 43.6891 11.7348 43.7098C11.7495 43.7304 11.7695 43.7467 11.7927 43.7571C11.8538 43.7923 11.9235 43.8098 11.994 43.8074L11.9521 43.7822Z" fill="#DCDCDC"/>
<path d="M12.1617 43.4976C12.2792 43.5647 12.2792 43.6654 12.1617 43.7325C12.0983 43.7655 12.0278 43.7828 11.9562 43.7828C11.8847 43.7828 11.8142 43.7655 11.7507 43.7325C11.6333 43.6654 11.6333 43.5647 11.7507 43.4976C11.8142 43.4645 11.8847 43.4473 11.9562 43.4473C12.0278 43.4473 12.0983 43.4645 12.1617 43.4976Z" fill="white"/>
<path d="M79.7159 31.7028L78.961 31.2582L78.9526 29.5723L79.7075 30.0168L79.7159 31.7028Z" fill="#461D00"/>
<path d="M80.4307 28.8009L79.6674 28.3647C79.7386 28.311 79.8232 28.2779 79.912 28.269C80.0008 28.2601 80.0903 28.2758 80.1707 28.3144L80.934 28.7506C80.8526 28.7162 80.7639 28.7028 80.6759 28.7116C80.588 28.7204 80.5037 28.7511 80.4307 28.8009Z" fill="#5A2600"/>
<path d="M79.7053 30.0186L78.942 29.5824C78.9548 29.3384 79.0253 29.1009 79.1478 28.8895C79.2703 28.678 79.4412 28.4987 79.6466 28.3662L80.4098 28.8024C80.2045 28.9348 80.0336 29.1142 79.9111 29.3256C79.7886 29.5371 79.718 29.7746 79.7053 30.0186Z" fill="#5A2600"/>
<path d="M80.4275 28.802C80.8133 28.584 81.1321 28.802 81.1321 29.2046V30.8822L79.7229 31.721V30.0434C79.7317 29.7951 79.8004 29.5525 79.9231 29.3364C80.0457 29.1202 80.2188 28.9369 80.4275 28.802Z" fill="#853800"/>
<path d="M48.5399 34.7053L50.6117 33.5059H50.6284L48.5567 34.7053H48.5399Z" fill="#CFCFCF"/>
<path d="M48.5252 34.6043L50.597 33.3965L50.6305 33.5055L48.5588 34.705L48.5252 34.6043Z" fill="#C0C0C0"/>
<path d="M48.5237 34.502L48.5573 34.7033H48.5405L47.2068 34.7368L47.1313 34.5271L48.5237 34.502Z" fill="#9B9B9B"/>
<path d="M47.1313 34.5283L49.2031 33.3205L50.5955 33.3037L48.5237 34.5032L47.1313 34.5283Z" fill="#CFCFCF"/>
<path d="M53.9026 37.8084L55.9828 36.6006L55.9995 36.609L53.9278 37.8168L53.9026 37.8084Z" fill="#F9F9F9"/>
<path d="M53.9283 37.7151L56 36.5156V36.6079L53.9283 37.8157V37.7151Z" fill="#929292"/>
<path d="M48.5252 34.5032L50.597 33.3037L55.9987 36.424L53.9269 37.6234L48.5252 34.5032Z" fill="#F9F9F9"/>
<path d="M53.9269 37.6222V37.7145V37.8151L53.9018 37.8067L48.542 34.7033H48.5588L48.5252 34.6026V34.502L53.9269 37.6222Z" fill="#9B9B9B"/>
<path d="M53.9283 37.6233L56 36.4238V36.5161L53.9283 37.7155V37.6233Z" fill="#929292"/>
<path d="M53.9283 37.6233L56 36.4238L57.3924 38.0511L55.3122 39.2505L53.9283 37.6233Z" fill="#DCDCDC"/>
<path d="M53.9278 37.624L55.3117 39.2513L55.2362 39.3771L53.9026 37.8086L53.9278 37.8169V37.7163V37.624Z" fill="#9B9B9B"/>
<path d="M55.3096 39.2502L57.3898 38.0508L57.3059 38.1682L55.2341 39.376L55.3096 39.2502Z" fill="#808080"/>
<path d="M25.9607 48.0422L28.0325 46.8428H28.0493L25.9775 48.0422H25.9607Z" fill="#CFCFCF"/>
<path d="M25.946 47.9328L28.0178 46.7334L28.0514 46.8424L25.9796 48.0419L25.946 47.9328Z" fill="#C0C0C0"/>
<path d="M25.9446 47.8389L25.9781 48.0402H25.9613L24.6277 48.0737L24.5522 47.864L25.9446 47.8389Z" fill="#9B9B9B"/>
<path d="M24.5522 47.8652L26.624 46.6574L28.0163 46.6406L25.9446 47.8401L24.5522 47.8652Z" fill="#CFCFCF"/>
<path d="M31.3271 51.137L33.3989 49.9375L33.4156 49.9459L31.3439 51.1537L31.3271 51.137Z" fill="#F9F9F9"/>
<path d="M31.3491 51.052L33.4209 49.8525V49.9448L31.3491 51.1526V51.052Z" fill="#929292"/>
<path d="M25.946 47.8401L28.0178 46.6406L33.4195 49.7609L31.3478 50.9603L25.946 47.8401Z" fill="#F9F9F9"/>
<path d="M31.3478 50.9591V51.0514V51.152L31.331 51.1353L25.9628 48.0402H25.9796L25.946 47.9311V47.8389L31.3478 50.9591Z" fill="#9B9B9B"/>
<path d="M31.3491 50.9602L33.4209 49.7607V49.853L31.3491 51.0525V50.9602Z" fill="#929292"/>
<path d="M31.3491 50.9602L33.4209 49.7607L34.8132 51.3796L32.7415 52.5874L31.3491 50.9602Z" fill="#DCDCDC"/>
<path d="M31.3439 50.9609L32.7362 52.5882L32.6524 52.714L31.3271 51.1371L31.3439 51.1539V51.0532V50.9609Z" fill="#9B9B9B"/>
<path d="M32.7388 52.5877L34.8106 51.3799L34.7267 51.5057L32.655 52.7135L32.7388 52.5877Z" fill="#808080"/>
<path d="M63.6862 25.5155L65.758 24.3076H65.7748L63.703 25.5155H63.6862Z" fill="#CFCFCF"/>
<path d="M63.6716 25.4045L65.7434 24.2051L65.7769 24.3057L63.7052 25.5136L63.6716 25.4045Z" fill="#C0C0C0"/>
<path d="M63.67 25.3135L63.7036 25.5148H63.6868L62.3532 25.5483L62.2777 25.3386L63.67 25.3135Z" fill="#9B9B9B"/>
<path d="M62.2777 25.3385L64.3495 24.1306L65.7418 24.1055L63.67 25.3133L62.2777 25.3385Z" fill="#CFCFCF"/>
<path d="M69.0526 28.6096L71.1244 27.4102L71.1411 27.4185L69.0694 28.6264L69.0526 28.6096Z" fill="#F9F9F9"/>
<path d="M69.0746 28.5266L71.1464 27.3271V27.4194L69.0746 28.6273V28.5266Z" fill="#929292"/>
<path d="M63.6715 25.3133L65.7433 24.1055L71.145 27.2257L69.0733 28.4336L63.6715 25.3133Z" fill="#F9F9F9"/>
<path d="M69.0733 28.4337V28.526V28.6266L69.0565 28.6099L63.6883 25.5148H63.7051L63.6715 25.4057V25.3135L69.0733 28.4337Z" fill="#9B9B9B"/>
<path d="M69.0746 28.4334L71.1464 27.2256V27.3262L69.0746 28.5257V28.4334Z" fill="#929292"/>
<path d="M69.0746 28.4334L71.1464 27.2256L72.5303 28.8528L70.4586 30.0606L69.0746 28.4334Z" fill="#DCDCDC"/>
<path d="M69.0694 28.4336L70.4533 30.0608L70.3778 30.1866L69.0526 28.6097L69.0694 28.6265V28.5259V28.4336Z" fill="#9B9B9B"/>
<path d="M70.4559 30.0604L72.5277 28.8525L72.4522 28.9784L70.3804 30.1862L70.4559 30.0604Z" fill="#808080"/>
<path d="M78.9361 35.9484C79.3639 35.7052 79.691 35.6129 79.691 36.5943C79.7374 36.8885 79.6893 37.1899 79.5536 37.4552C79.418 37.7204 79.2018 37.9358 78.9361 38.0705C78.4915 38.3305 78.1896 38.4144 78.1896 37.4582C78.1896 36.502 78.5251 36.1917 78.9361 35.9484ZM78.9361 37.5756C79.1542 37.4498 79.2045 37.3156 79.2045 36.8711C79.2045 36.4265 79.1626 36.3175 78.9361 36.4517C78.7096 36.5859 78.6677 36.6698 78.6677 37.1814C78.6677 37.6931 78.6928 37.7098 78.9361 37.5756Z" fill="white"/>
<path d="M79.8549 35.4536L80.3414 35.1768V37.2737L79.8549 37.5505V35.4536Z" fill="white"/>
<path d="M80.5334 35.0424L81.0115 34.7656V36.2167C81.0115 36.3677 81.0954 36.3174 81.1625 36.2754L81.6742 35.9819V36.4767L80.9445 36.9045C80.718 37.0303 80.5334 37.0135 80.5334 36.6948V35.0424Z" fill="white"/>
<path d="M82.3969 33.9687L83.806 33.1299V33.6248L83.3363 33.8932V35.4952L82.8498 35.772V34.1784L82.3969 34.4384V33.9687Z" fill="white"/>
<path d="M84.1913 32.9365L84.7616 32.6094L85.3152 34.3876L84.8203 34.6728L84.7113 34.3624L84.2248 34.6476L84.1242 35.0754L83.6293 35.3606L84.1913 32.9365ZM84.619 33.943L84.4848 33.4565L84.3338 34.1024L84.619 33.943Z" fill="white"/>
<path d="M85.456 32.2071L85.9425 31.9219L86.4625 32.702V31.6284L86.9406 31.3516V33.4485L86.4625 33.7253L85.9425 32.9788V34.0273L85.456 34.3041V32.2071Z" fill="white"/>
<path d="M87.1396 31.2591L87.601 30.9991V31.8379L87.6932 31.7791L88.0707 30.7474L88.6159 30.4287L88.121 31.7708L88.6159 32.5257L88.0707 32.8444L87.6932 32.2489L87.601 32.3076V33.1463L87.1396 33.4064V31.2591Z" fill="white"/>
<path d="M88.6692 30.8321C88.6682 30.6758 88.7108 30.5223 88.7923 30.3889C88.8738 30.2555 88.991 30.1475 89.1306 30.0772C89.1306 30.0772 89.6506 29.7752 89.9693 29.6494V30.1191L89.3067 30.505C89.262 30.5245 89.2249 30.5578 89.2007 30.6002C89.1765 30.6425 89.1666 30.6914 89.1725 30.7398V30.8656L89.8435 30.5134V30.9747L89.1725 31.3857V31.5115C89.1725 31.6625 89.2564 31.6121 89.3319 31.5702L89.9693 31.2011V31.6625C89.7093 31.8554 89.1809 32.1657 89.1809 32.1657C89.0215 32.2664 88.6944 32.4174 88.6944 31.9812L88.6692 30.8321Z" fill="white"/>
<path d="M90.0888 29.5229L90.9276 29.0532C91.2463 28.8687 91.4811 28.8855 91.4811 29.4055C91.4994 29.5487 91.4847 29.6942 91.4382 29.8308C91.3917 29.9674 91.3146 30.0917 91.2127 30.194L91.5231 30.8063L90.9779 31.125L90.743 30.5127L90.592 30.563V31.3431L90.1139 31.6199L90.0888 29.5229ZM90.8353 29.9843C90.9611 29.9172 90.9695 29.8333 90.9695 29.6907C90.9695 29.5481 90.9695 29.4978 90.8353 29.5649L90.5753 29.7159V30.1436L90.8353 29.9843Z" fill="white"/>
</svg>
