<?xml version="1.0" encoding="UTF-8"?>
<svg id="Layer_2" xmlns="http://www.w3.org/2000/svg" viewBox="0 0 782.58 497.33">
  <defs>
    <style>
      .cls-1 {
        fill: #fff;
      }
    </style>
  </defs>
  <g id="Layer_1-2" data-name="Layer_1">
    <g>
      <path class="cls-1" d="M69.79,322.54H23.1L0,438.04h26.89l6.27-31.84h25.74c34.48,0,56.1-18.31,56.1-47.68,0-22.6-16.33-35.97-45.21-35.97ZM60.06,384.42h-22.6l8.08-40.09h20.95c13.53,0,21.45,5.28,21.45,16.5,0,15.34-10.23,23.59-27.88,23.59Z"/>
      <polygon class="cls-1" points="198.33 438.04 225.06 438.04 248.15 322.54 221.43 322.54 212.35 367.92 160.05 367.92 169.12 322.54 142.23 322.54 119.13 438.04 146.02 438.04 155.43 391.02 207.73 391.02 198.33 438.04"/>
      <polygon class="cls-1" points="302.44 322.54 275.55 322.54 252.45 438.04 279.34 438.04 302.44 322.54"/>
      <polygon class="cls-1" points="394.84 394.98 351.78 322.54 329.67 322.54 306.57 438.04 332.97 438.04 347.49 365.77 390.55 438.04 412.49 438.04 435.59 322.54 409.19 322.54 394.84 394.98"/>
      <polygon class="cls-1" points="542.51 322.54 528.16 394.98 485.1 322.54 462.99 322.54 439.89 438.04 466.29 438.04 480.81 365.77 523.87 438.04 545.81 438.04 568.91 322.54 542.51 322.54"/>
      <polygon class="cls-1" points="596.31 322.54 573.21 438.04 600.1 438.04 623.2 322.54 596.31 322.54"/>
      <path class="cls-1" d="M688.21,342.01c11.38,0,22.6,2.97,31.35,8.91l10.07-20.46c-10.07-6.44-24.42-9.9-39.93-9.9-32.01,0-52.8,15.34-52.8,39.1,0,36.79,57.25,26.89,57.25,45.37,0,8.42-9.24,13.53-23.92,13.53-13.69,0-27.55-4.29-38.11-12.04l-10.89,20.62c9.74,7.26,27.55,12.87,46.36,12.87,32.17,0,53.29-15.34,53.29-39.27,0-35.47-57.42-25.57-57.25-44.55,0-8.25,9.08-14.19,24.58-14.19Z"/>
      <polygon class="cls-1" points="782.58 322.54 755.69 322.54 732.59 438.04 759.49 438.04 782.58 322.54"/>
      <path class="cls-1" d="M214.7,466.73h-15.1c-.59,0-1.08.18-1.48.54-.4.36-.6.83-.6,1.39s.19,1.07.58,1.43c.39.36.88.54,1.5.54h5.34v17.82c0,.59.2,1.08.61,1.48s.93.59,1.56.59,1.17-.2,1.6-.59.65-.89.65-1.48v-17.82h5.34c.61,0,1.11-.18,1.5-.53.39-.35.58-.82.58-1.41s-.19-1.07-.58-1.43c-.38-.36-.88-.54-1.5-.54Z"/>
      <path class="cls-1" d="M229.14,472.58c-.46-.38-1.04-.58-1.72-.58-1.11,0-2.15.24-3.13.73s-1.72,1.2-2.24,2.12v-.44c0-.59-.19-1.08-.58-1.48-.39-.4-.87-.6-1.46-.6s-1.08.2-1.46.6c-.39.4-.58.89-.58,1.48v14.04c0,.59.19,1.08.58,1.48.38.4.87.59,1.46.59s1.08-.2,1.46-.59c.38-.4.58-.89.58-1.48v-8.06c0-1.02.17-1.9.53-2.63.35-.74.8-1.29,1.34-1.65s1.11-.54,1.7-.54c.27,0,.53.03.76.1.24.07.39.11.46.14.43.16.82.24,1.16.24.5,0,.93-.18,1.29-.53.36-.35.54-.88.54-1.58,0-.52-.23-.97-.7-1.36Z"/>
      <path class="cls-1" d="M247.04,472c-.59,0-1.08.2-1.46.6s-.58.89-.58,1.48v.03c-.66-.61-1.46-1.12-2.41-1.51-.95-.4-1.97-.6-3.06-.6-1.52,0-2.91.4-4.17,1.21s-2.25,1.93-2.97,3.37c-.73,1.44-1.09,3.07-1.09,4.88s.37,3.43,1.1,4.86,1.74,2.54,3.01,3.35c1.27.81,2.69,1.21,4.25,1.21,1.07,0,2.08-.23,3.04-.7.96-.46,1.73-1.03,2.29-1.68.02.59.22,1.08.6,1.46s.86.58,1.44.58,1.08-.2,1.46-.59c.39-.4.58-.89.58-1.48v-14.38c0-.61-.19-1.11-.58-1.5s-.87-.58-1.46-.58ZM243.77,485.51c-.93,1.08-2.13,1.62-3.6,1.62s-2.67-.54-3.59-1.62-1.38-2.43-1.38-4.06.46-2.99,1.39-4.08c.93-1.09,2.12-1.63,3.57-1.63s2.67.54,3.6,1.63c.93,1.09,1.39,2.45,1.39,4.08s-.46,2.99-1.39,4.06Z"/>
      <path class="cls-1" d="M263.22,472c-1.18,0-2.26.29-3.25.88-.99.59-1.78,1.29-2.4,2.11v-.58c0-.59-.19-1.08-.58-1.48-.39-.4-.87-.6-1.46-.6s-1.08.2-1.46.6c-.39.4-.58.89-.58,1.48v14.04c0,.59.19,1.08.58,1.48.38.4.87.59,1.46.59s1.08-.2,1.46-.59c.38-.4.58-.89.58-1.48v-8.7c0-1.16.37-2.11,1.12-2.87.75-.76,1.78-1.14,3.09-1.14s2.16.36,2.69,1.07c.52.71.78,1.7.78,2.94v8.7c0,.59.19,1.08.58,1.48s.87.59,1.46.59,1.08-.2,1.46-.59.58-.89.58-1.48v-8.7c0-2.42-.44-4.32-1.33-5.7-.88-1.37-2.48-2.06-4.79-2.06Z"/>
      <path class="cls-1" d="M283.82,480.81c-.82-.36-1.84-.71-3.06-1.05-.88-.25-1.57-.46-2.06-.63-.49-.17-.89-.41-1.21-.71-.32-.31-.48-.71-.48-1.21,0-1.25.86-1.87,2.58-1.87.82,0,1.55.15,2.19.44.65.29,1.17.69,1.58,1.19.32.32.73.48,1.22.48.41,0,.77-.12,1.09-.37.43-.34.65-.77.65-1.29,0-.45-.15-.86-.44-1.22-.66-.84-1.56-1.47-2.72-1.9s-2.31-.65-3.47-.65-2.21.22-3.21.66c-1.01.44-1.83,1.07-2.45,1.87-.62.8-.93,1.75-.93,2.84,0,1.25.3,2.24.9,2.98s1.31,1.29,2.14,1.65c.83.36,1.9.73,3.21,1.09,1.27.34,2.2.68,2.8,1.02.6.34.9.84.9,1.5,0,1.27-.88,1.94-2.65,2.01-1.04,0-1.93-.17-2.67-.51-.74-.34-1.45-.86-2.12-1.56-.43-.43-.88-.65-1.36-.65-.34,0-.67.1-.99.31-.59.41-.88.91-.88,1.5,0,.41.1.75.31,1.02.82,1.11,1.87,1.92,3.16,2.41,1.29.5,2.69.75,4.18.75,1.09,0,2.15-.22,3.18-.65,1.03-.43,1.88-1.06,2.53-1.89.66-.83.99-1.8.99-2.91,0-1.22-.28-2.21-.85-2.96s-1.26-1.3-2.07-1.67Z"/>
      <path class="cls-1" d="M301.69,465.88c-.62-.34-1.35-.51-2.19-.51-2.2,0-3.88.53-5.05,1.6s-1.75,2.45-1.75,4.15v1.56h-1.84c-.54,0-1,.18-1.36.53-.36.35-.54.8-.54,1.34s.18.99.54,1.34c.36.35.82.53,1.36.53h1.84v12.04c0,.59.19,1.08.58,1.48s.87.59,1.46.59,1.08-.2,1.46-.59.58-.89.58-1.48v-12.04h3.09c.54,0,1-.17,1.36-.53.36-.35.54-.8.54-1.34s-.18-.99-.54-1.34-.82-.53-1.36-.53h-3.09v-1.6c0-.52.16-1,.48-1.45.32-.44.86-.66,1.63-.66.36,0,.82.07,1.36.2.14.02.27.05.39.07.12.02.24.03.36.03.45,0,.84-.17,1.16-.51.32-.34.48-.78.48-1.33,0-.7-.31-1.22-.94-1.56Z"/>
      <path class="cls-1" d="M317.23,473.21c-1.42-.8-2.98-1.21-4.67-1.21s-3.29.4-4.69,1.21c-1.41.8-2.52,1.93-3.33,3.37-.82,1.44-1.22,3.07-1.22,4.88s.41,3.44,1.22,4.88c.82,1.44,1.93,2.56,3.33,3.35,1.41.79,2.97,1.19,4.69,1.19s3.26-.4,4.67-1.19c1.42-.79,2.53-1.91,3.35-3.35.82-1.44,1.22-3.07,1.22-4.88s-.41-3.44-1.22-4.88c-.82-1.44-1.93-2.56-3.35-3.37ZM317.02,484.41c-.46.86-1.09,1.53-1.87,2.01-.78.48-1.65.71-2.6.71s-1.82-.24-2.6-.71c-.78-.48-1.41-1.14-1.87-2.01s-.7-1.85-.7-2.96.23-2.1.7-2.98c.46-.87,1.09-1.55,1.87-2.02s1.65-.71,2.6-.71,1.82.24,2.6.71,1.41,1.15,1.87,2.02c.46.87.7,1.87.7,2.98s-.23,2.1-.7,2.96Z"/>
      <path class="cls-1" d="M336.37,472.58c-.46-.38-1.04-.58-1.72-.58-1.11,0-2.15.24-3.13.73s-1.72,1.2-2.24,2.12v-.44c0-.59-.19-1.08-.58-1.48-.39-.4-.87-.6-1.46-.6s-1.08.2-1.46.6c-.39.4-.58.89-.58,1.48v14.04c0,.59.19,1.08.58,1.48.38.4.87.59,1.46.59s1.08-.2,1.46-.59c.38-.4.58-.89.58-1.48v-8.06c0-1.02.17-1.9.53-2.63.35-.74.8-1.29,1.34-1.65s1.11-.54,1.7-.54c.27,0,.53.03.76.1.24.07.39.11.46.14.43.16.82.24,1.16.24.5,0,.93-.18,1.29-.53.36-.35.54-.88.54-1.58,0-.52-.23-.97-.7-1.36Z"/>
      <path class="cls-1" d="M360.94,472c-1.34,0-2.53.39-3.59,1.16-1.05.77-1.84,1.63-2.36,2.58-.79-2.49-2.62-3.74-5.47-3.74-1.16,0-2.2.29-3.14.87-.94.58-1.72,1.28-2.33,2.09v-.54c0-.59-.19-1.08-.58-1.48-.39-.4-.87-.6-1.46-.6s-1.08.2-1.46.6c-.39.4-.58.89-.58,1.48v14.04c0,.59.19,1.08.58,1.48.38.4.87.59,1.46.59s1.08-.2,1.46-.59c.38-.4.58-.89.58-1.48v-8.7c0-1.16.36-2.11,1.07-2.87.71-.76,1.71-1.14,2.97-1.14s2.08.36,2.57,1.07c.49.71.73,1.7.73,2.94v8.7c0,.59.19,1.08.58,1.48.38.4.87.59,1.46.59s1.08-.2,1.46-.59.58-.89.58-1.48v-8.7c0-1.16.36-2.11,1.07-2.87.71-.76,1.71-1.14,2.97-1.14s2.08.36,2.57,1.07c.49.71.73,1.7.73,2.94v8.7c0,.59.19,1.08.58,1.48s.87.59,1.46.59,1.08-.2,1.46-.59.58-.89.58-1.48v-8.7c0-2.42-.43-4.32-1.29-5.7-.86-1.37-2.41-2.06-4.66-2.06Z"/>
      <path class="cls-1" d="M373.11,466.08c-.75,0-1.29.12-1.63.38-.34.25-.51.69-.51,1.33v.65c0,.63.16,1.08.48,1.33.32.25.86.38,1.63.38s1.35-.12,1.68-.36c.33-.24.49-.69.49-1.34v-.65c0-.63-.16-1.08-.48-1.33-.32-.25-.87-.38-1.67-.38Z"/>
      <path class="cls-1" d="M373.11,472.34c-.59,0-1.08.2-1.46.6s-.58.89-.58,1.48v14.04c0,.59.19,1.08.58,1.48s.87.59,1.46.59,1.08-.2,1.46-.59.58-.89.58-1.48v-14.04c0-.59-.19-1.08-.58-1.48s-.87-.6-1.46-.6Z"/>
      <path class="cls-1" d="M389.05,472c-1.18,0-2.26.29-3.25.88-.99.59-1.78,1.29-2.4,2.11v-.58c0-.59-.19-1.08-.58-1.48-.39-.4-.87-.6-1.46-.6s-1.08.2-1.46.6c-.39.4-.58.89-.58,1.48v14.04c0,.59.19,1.08.58,1.48.38.4.87.59,1.46.59s1.08-.2,1.46-.59c.38-.4.58-.89.58-1.48v-8.7c0-1.16.37-2.11,1.12-2.87.75-.76,1.78-1.14,3.09-1.14s2.16.36,2.69,1.07c.52.71.78,1.7.78,2.94v8.7c0,.59.19,1.08.58,1.48s.87.59,1.46.59,1.08-.2,1.46-.59.58-.89.58-1.48v-8.7c0-2.42-.44-4.32-1.33-5.7-.88-1.37-2.48-2.06-4.79-2.06Z"/>
      <path class="cls-1" d="M414.65,472c-.59,0-1.08.2-1.46.6s-.58.89-.58,1.48v.37c-.61-.68-1.42-1.26-2.41-1.73-1-.48-2.07-.71-3.23-.71-1.56,0-2.99.4-4.27,1.21-1.28.8-2.29,1.93-3.03,3.37-.74,1.44-1.1,3.07-1.1,4.88s.37,3.43,1.12,4.86c.75,1.43,1.77,2.54,3.08,3.35,1.3.81,2.75,1.21,4.33,1.21,1.16,0,2.24-.28,3.25-.85,1.01-.57,1.76-1.2,2.26-1.9v1.63c0,1.22-.41,2.17-1.24,2.84-.83.67-2.08,1-3.76,1-.84,0-1.77-.2-2.81-.59s-1.59-.61-1.68-.63c-.2-.07-.42-.1-.65-.1-.39,0-.74.13-1.07.39-.33.26-.56.64-.7,1.14-.07.2-.1.38-.1.54,0,.84.55,1.5,1.67,1.97.5.23,1.34.45,2.53.68,1.19.23,2.12.34,2.81.34,2.63,0,4.8-.66,6.51-1.99,1.71-1.33,2.57-3.37,2.57-6.14v-15.13c0-.61-.19-1.11-.58-1.5-.39-.38-.87-.58-1.46-.58ZM411.34,485.51c-.96,1.08-2.21,1.62-3.72,1.62s-2.75-.54-3.71-1.62-1.43-2.43-1.43-4.06.48-2.99,1.43-4.08c.95-1.09,2.19-1.63,3.71-1.63s2.76.54,3.72,1.63c.96,1.09,1.45,2.45,1.45,4.08s-.48,2.99-1.45,4.06Z"/>
      <path class="cls-1" d="M447.24,468.02c-1.76-1.09-3.74-1.63-5.93-1.63s-4.18.54-5.93,1.63c-1.76,1.09-3.13,2.57-4.11,4.44-.99,1.87-1.48,3.93-1.48,6.17s.49,4.3,1.48,6.17c.99,1.87,2.36,3.35,4.11,4.44,1.76,1.09,3.73,1.63,5.93,1.63s4.18-.54,5.93-1.63c1.76-1.09,3.13-2.57,4.13-4.44,1-1.87,1.5-3.93,1.5-6.17s-.5-4.3-1.5-6.17c-1-1.87-2.38-3.35-4.13-4.44ZM447.53,482.76c-.61,1.24-1.46,2.21-2.55,2.94-1.09.73-2.31,1.09-3.67,1.09s-2.61-.36-3.69-1.07c-1.08-.71-1.92-1.69-2.52-2.94s-.9-2.63-.9-4.15.3-2.9.9-4.15,1.44-2.23,2.52-2.94c1.08-.71,2.31-1.07,3.69-1.07s2.58.36,3.67,1.09c1.09.73,1.94,1.71,2.55,2.94.61,1.23.92,2.61.92,4.13s-.31,2.89-.92,4.13Z"/>
      <path class="cls-1" d="M470.11,473.21c-1.27-.8-2.69-1.21-4.25-1.21-1.07,0-2.09.26-3.06.77-.98.51-1.73,1.1-2.28,1.79v-.14c0-.59-.19-1.08-.58-1.48-.39-.4-.87-.6-1.46-.6s-1.08.2-1.46.6c-.39.4-.58.89-.58,1.48v20.84c0,.61.19,1.11.58,1.5.38.38.87.58,1.46.58s1.08-.2,1.46-.59c.38-.4.58-.89.58-1.48v-6.66c.63.63,1.43,1.17,2.4,1.62.96.44,1.99.66,3.08.66,1.52,0,2.91-.4,4.17-1.21,1.26-.8,2.25-1.93,2.98-3.37.72-1.44,1.09-3.06,1.09-4.88s-.37-3.43-1.11-4.86-1.74-2.54-3.01-3.35ZM468.92,485.5c-.93,1.09-2.12,1.63-3.57,1.63s-2.67-.54-3.6-1.63-1.39-2.45-1.39-4.08.46-2.99,1.39-4.06,2.13-1.62,3.6-1.62,2.67.54,3.59,1.62,1.38,2.43,1.38,4.06-.46,2.99-1.39,4.08Z"/>
      <path class="cls-1" d="M489.57,473.22c-1.33-.82-2.74-1.22-4.23-1.22s-2.95.39-4.28,1.17c-1.34.78-2.41,1.91-3.23,3.38-.82,1.47-1.22,3.18-1.22,5.13,0,1.75.38,3.32,1.16,4.71s1.86,2.49,3.28,3.28c1.42.79,3.08,1.19,4.98,1.19,1.09,0,2.16-.18,3.23-.54s1.92-.8,2.55-1.33c.63-.5.95-1.05.95-1.67,0-.45-.17-.85-.51-1.19s-.75-.51-1.22-.51c-.36,0-.75.1-1.16.31-.11.07-.32.2-.63.39-.31.19-.72.37-1.24.54s-1.25.26-2.18.26c-1.22,0-2.32-.38-3.3-1.14-.98-.76-1.6-1.81-1.87-3.15h11.22c.54,0,1.02-.17,1.43-.51s.62-.78.65-1.33c0-1.61-.4-3.1-1.19-4.49-.79-1.38-1.85-2.48-3.18-3.3ZM489.59,479.44h-8.91c.48-2.47,2.03-3.71,4.66-3.71,1.07,0,2.02.34,2.86,1.02.84.68,1.3,1.5,1.39,2.45v.24Z"/>
      <path class="cls-1" d="M508.51,472.58c-.46-.38-1.04-.58-1.72-.58-1.11,0-2.15.24-3.13.73s-1.72,1.2-2.24,2.12v-.44c0-.59-.19-1.08-.58-1.48-.39-.4-.87-.6-1.46-.6s-1.08.2-1.46.6c-.39.4-.58.89-.58,1.48v14.04c0,.59.19,1.08.58,1.48.38.4.87.59,1.46.59s1.08-.2,1.46-.59c.38-.4.58-.89.58-1.48v-8.06c0-1.02.17-1.9.53-2.63.35-.74.8-1.29,1.34-1.65s1.11-.54,1.7-.54c.27,0,.53.03.76.1.24.07.39.11.46.14.43.16.82.24,1.16.24.5,0,.93-.18,1.29-.53.36-.35.54-.88.54-1.58,0-.52-.23-.97-.7-1.36Z"/>
      <path class="cls-1" d="M526.41,472c-.59,0-1.08.2-1.46.6s-.58.89-.58,1.48v.03c-.66-.61-1.46-1.12-2.41-1.51-.95-.4-1.97-.6-3.06-.6-1.52,0-2.91.4-4.17,1.21s-2.25,1.93-2.97,3.37c-.73,1.44-1.09,3.07-1.09,4.88s.37,3.43,1.1,4.86,1.74,2.54,3.01,3.35c1.27.81,2.69,1.21,4.25,1.21,1.07,0,2.08-.23,3.04-.7.96-.46,1.73-1.03,2.29-1.68.02.59.22,1.08.6,1.46s.86.58,1.44.58,1.08-.2,1.46-.59c.39-.4.58-.89.58-1.48v-14.38c0-.61-.19-1.11-.58-1.5s-.87-.58-1.46-.58ZM523.15,485.51c-.93,1.08-2.13,1.62-3.6,1.62s-2.67-.54-3.59-1.62-1.38-2.43-1.38-4.06.46-2.99,1.39-4.08c.93-1.09,2.12-1.63,3.57-1.63s2.67.54,3.6,1.63c.93,1.09,1.39,2.45,1.39,4.08s-.46,2.99-1.39,4.06Z"/>
      <path class="cls-1" d="M541.13,476.42c.54,0,1-.17,1.36-.53.36-.35.54-.79.54-1.31s-.18-1-.54-1.36-.82-.54-1.36-.54h-2.41v-2.18c0-.59-.19-1.08-.58-1.48-.39-.4-.86-.6-1.43-.6s-1.08.2-1.48.6c-.4.4-.6.89-.6,1.48v2.18h-1.56c-.54,0-1,.18-1.36.53s-.54.79-.54,1.31.18,1,.54,1.36c.36.36.82.54,1.36.54h1.56v9.38c0,1.95.48,3.22,1.45,3.82.96.6,2.15.9,3.55.9.84,0,1.59-.21,2.26-.63.67-.42,1-.93,1-1.55,0-.5-.13-.9-.39-1.21s-.55-.46-.87-.46c-.25,0-.51.06-.78.17-.32.09-.57.14-.75.14-.43,0-.77-.11-1.02-.32-.25-.22-.37-.56-.37-1.04v-9.21h2.41Z"/>
      <path class="cls-1" d="M548.58,466.08c-.75,0-1.29.12-1.63.38-.34.25-.51.69-.51,1.33v.65c0,.63.16,1.08.48,1.33.32.25.86.38,1.63.38s1.35-.12,1.68-.36c.33-.24.49-.69.49-1.34v-.65c0-.63-.16-1.08-.48-1.33-.32-.25-.87-.38-1.67-.38Z"/>
      <path class="cls-1" d="M548.58,472.34c-.59,0-1.08.2-1.46.6s-.58.89-.58,1.48v14.04c0,.59.19,1.08.58,1.48s.87.59,1.46.59,1.08-.2,1.46-.59.58-.89.58-1.48v-14.04c0-.59-.19-1.08-.58-1.48s-.87-.6-1.46-.6Z"/>
      <path class="cls-1" d="M567.7,473.21c-1.42-.8-2.98-1.21-4.67-1.21s-3.29.4-4.69,1.21c-1.41.8-2.52,1.93-3.33,3.37-.82,1.44-1.22,3.07-1.22,4.88s.41,3.44,1.22,4.88c.82,1.44,1.93,2.56,3.33,3.35,1.41.79,2.97,1.19,4.69,1.19s3.26-.4,4.67-1.19c1.42-.79,2.53-1.91,3.35-3.35.82-1.44,1.22-3.07,1.22-4.88s-.41-3.44-1.22-4.88c-.82-1.44-1.93-2.56-3.35-3.37ZM567.5,484.41c-.46.86-1.09,1.53-1.87,2.01-.78.48-1.65.71-2.6.71s-1.82-.24-2.6-.71c-.78-.48-1.41-1.14-1.87-2.01s-.7-1.85-.7-2.96.23-2.1.7-2.98c.46-.87,1.09-1.55,1.87-2.02s1.65-.71,2.6-.71,1.82.24,2.6.71,1.41,1.15,1.87,2.02c.46.87.7,1.87.7,2.98s-.23,2.1-.7,2.96Z"/>
      <path class="cls-1" d="M585.4,472c-1.18,0-2.26.29-3.25.88-.99.59-1.78,1.29-2.4,2.11v-.58c0-.59-.19-1.08-.58-1.48-.39-.4-.87-.6-1.46-.6s-1.08.2-1.46.6c-.39.4-.58.89-.58,1.48v14.04c0,.59.19,1.08.58,1.48.38.4.87.59,1.46.59s1.08-.2,1.46-.59c.38-.4.58-.89.58-1.48v-8.7c0-1.16.37-2.11,1.12-2.87.75-.76,1.78-1.14,3.09-1.14s2.16.36,2.69,1.07c.52.71.78,1.7.78,2.94v8.7c0,.59.19,1.08.58,1.48s.87.59,1.46.59,1.08-.2,1.46-.59.58-.89.58-1.48v-8.7c0-2.42-.44-4.32-1.33-5.7-.88-1.37-2.48-2.06-4.79-2.06Z"/>
      <path class="cls-1" d="M619.26,470.64c.61,0,1.11-.18,1.5-.53s.58-.81.58-1.38-.2-1.07-.59-1.45c-.4-.37-.89-.56-1.48-.56h-11.39c-.59,0-1.08.2-1.48.59-.4.4-.59.89-.59,1.48v19.65c0,.59.2,1.08.59,1.48s.89.59,1.48.59h11.39c.59,0,1.08-.18,1.48-.54.4-.36.59-.83.59-1.39,0-.52-.2-.98-.59-1.38-.4-.4-.89-.59-1.48-.59h-9.21v-6.29h7.68c.61,0,1.11-.18,1.5-.53.38-.35.58-.81.58-1.38s-.2-1.07-.59-1.44-.89-.56-1.48-.56h-7.68v-5.78h9.21Z"/>
      <path class="cls-1" d="M633.41,481.21l4.69-5.71c.32-.38.48-.83.48-1.33s-.19-.9-.56-1.27-.83-.56-1.38-.56c-.66,0-1.2.31-1.63.92l-3.88,5.13-4.18-5.2c-.45-.57-1.01-.85-1.67-.85-.54,0-1.03.2-1.45.6-.42.4-.63.88-.63,1.45,0,.45.15.86.44,1.22l4.9,6.09-4.73,5.78c-.34.41-.51.84-.51,1.29,0,.48.21.9.65,1.26s.88.54,1.36.54c.32,0,.62-.07.9-.22.28-.15.53-.36.73-.63l3.98-5.07,4.08,5.07c.45.59,1.01.88,1.67.88.52,0,1-.2,1.43-.61.43-.41.65-.89.65-1.46,0-.45-.15-.86-.44-1.22l-4.9-6.09Z"/>
      <path class="cls-1" d="M654.18,485.84c-.29,0-.54.05-.75.14-.2.09-.42.22-.66.39-.24.17-.42.29-.56.36-.54.27-1.37.41-2.48.41-1.52,0-2.77-.54-3.74-1.62-.98-1.08-1.46-2.43-1.46-4.06s.48-3.08,1.45-4.13c.96-1.05,2.29-1.58,4-1.58.27,0,.63.05,1.07.14.44.09.78.19,1,.3.2.11.41.26.63.43.21.17.44.31.66.41.23.1.52.15.88.15.48,0,.86-.19,1.16-.56.29-.37.44-.81.44-1.31,0-1-.59-1.8-1.77-2.4s-2.73-.9-4.66-.9c-1.72,0-3.26.4-4.62,1.21-1.36.8-2.42,1.92-3.18,3.35-.76,1.43-1.14,3.06-1.14,4.9s.36,3.37,1.09,4.81c.72,1.44,1.75,2.57,3.08,3.38,1.33.82,2.86,1.22,4.61,1.22,1.18,0,2.29-.14,3.33-.42,1.04-.28,1.88-.66,2.52-1.14.63-.48.95-.99.95-1.53s-.16-1.03-.49-1.39c-.33-.36-.78-.54-1.34-.54Z"/>
      <path class="cls-1" d="M670.93,473.22c-1.33-.82-2.74-1.22-4.23-1.22s-2.95.39-4.28,1.17c-1.34.78-2.41,1.91-3.23,3.38-.82,1.47-1.22,3.18-1.22,5.13,0,1.75.38,3.32,1.16,4.71s1.86,2.49,3.28,3.28c1.42.79,3.08,1.19,4.98,1.19,1.09,0,2.16-.18,3.23-.54s1.92-.8,2.55-1.33c.63-.5.95-1.05.95-1.67,0-.45-.17-.85-.51-1.19s-.75-.51-1.22-.51c-.36,0-.75.1-1.16.31-.11.07-.32.2-.63.39-.31.19-.72.37-1.24.54s-1.25.26-2.18.26c-1.22,0-2.32-.38-3.3-1.14-.98-.76-1.6-1.81-1.87-3.15h11.22c.54,0,1.02-.17,1.43-.51s.62-.78.65-1.33c0-1.61-.4-3.1-1.19-4.49-.79-1.38-1.85-2.48-3.18-3.3ZM670.94,479.44h-8.91c.48-2.47,2.03-3.71,4.66-3.71,1.07,0,2.02.34,2.86,1.02.84.68,1.3,1.5,1.39,2.45v.24Z"/>
      <path class="cls-1" d="M681.11,465.37c-.59,0-1.08.2-1.48.59-.4.4-.59.89-.59,1.48v21.01c0,.59.19,1.08.58,1.48.38.4.86.59,1.43.59s1.08-.2,1.48-.59c.4-.4.59-.89.59-1.48v-21.01c0-.59-.19-1.08-.58-1.48-.39-.4-.86-.59-1.43-.59Z"/>
      <path class="cls-1" d="M690.29,465.37c-.59,0-1.08.2-1.48.59-.4.4-.59.89-.59,1.48v21.01c0,.59.19,1.08.58,1.48.38.4.86.59,1.43.59s1.08-.2,1.48-.59c.4-.4.59-.89.59-1.48v-21.01c0-.59-.19-1.08-.58-1.48-.39-.4-.86-.59-1.43-.59Z"/>
      <path class="cls-1" d="M708.67,473.22c-1.33-.82-2.74-1.22-4.23-1.22s-2.95.39-4.28,1.17c-1.34.78-2.41,1.91-3.23,3.38-.82,1.47-1.22,3.18-1.22,5.13,0,1.75.38,3.32,1.16,4.71s1.86,2.49,3.28,3.28c1.42.79,3.08,1.19,4.98,1.19,1.09,0,2.16-.18,3.23-.54s1.92-.8,2.55-1.33c.63-.5.95-1.05.95-1.67,0-.45-.17-.85-.51-1.19s-.75-.51-1.22-.51c-.36,0-.75.1-1.16.31-.11.07-.32.2-.63.39-.31.19-.72.37-1.24.54s-1.25.26-2.18.26c-1.22,0-2.32-.38-3.3-1.14-.98-.76-1.6-1.81-1.87-3.15h11.22c.54,0,1.02-.17,1.43-.51s.62-.78.65-1.33c0-1.61-.4-3.1-1.19-4.49-.79-1.38-1.85-2.48-3.18-3.3ZM708.68,479.44h-8.91c.48-2.47,2.03-3.71,4.66-3.71,1.07,0,2.02.34,2.86,1.02.84.68,1.3,1.5,1.39,2.45v.24Z"/>
      <path class="cls-1" d="M726.16,472c-1.18,0-2.26.29-3.25.88-.99.59-1.78,1.29-2.4,2.11v-.58c0-.59-.19-1.08-.58-1.48-.39-.4-.87-.6-1.46-.6s-1.08.2-1.46.6c-.39.4-.58.89-.58,1.48v14.04c0,.59.19,1.08.58,1.48.38.4.87.59,1.46.59s1.08-.2,1.46-.59c.38-.4.58-.89.58-1.48v-8.7c0-1.16.37-2.11,1.12-2.87.75-.76,1.78-1.14,3.09-1.14s2.16.36,2.69,1.07c.52.71.78,1.7.78,2.94v8.7c0,.59.19,1.08.58,1.48s.87.59,1.46.59,1.08-.2,1.46-.59.58-.89.58-1.48v-8.7c0-2.42-.44-4.32-1.33-5.7-.88-1.37-2.48-2.06-4.79-2.06Z"/>
      <path class="cls-1" d="M749.41,485.84c-.29,0-.54.05-.75.14-.2.09-.42.22-.66.39-.24.17-.42.29-.56.36-.54.27-1.37.41-2.48.41-1.52,0-2.77-.54-3.74-1.62-.98-1.08-1.46-2.43-1.46-4.06s.48-3.08,1.45-4.13c.96-1.05,2.29-1.58,4-1.58.27,0,.63.05,1.07.14.44.09.78.19,1,.3.2.11.41.26.63.43.21.17.44.31.66.41.23.1.52.15.88.15.48,0,.86-.19,1.16-.56.29-.37.44-.81.44-1.31,0-1-.59-1.8-1.77-2.4s-2.73-.9-4.66-.9c-1.72,0-3.26.4-4.62,1.21-1.36.8-2.42,1.92-3.18,3.35-.76,1.43-1.14,3.06-1.14,4.9s.36,3.37,1.09,4.81c.72,1.44,1.75,2.57,3.08,3.38,1.33.82,2.86,1.22,4.61,1.22,1.18,0,2.29-.14,3.33-.42,1.04-.28,1.88-.66,2.52-1.14.63-.48.95-.99.95-1.53s-.16-1.03-.49-1.39c-.33-.36-.78-.54-1.34-.54Z"/>
      <path class="cls-1" d="M766.16,473.22c-1.33-.82-2.74-1.22-4.23-1.22s-2.95.39-4.28,1.17c-1.34.78-2.41,1.91-3.23,3.38-.82,1.47-1.22,3.18-1.22,5.13,0,1.75.38,3.32,1.16,4.71s1.86,2.49,3.28,3.28c1.42.79,3.08,1.19,4.98,1.19,1.09,0,2.16-.18,3.23-.54s1.92-.8,2.55-1.33c.63-.5.95-1.05.95-1.67,0-.45-.17-.85-.51-1.19s-.75-.51-1.22-.51c-.36,0-.75.1-1.16.31-.11.07-.32.2-.63.39-.31.19-.72.37-1.24.54s-1.25.26-2.18.26c-1.22,0-2.32-.38-3.3-1.14-.98-.76-1.6-1.81-1.87-3.15h11.22c.54,0,1.02-.17,1.43-.51s.62-.78.65-1.33c0-1.61-.4-3.1-1.19-4.49-.79-1.38-1.85-2.48-3.18-3.3ZM766.17,479.44h-8.91c.48-2.47,2.03-3.71,4.66-3.71,1.07,0,2.02.34,2.86,1.02.84.68,1.3,1.5,1.39,2.45v.24Z"/>
      <path class="cls-1" d="M711.85,229.06c2.94,4.07,6.18,7.11,11.01,8.76,2.15.74,4.24,2.6,5.61,4.49,9.74,13.51,19.71,26.89,28.7,40.89,4.27,6.66,9.21,7.99,16.62,6.21-10.36-14.27-20.54-28.3-31.24-43.05,2.85.48,4.68.8,7.44,1.26-60.11-82.84-119.62-164.86-179.68-247.63-2.59,5.96-4.6,11.2-7.12,16.18-1.72,3.4-1.32,5.8.95,8.92,49.34,67.91,98.58,135.91,147.72,203.96Z"/>
      <path class="cls-1" d="M570.37,85.03c32.38,44.41,64.74,88.84,97.23,133.17,1.27,1.73,3.73,3.43,5.75,3.58,3.03.23,4.75,1.29,6.42,3.68,13.65,19.52,27.74,38.73,40.96,58.53,4.04,6.04,8.49,6.78,15.14,5.52-13.86-19.83-27.51-39.36-41.4-59.24,2.13-.23,3.55-.38,5.54-.6-48.27-65.93-96.23-131.43-144.72-197.67-2.62,5.75-4.69,10.78-7.18,15.59-1.56,3.01-1.45,5.19.7,8.01,7.37,9.67,14.4,19.59,21.56,29.42Z"/>
      <path class="cls-1" d="M540.99,96.77c27.87,38.21,55.73,76.43,83.68,114.59,1.14,1.55,3.18,3.4,4.83,3.42,3.16.05,4.76,1.5,6.42,3.77,16.29,22.33,32.66,44.62,49,66.91,3.78,5.16,5.67,5.72,12.66,3.62-16.33-23.53-32.6-47-49.09-70.76,1.63-.24,2.75-.41,4.51-.67-38.68-52.69-76.96-104.85-115.73-157.66-3.06,5.48-5.91,10.12-8.22,15.02-.71,1.51-.61,4.16.28,5.53,3.64,5.57,7.74,10.84,11.66,16.22Z"/>
      <path class="cls-1" d="M586.17,210.87c1.12,1.56,3.66,2.94,5.54,2.94,3.43,0,5.38,1.24,7.27,3.98,14.85,21.52,30.2,42.7,44.59,64.52,4.58,6.95,9.3,8.99,17.26,6.17-17.77-24.37-35.44-48.61-53.24-73.03,1.66-.39,2.8-.66,4.26-1-31.23-42.87-62.18-85.35-93.59-128.46-2.96,4.7-5.32,8.86-8.1,12.72-1.81,2.51-1.29,4.25.36,6.55,25.23,35.19,50.35,70.46,75.65,105.6Z"/>
      <path class="cls-1" d="M553.5,213.84c3.21-.22,4.76,1.45,6.41,3.73,16.3,22.53,32.67,45.01,49.02,67.5q4.87,6.69,13.88,4.35c-17.77-25.04-35.44-49.94-53.25-75.03,1.6-.67,2.8-1.16,4.39-1.83-24.99-33.99-49.6-67.46-73.24-99.61-5.17,4.68-10.06,9.1-15.01,13.58,21.23,28.34,42.48,56.73,63.83,85.06.86,1.14,2.68,2.33,3.97,2.24Z"/>
      <path class="cls-1" d="M518.74,217.85c4.15-.27,6.51,1.33,8.86,4.76,14.2,20.73,28.69,41.27,43.08,61.88q4.96,7.1,14.2,5.05c-17.43-24.36-34.74-48.55-52.24-73.01,1.6-.83,2.81-1.46,4.15-2.16-19.91-26.87-39.56-53.39-59.26-79.99-4.28,5.06-8.01,9.48-11.92,14.1,15.98,22.39,31.98,44.88,48.16,67.25.93,1.28,3.34,2.23,4.98,2.12Z"/>
      <path class="cls-1" d="M488.3,223.28c1.15,1.57,2.14,2.87,3.09,4.22,13.45,19.04,26.89,38.08,40.33,57.12q5.16,7.31,15.06,4.77c-15.71-22.28-31.32-44.42-47.07-66.76,1.05-.79,2.01-1.5,3.06-2.29-15.88-21.5-31.58-42.74-47.46-64.24-4.57,4.2-8.7,7.98-13.02,11.95,14.04,19.39,27.87,38.48,41.81,57.73,1.58-.94,2.8-1.67,4.2-2.5Z"/>
      <path class="cls-1" d="M458.34,233.13c12.14,17.19,24.14,34.18,36.13,51.16,5.51,7.8,5.58,7.82,15.23,5-14.06-19.31-28.04-38.52-42.14-57.89,1.17-1.03,2.22-1.94,3.34-2.92-12.59-17.88-25.02-35.52-37.54-53.31-5.18,4.25-9.9,8.13-14.83,12.19,11.6,15.9,23.14,31.72,34.64,47.49,1.95-.65,3.47-1.16,5.17-1.72Z"/>
      <path class="cls-1" d="M428.33,244.14c9.65,13.46,19.54,26.62,28.68,40.29,3.58,5.35,7.57,6.59,13.8,5.01-11.53-16.51-22.91-32.79-34.65-49.59,1.44-.92,2.69-1.72,4.22-2.7-11.02-15.12-21.44-29.42-31.77-43.58-5.46,4.19-10.29,7.89-15.2,11.66,10.08,13.77,19.89,27.17,29.73,40.62,1.84-.61,3.37-1.11,5.18-1.71Z"/>
      <path class="cls-1" d="M397.4,254.25c7.37,10.48,14.54,20.68,21.71,30.88q4.84,6.89,13.6,4.15c-9.07-12.98-18.08-25.88-27.24-38.99,1.59-.9,2.85-1.61,4.58-2.58-8.79-12.49-17.28-24.56-25.84-36.73-5.89,3.85-11.28,7.37-16.93,11.06,8.48,11.85,16.66,23.3,24.84,34.74,2-.96,3.57-1.71,5.28-2.53Z"/>
      <path class="cls-1" d="M364.8,264.17c.95-.15,2.47,1.42,3.26,2.53,4.07,5.68,8.6,11.15,11.8,17.3,3.46,6.63,8.48,6.56,15.07,5.63-6.65-9.34-12.97-18.21-19.45-27.31,1.54-.88,2.8-1.59,4.57-2.6-7.74-11.43-15.26-22.52-22.84-33.72-5.61,3.9-10.64,7.39-15.92,11.06,5.31,7.55,10.39,14.71,15.39,21.93,2,2.89,3.68,5.89,8.12,5.2Z"/>
      <path class="cls-1" d="M330.74,272.25c3.39.58,5.79,1.86,7.54,4.87,1.5,2.58,3.74,4.74,5.14,7.36,3.15,5.89,7.47,8.07,14.36,4.85-3.45-5.3-6.93-10.37-10.06-15.64-.95-1.61-.93-3.79-1.35-5.72.49-.18.98-.37,1.47-.55-6.15-9.05-12.3-18.1-18.63-27.4-5.55,3.83-10.7,7.37-15.96,10.99,4.19,6.3,7.91,12.23,12.03,17.85,1.2,1.63,3.47,3.06,5.44,3.39Z"/>
      <path class="cls-1" d="M300.25,279.59c1.32-.29,3.42,1.1,4.55,2.3,1.44,1.54,2.49,3.57,3.3,5.55,1.34,3.27,3.57,3.99,6.75,3.16,1.54-.4,3.15-.56,4.49-.79.1-5.72-8.23-9.01-3.62-15.66-4.44-6.94-8.91-13.92-13.52-21.12-6.09,3.07-11.82,5.95-17.9,9,3.38,5.08,6.61,9.68,9.54,14.46,1.57,2.57,3.14,3.82,6.41,3.09Z"/>
      <path class="cls-1" d="M267.25,283.51c.49-.05,1.31,1.03,1.64,1.74,2.87,6.18,7.93,6.65,13.19,5.5-.24-3.99-.47-7.91-.71-11.84l1.51-.29c-3.72-4-7.37-8.08-11.22-11.95-.69-.69-2.41-1.07-3.31-.72-4.59,1.79-9.07,3.88-14.88,6.43,5.94,3.18,5.38,12,13.79,11.12Z"/>
      <path class="cls-1" d="M233.29,286.15c1.22,7.82,7.1,4.05,11.07,4.79,1.15-2.62,2.17-4.93,3.36-7.64-2.29-3.14-4.81-6.59-7.49-10.27-5.73,2.36-11.18,4.62-16.95,7,1.44,2.89,2.67,5.34,3.91,7.83,2.17-.6,3.89-1.08,6.1-1.7Z"/>
      <path class="cls-1" d="M206.1,290.61c1.45-.13,3.25-3.33,3.62-5.35.17-.92-3.02-3.68-4.19-3.42-5.09,1.16-9.99,3.12-15.4,4.94,4.92,3.29,10.41,4.34,15.96,3.83Z"/>
      <path class="cls-1" d="M167.03,290.24c3.59.24,7.18.47,11.48.76-3.95-6.41-7.99-.81-11.48-.76Z"/>
    </g>
  </g>
</svg>